<svg width="122" height="138" viewBox="0 0 122 138" fill="none" xmlns="http://www.w3.org/2000/svg">
<path d="M121.575 52.8899C123.487 52.8899 125.036 51.3475 125.036 49.4449C125.036 47.5424 123.487 46 121.575 46C119.663 46 118.113 47.5424 118.113 49.4449C118.113 51.3475 119.663 52.8899 121.575 52.8899Z" fill="#02D9FC"/>
<path d="M107.729 52.8899C109.641 52.8899 111.191 51.3475 111.191 49.4449C111.191 47.5424 109.641 46 107.729 46C105.817 46 104.268 47.5424 104.268 49.4449C104.268 51.3475 105.817 52.8899 107.729 52.8899Z" fill="#02D9FC"/>
<path d="M121.575 68.9556C123.487 68.9556 125.036 67.4132 125.036 65.5106C125.036 63.608 123.487 62.0657 121.575 62.0657C119.663 62.0657 118.113 63.608 118.113 65.5106C118.113 67.4132 119.663 68.9556 121.575 68.9556Z" fill="#02D9FC"/>
<path d="M107.729 68.9556C109.641 68.9556 111.191 67.4132 111.191 65.5106C111.191 63.608 109.641 62.0657 107.729 62.0657C105.817 62.0657 104.268 63.608 104.268 65.5106C104.268 67.4132 105.817 68.9556 107.729 68.9556Z" fill="#02D9FC"/>
<path d="M121.575 87.322C123.487 87.322 125.036 85.7797 125.036 83.8771C125.036 81.9745 123.487 80.4321 121.575 80.4321C119.663 80.4321 118.113 81.9745 118.113 83.8771C118.113 85.7797 119.663 87.322 121.575 87.322Z" fill="#02D9FC"/>
<path d="M107.729 87.322C109.641 87.322 111.191 85.7797 111.191 83.8771C111.191 81.9745 109.641 80.4321 107.729 80.4321C105.817 80.4321 104.268 81.9745 104.268 83.8771C104.268 85.7797 105.817 87.322 107.729 87.322Z" fill="#02D9FC"/>
<path d="M121.575 103.388C123.487 103.388 125.036 101.845 125.036 99.9427C125.036 98.0402 123.487 96.4978 121.575 96.4978C119.663 96.4978 118.113 98.0402 118.113 99.9427C118.113 101.845 119.663 103.388 121.575 103.388Z" fill="#02D9FC"/>
<path d="M107.729 103.388C109.641 103.388 111.191 101.845 111.191 99.9427C111.191 98.0402 109.641 96.4978 107.729 96.4978C105.817 96.4978 104.268 98.0402 104.268 99.9427C104.268 101.845 105.817 103.388 107.729 103.388Z" fill="#02D9FC"/>
<path d="M121.575 119.454C123.487 119.454 125.036 117.911 125.036 116.009C125.036 114.106 123.487 112.564 121.575 112.564C119.663 112.564 118.113 114.106 118.113 116.009C118.113 117.911 119.663 119.454 121.575 119.454Z" fill="#02D9FC"/>
<path d="M107.729 119.454C109.641 119.454 111.191 117.911 111.191 116.009C111.191 114.106 109.641 112.564 107.729 112.564C105.817 112.564 104.268 114.106 104.268 116.009C104.268 117.911 105.817 119.454 107.729 119.454Z" fill="#02D9FC"/>
<path d="M121.575 137.811C123.487 137.811 125.036 136.268 125.036 134.366C125.036 132.463 123.487 130.921 121.575 130.921C119.663 130.921 118.113 132.463 118.113 134.366C118.113 136.268 119.663 137.811 121.575 137.811Z" fill="#02D9FC"/>
<path d="M107.729 137.811C109.641 137.811 111.191 136.268 111.191 134.366C111.191 132.463 109.641 130.921 107.729 130.921C105.817 130.921 104.268 132.463 104.268 134.366C104.268 136.268 105.817 137.811 107.729 137.811Z" fill="#02D9FC"/>
<path d="M93.8912 52.8899C95.8029 52.8899 97.3527 51.3475 97.3527 49.4449C97.3527 47.5424 95.8029 46 93.8912 46C91.9795 46 90.4297 47.5424 90.4297 49.4449C90.4297 51.3475 91.9795 52.8899 93.8912 52.8899Z" fill="#02D9FC"/>
<path d="M93.8912 68.9556C95.8029 68.9556 97.3527 67.4132 97.3527 65.5106C97.3527 63.608 95.8029 62.0657 93.8912 62.0657C91.9795 62.0657 90.4297 63.608 90.4297 65.5106C90.4297 67.4132 91.9795 68.9556 93.8912 68.9556Z" fill="#02D9FC"/>
<path d="M93.8912 87.322C95.8029 87.322 97.3527 85.7797 97.3527 83.8771C97.3527 81.9745 95.8029 80.4321 93.8912 80.4321C91.9795 80.4321 90.4297 81.9745 90.4297 83.8771C90.4297 85.7797 91.9795 87.322 93.8912 87.322Z" fill="#02D9FC"/>
<path d="M93.8912 103.388C95.8029 103.388 97.3527 101.845 97.3527 99.9427C97.3527 98.0402 95.8029 96.4978 93.8912 96.4978C91.9795 96.4978 90.4297 98.0402 90.4297 99.9427C90.4297 101.845 91.9795 103.388 93.8912 103.388Z" fill="#02D9FC"/>
<path d="M93.8912 119.454C95.8029 119.454 97.3527 117.911 97.3527 116.009C97.3527 114.106 95.8029 112.564 93.8912 112.564C91.9795 112.564 90.4297 114.106 90.4297 116.009C90.4297 117.911 91.9795 119.454 93.8912 119.454Z" fill="#02D9FC"/>
<path d="M93.8912 137.811C95.8029 137.811 97.3527 136.268 97.3527 134.366C97.3527 132.463 95.8029 130.921 93.8912 130.921C91.9795 130.921 90.4297 132.463 90.4297 134.366C90.4297 136.268 91.9795 137.811 93.8912 137.811Z" fill="#02D9FC"/>
<path d="M82.3639 52.8899C84.2756 52.8899 85.8254 51.3475 85.8254 49.4449C85.8254 47.5424 84.2756 46 82.3639 46C80.4521 46 78.9023 47.5424 78.9023 49.4449C78.9023 51.3475 80.4521 52.8899 82.3639 52.8899Z" fill="#02D9FC"/>
<path d="M82.3639 68.9556C84.2756 68.9556 85.8254 67.4132 85.8254 65.5106C85.8254 63.608 84.2756 62.0657 82.3639 62.0657C80.4521 62.0657 78.9023 63.608 78.9023 65.5106C78.9023 67.4132 80.4521 68.9556 82.3639 68.9556Z" fill="#02D9FC"/>
<path d="M82.3639 87.322C84.2756 87.322 85.8254 85.7797 85.8254 83.8771C85.8254 81.9745 84.2756 80.4321 82.3639 80.4321C80.4521 80.4321 78.9023 81.9745 78.9023 83.8771C78.9023 85.7797 80.4521 87.322 82.3639 87.322Z" fill="#02D9FC"/>
<path d="M82.3639 103.388C84.2756 103.388 85.8254 101.845 85.8254 99.9427C85.8254 98.0402 84.2756 96.4978 82.3639 96.4978C80.4521 96.4978 78.9023 98.0402 78.9023 99.9427C78.9023 101.845 80.4521 103.388 82.3639 103.388Z" fill="#02D9FC"/>
<path d="M82.3639 119.454C84.2756 119.454 85.8254 117.911 85.8254 116.009C85.8254 114.106 84.2756 112.564 82.3639 112.564C80.4521 112.564 78.9023 114.106 78.9023 116.009C78.9023 117.911 80.4521 119.454 82.3639 119.454Z" fill="#02D9FC"/>
<path d="M82.3639 137.811C84.2756 137.811 85.8254 136.268 85.8254 134.366C85.8254 132.463 84.2756 130.921 82.3639 130.921C80.4521 130.921 78.9023 132.463 78.9023 134.366C78.9023 136.268 80.4521 137.811 82.3639 137.811Z" fill="#02D9FC"/>
<path d="M68.526 52.8899C70.4377 52.8899 71.9875 51.3475 71.9875 49.4449C71.9875 47.5424 70.4377 46 68.526 46C66.6142 46 65.0645 47.5424 65.0645 49.4449C65.0645 51.3475 66.6142 52.8899 68.526 52.8899Z" fill="#02D9FC"/>
<path d="M68.526 68.9556C70.4377 68.9556 71.9875 67.4132 71.9875 65.5106C71.9875 63.608 70.4377 62.0657 68.526 62.0657C66.6142 62.0657 65.0645 63.608 65.0645 65.5106C65.0645 67.4132 66.6142 68.9556 68.526 68.9556Z" fill="#02D9FC"/>
<path d="M68.526 87.322C70.4377 87.322 71.9875 85.7797 71.9875 83.8771C71.9875 81.9745 70.4377 80.4321 68.526 80.4321C66.6142 80.4321 65.0645 81.9745 65.0645 83.8771C65.0645 85.7797 66.6142 87.322 68.526 87.322Z" fill="#02D9FC"/>
<path d="M68.526 103.388C70.4377 103.388 71.9875 101.845 71.9875 99.9427C71.9875 98.0402 70.4377 96.4978 68.526 96.4978C66.6142 96.4978 65.0645 98.0402 65.0645 99.9427C65.0645 101.845 66.6142 103.388 68.526 103.388Z" fill="#02D9FC"/>
<path d="M68.526 119.454C70.4377 119.454 71.9875 117.911 71.9875 116.009C71.9875 114.106 70.4377 112.564 68.526 112.564C66.6142 112.564 65.0645 114.106 65.0645 116.009C65.0645 117.911 66.6142 119.454 68.526 119.454Z" fill="#02D9FC"/>
<path d="M68.526 137.811C70.4377 137.811 71.9875 136.268 71.9875 134.366C71.9875 132.463 70.4377 130.921 68.526 130.921C66.6142 130.921 65.0645 132.463 65.0645 134.366C65.0645 136.268 66.6142 137.811 68.526 137.811Z" fill="#02D9FC"/>
<path d="M56.9986 52.8899C58.9103 52.8899 60.4601 51.3475 60.4601 49.4449C60.4601 47.5424 58.9103 46 56.9986 46C55.0869 46 53.5371 47.5424 53.5371 49.4449C53.5371 51.3475 55.0869 52.8899 56.9986 52.8899Z" fill="#02D9FC"/>
<path d="M56.9986 68.9556C58.9103 68.9556 60.4601 67.4132 60.4601 65.5106C60.4601 63.608 58.9103 62.0657 56.9986 62.0657C55.0869 62.0657 53.5371 63.608 53.5371 65.5106C53.5371 67.4132 55.0869 68.9556 56.9986 68.9556Z" fill="#02D9FC"/>
<path d="M56.9986 87.322C58.9103 87.322 60.4601 85.7797 60.4601 83.8771C60.4601 81.9745 58.9103 80.4321 56.9986 80.4321C55.0869 80.4321 53.5371 81.9745 53.5371 83.8771C53.5371 85.7797 55.0869 87.322 56.9986 87.322Z" fill="#02D9FC"/>
<path d="M56.9986 103.388C58.9103 103.388 60.4601 101.845 60.4601 99.9427C60.4601 98.0402 58.9103 96.4978 56.9986 96.4978C55.0869 96.4978 53.5371 98.0402 53.5371 99.9427C53.5371 101.845 55.0869 103.388 56.9986 103.388Z" fill="#02D9FC"/>
<path d="M56.9986 119.454C58.9103 119.454 60.4601 117.911 60.4601 116.009C60.4601 114.106 58.9103 112.564 56.9986 112.564C55.0869 112.564 53.5371 114.106 53.5371 116.009C53.5371 117.911 55.0869 119.454 56.9986 119.454Z" fill="#02D9FC"/>
<path d="M56.9986 137.811C58.9103 137.811 60.4601 136.268 60.4601 134.366C60.4601 132.463 58.9103 130.921 56.9986 130.921C55.0869 130.921 53.5371 132.463 53.5371 134.366C53.5371 136.268 55.0869 137.811 56.9986 137.811Z" fill="#02D9FC"/>
<path d="M43.1607 52.8899C45.0725 52.8899 46.6222 51.3475 46.6222 49.4449C46.6222 47.5424 45.0725 46 43.1607 46C41.249 46 39.6992 47.5424 39.6992 49.4449C39.6992 51.3475 41.249 52.8899 43.1607 52.8899Z" fill="#02D9FC"/>
<path d="M43.1607 68.9556C45.0725 68.9556 46.6222 67.4132 46.6222 65.5106C46.6222 63.608 45.0725 62.0657 43.1607 62.0657C41.249 62.0657 39.6992 63.608 39.6992 65.5106C39.6992 67.4132 41.249 68.9556 43.1607 68.9556Z" fill="#02D9FC"/>
<path d="M43.1607 87.322C45.0725 87.322 46.6222 85.7797 46.6222 83.8771C46.6222 81.9745 45.0725 80.4321 43.1607 80.4321C41.249 80.4321 39.6992 81.9745 39.6992 83.8771C39.6992 85.7797 41.249 87.322 43.1607 87.322Z" fill="#02D9FC"/>
<path d="M43.1607 103.388C45.0725 103.388 46.6222 101.845 46.6222 99.9427C46.6222 98.0402 45.0725 96.4978 43.1607 96.4978C41.249 96.4978 39.6992 98.0402 39.6992 99.9427C39.6992 101.845 41.249 103.388 43.1607 103.388Z" fill="#02D9FC"/>
<path d="M43.1607 119.454C45.0725 119.454 46.6222 117.911 46.6222 116.009C46.6222 114.106 45.0725 112.564 43.1607 112.564C41.249 112.564 39.6992 114.106 39.6992 116.009C39.6992 117.911 41.249 119.454 43.1607 119.454Z" fill="#02D9FC"/>
<path d="M43.1607 137.811C45.0725 137.811 46.6222 136.268 46.6222 134.366C46.6222 132.463 45.0725 130.921 43.1607 130.921C41.249 130.921 39.6992 132.463 39.6992 134.366C39.6992 136.268 41.249 137.811 43.1607 137.811Z" fill="#02D9FC"/>
<path d="M31.6256 52.8899C33.5373 52.8899 35.0871 51.3475 35.0871 49.4449C35.0871 47.5424 33.5373 46 31.6256 46C29.7138 46 28.1641 47.5424 28.1641 49.4449C28.1641 51.3475 29.7138 52.8899 31.6256 52.8899Z" fill="#02D9FC"/>
<path d="M31.6256 68.9556C33.5373 68.9556 35.0871 67.4132 35.0871 65.5106C35.0871 63.608 33.5373 62.0657 31.6256 62.0657C29.7138 62.0657 28.1641 63.608 28.1641 65.5106C28.1641 67.4132 29.7138 68.9556 31.6256 68.9556Z" fill="#02D9FC"/>
<path d="M31.6256 87.322C33.5373 87.322 35.0871 85.7797 35.0871 83.8771C35.0871 81.9745 33.5373 80.4321 31.6256 80.4321C29.7138 80.4321 28.1641 81.9745 28.1641 83.8771C28.1641 85.7797 29.7138 87.322 31.6256 87.322Z" fill="#02D9FC"/>
<path d="M31.6256 103.388C33.5373 103.388 35.0871 101.845 35.0871 99.9427C35.0871 98.0402 33.5373 96.4978 31.6256 96.4978C29.7138 96.4978 28.1641 98.0402 28.1641 99.9427C28.1641 101.845 29.7138 103.388 31.6256 103.388Z" fill="#02D9FC"/>
<path d="M31.6256 119.454C33.5373 119.454 35.0871 117.911 35.0871 116.009C35.0871 114.106 33.5373 112.564 31.6256 112.564C29.7138 112.564 28.1641 114.106 28.1641 116.009C28.1641 117.911 29.7138 119.454 31.6256 119.454Z" fill="#02D9FC"/>
<path d="M31.6256 137.811C33.5373 137.811 35.0871 136.268 35.0871 134.366C35.0871 132.463 33.5373 130.921 31.6256 130.921C29.7138 130.921 28.1641 132.463 28.1641 134.366C28.1641 136.268 29.7138 137.811 31.6256 137.811Z" fill="#02D9FC"/>
<path d="M17.7877 52.8899C19.6994 52.8899 21.2492 51.3475 21.2492 49.4449C21.2492 47.5424 19.6994 46 17.7877 46C15.8759 46 14.3262 47.5424 14.3262 49.4449C14.3262 51.3475 15.8759 52.8899 17.7877 52.8899Z" fill="#02D9FC"/>
<path d="M17.7877 68.9556C19.6994 68.9556 21.2492 67.4132 21.2492 65.5106C21.2492 63.608 19.6994 62.0657 17.7877 62.0657C15.8759 62.0657 14.3262 63.608 14.3262 65.5106C14.3262 67.4132 15.8759 68.9556 17.7877 68.9556Z" fill="#02D9FC"/>
<path d="M17.7877 87.322C19.6994 87.322 21.2492 85.7797 21.2492 83.8771C21.2492 81.9745 19.6994 80.4321 17.7877 80.4321C15.8759 80.4321 14.3262 81.9745 14.3262 83.8771C14.3262 85.7797 15.8759 87.322 17.7877 87.322Z" fill="#02D9FC"/>
<path d="M17.7877 103.388C19.6994 103.388 21.2492 101.845 21.2492 99.9427C21.2492 98.0402 19.6994 96.4978 17.7877 96.4978C15.8759 96.4978 14.3262 98.0402 14.3262 99.9427C14.3262 101.845 15.8759 103.388 17.7877 103.388Z" fill="#02D9FC"/>
<path d="M17.7877 119.454C19.6994 119.454 21.2492 117.911 21.2492 116.009C21.2492 114.106 19.6994 112.564 17.7877 112.564C15.8759 112.564 14.3262 114.106 14.3262 116.009C14.3262 117.911 15.8759 119.454 17.7877 119.454Z" fill="#02D9FC"/>
<path d="M17.7877 137.811C19.6994 137.811 21.2492 136.268 21.2492 134.366C21.2492 132.463 19.6994 130.921 17.7877 130.921C15.8759 130.921 14.3262 132.463 14.3262 134.366C14.3262 136.268 15.8759 137.811 17.7877 137.811Z" fill="#02D9FC"/>
<path d="M3.94978 52.8938C5.86152 52.8938 7.4113 51.3514 7.4113 49.4489C7.4113 47.5463 5.86152 46.0039 3.94978 46.0039C2.03804 46.0039 0.488281 47.5463 0.488281 49.4489C0.488281 51.3514 2.03804 52.8938 3.94978 52.8938Z" fill="#02D9FC"/>
<path d="M3.94978 68.9556C5.86152 68.9556 7.4113 67.4132 7.4113 65.5106C7.4113 63.608 5.86152 62.0657 3.94978 62.0657C2.03804 62.0657 0.488281 63.608 0.488281 65.5106C0.488281 67.4132 2.03804 68.9556 3.94978 68.9556Z" fill="#02D9FC"/>
<path d="M3.94978 87.322C5.86152 87.322 7.4113 85.7797 7.4113 83.8771C7.4113 81.9745 5.86152 80.4321 3.94978 80.4321C2.03804 80.4321 0.488281 81.9745 0.488281 83.8771C0.488281 85.7797 2.03804 87.322 3.94978 87.322Z" fill="#02D9FC"/>
<path d="M3.94978 103.388C5.86152 103.388 7.4113 101.845 7.4113 99.9427C7.4113 98.0402 5.86152 96.4978 3.94978 96.4978C2.03804 96.4978 0.488281 98.0402 0.488281 99.9427C0.488281 101.845 2.03804 103.388 3.94978 103.388Z" fill="#02D9FC"/>
<path d="M3.94978 119.454C5.86152 119.454 7.4113 117.911 7.4113 116.009C7.4113 114.106 5.86152 112.564 3.94978 112.564C2.03804 112.564 0.488281 114.106 0.488281 116.009C0.488281 117.911 2.03804 119.454 3.94978 119.454Z" fill="#02D9FC"/>
<path d="M3.94978 137.811C5.86152 137.811 7.4113 136.268 7.4113 134.366C7.4113 132.463 5.86152 130.921 3.94978 130.921C2.03804 130.921 0.488281 132.463 0.488281 134.366C0.488281 136.268 2.03804 137.811 3.94978 137.811Z" fill="#02D9FC"/>
<path d="M70.3395 60.2537L88.7649 39.3947L51.9141 39.3947L70.3395 60.2537Z" fill="#162740"/>
<path d="M70.3395 39.2849L88.7649 18.4259L51.9141 18.4259L70.3395 39.2849Z" fill="#162740"/>
</svg>
