<svg width="101" height="85" viewBox="0 0 101 85" fill="none" xmlns="http://www.w3.org/2000/svg">
<path d="M99.0204 6.36172C100.786 6.36172 102.217 4.9376 102.217 3.18086C102.217 1.42412 100.786 0 99.0204 0C97.2552 0 95.8242 1.42412 95.8242 3.18086C95.8242 4.9376 97.2552 6.36172 99.0204 6.36172Z" fill="#5BEBC1"/>
<path d="M99.0204 21.1957C100.786 21.1957 102.217 19.7716 102.217 18.0148C102.217 16.2581 100.786 14.834 99.0204 14.834C97.2552 14.834 95.8242 16.2581 95.8242 18.0148C95.8242 19.7716 97.2552 21.1957 99.0204 21.1957Z" fill="#5BEBC1"/>
<path d="M99.0204 38.1544C100.786 38.1544 102.217 36.7303 102.217 34.9736C102.217 33.2168 100.786 31.7927 99.0204 31.7927C97.2552 31.7927 95.8242 33.2168 95.8242 34.9736C95.8242 36.7303 97.2552 38.1544 99.0204 38.1544Z" fill="#5BEBC1"/>
<path d="M99.0204 52.9884C100.786 52.9884 102.217 51.5643 102.217 49.8076C102.217 48.0508 100.786 46.6267 99.0204 46.6267C97.2552 46.6267 95.8242 48.0508 95.8242 49.8076C95.8242 51.5643 97.2552 52.9884 99.0204 52.9884Z" fill="#5BEBC1"/>
<path d="M99.0204 67.8226C100.786 67.8226 102.217 66.3985 102.217 64.6418C102.217 62.8851 100.786 61.4609 99.0204 61.4609C97.2552 61.4609 95.8242 62.8851 95.8242 64.6418C95.8242 66.3985 97.2552 67.8226 99.0204 67.8226Z" fill="#5BEBC1"/>
<path d="M99.0204 84.7724C100.786 84.7724 102.217 83.3482 102.217 81.5915C102.217 79.8348 100.786 78.4106 99.0204 78.4106C97.2552 78.4106 95.8242 79.8348 95.8242 81.5915C95.8242 83.3482 97.2552 84.7724 99.0204 84.7724Z" fill="#5BEBC1"/>
<path d="M86.243 6.36172C88.0082 6.36172 89.4392 4.9376 89.4392 3.18086C89.4392 1.42412 88.0082 0 86.243 0C84.4778 0 83.0469 1.42412 83.0469 3.18086C83.0469 4.9376 84.4778 6.36172 86.243 6.36172Z" fill="#5BEBC1"/>
<path d="M86.243 21.1957C88.0082 21.1957 89.4392 19.7716 89.4392 18.0148C89.4392 16.2581 88.0082 14.834 86.243 14.834C84.4778 14.834 83.0469 16.2581 83.0469 18.0148C83.0469 19.7716 84.4778 21.1957 86.243 21.1957Z" fill="#5BEBC1"/>
<path d="M86.243 38.1544C88.0082 38.1544 89.4392 36.7303 89.4392 34.9736C89.4392 33.2168 88.0082 31.7927 86.243 31.7927C84.4778 31.7927 83.0469 33.2168 83.0469 34.9736C83.0469 36.7303 84.4778 38.1544 86.243 38.1544Z" fill="#5BEBC1"/>
<path d="M86.243 52.9884C88.0082 52.9884 89.4392 51.5643 89.4392 49.8076C89.4392 48.0508 88.0082 46.6267 86.243 46.6267C84.4778 46.6267 83.0469 48.0508 83.0469 49.8076C83.0469 51.5643 84.4778 52.9884 86.243 52.9884Z" fill="#5BEBC1"/>
<path d="M86.243 67.8226C88.0082 67.8226 89.4392 66.3985 89.4392 64.6418C89.4392 62.8851 88.0082 61.4609 86.243 61.4609C84.4778 61.4609 83.0469 62.8851 83.0469 64.6418C83.0469 66.3985 84.4778 67.8226 86.243 67.8226Z" fill="#5BEBC1"/>
<path d="M86.243 84.7724C88.0082 84.7724 89.4392 83.3482 89.4392 81.5915C89.4392 79.8348 88.0082 78.4106 86.243 78.4106C84.4778 78.4106 83.0469 79.8348 83.0469 81.5915C83.0469 83.3482 84.4778 84.7724 86.243 84.7724Z" fill="#5BEBC1"/>
<path d="M75.5985 6.36172C77.3637 6.36172 78.7947 4.9376 78.7947 3.18086C78.7947 1.42412 77.3637 0 75.5985 0C73.8333 0 72.4023 1.42412 72.4023 3.18086C72.4023 4.9376 73.8333 6.36172 75.5985 6.36172Z" fill="#5BEBC1"/>
<path d="M75.5985 21.1957C77.3637 21.1957 78.7947 19.7716 78.7947 18.0148C78.7947 16.2581 77.3637 14.834 75.5985 14.834C73.8333 14.834 72.4023 16.2581 72.4023 18.0148C72.4023 19.7716 73.8333 21.1957 75.5985 21.1957Z" fill="#5BEBC1"/>
<path d="M75.5985 38.1544C77.3637 38.1544 78.7947 36.7303 78.7947 34.9736C78.7947 33.2168 77.3637 31.7927 75.5985 31.7927C73.8333 31.7927 72.4023 33.2168 72.4023 34.9736C72.4023 36.7303 73.8333 38.1544 75.5985 38.1544Z" fill="#5BEBC1"/>
<path d="M75.5985 52.9884C77.3637 52.9884 78.7947 51.5643 78.7947 49.8076C78.7947 48.0508 77.3637 46.6267 75.5985 46.6267C73.8333 46.6267 72.4023 48.0508 72.4023 49.8076C72.4023 51.5643 73.8333 52.9884 75.5985 52.9884Z" fill="#5BEBC1"/>
<path d="M75.5985 67.8226C77.3637 67.8226 78.7947 66.3985 78.7947 64.6418C78.7947 62.8851 77.3637 61.4609 75.5985 61.4609C73.8333 61.4609 72.4023 62.8851 72.4023 64.6418C72.4023 66.3985 73.8333 67.8226 75.5985 67.8226Z" fill="#5BEBC1"/>
<path d="M75.5985 84.7724C77.3637 84.7724 78.7947 83.3482 78.7947 81.5915C78.7947 79.8348 77.3637 78.4106 75.5985 78.4106C73.8333 78.4106 72.4023 79.8348 72.4023 81.5915C72.4023 83.3482 73.8333 84.7724 75.5985 84.7724Z" fill="#5BEBC1"/>
<path d="M62.8211 6.36172C64.5863 6.36172 66.0173 4.9376 66.0173 3.18086C66.0173 1.42412 64.5863 0 62.8211 0C61.056 0 59.625 1.42412 59.625 3.18086C59.625 4.9376 61.056 6.36172 62.8211 6.36172Z" fill="#5BEBC1"/>
<path d="M62.8211 21.1957C64.5863 21.1957 66.0173 19.7716 66.0173 18.0148C66.0173 16.2581 64.5863 14.834 62.8211 14.834C61.056 14.834 59.625 16.2581 59.625 18.0148C59.625 19.7716 61.056 21.1957 62.8211 21.1957Z" fill="#5BEBC1"/>
<path d="M62.8211 38.1544C64.5863 38.1544 66.0173 36.7303 66.0173 34.9736C66.0173 33.2168 64.5863 31.7927 62.8211 31.7927C61.056 31.7927 59.625 33.2168 59.625 34.9736C59.625 36.7303 61.056 38.1544 62.8211 38.1544Z" fill="#5BEBC1"/>
<path d="M62.8211 52.9884C64.5863 52.9884 66.0173 51.5643 66.0173 49.8076C66.0173 48.0508 64.5863 46.6267 62.8211 46.6267C61.056 46.6267 59.625 48.0508 59.625 49.8076C59.625 51.5643 61.056 52.9884 62.8211 52.9884Z" fill="#5BEBC1"/>
<path d="M62.8211 67.8226C64.5863 67.8226 66.0173 66.3985 66.0173 64.6418C66.0173 62.8851 64.5863 61.4609 62.8211 61.4609C61.056 61.4609 59.625 62.8851 59.625 64.6418C59.625 66.3985 61.056 67.8226 62.8211 67.8226Z" fill="#5BEBC1"/>
<path d="M62.8211 84.7724C64.5863 84.7724 66.0173 83.3482 66.0173 81.5915C66.0173 79.8348 64.5863 78.4106 62.8211 78.4106C61.056 78.4106 59.625 79.8348 59.625 81.5915C59.625 83.3482 61.056 84.7724 62.8211 84.7724Z" fill="#5BEBC1"/>
<path d="M52.1786 6.36172C53.9438 6.36172 55.3747 4.9376 55.3747 3.18086C55.3747 1.42412 53.9438 0 52.1786 0C50.4134 0 48.9824 1.42412 48.9824 3.18086C48.9824 4.9376 50.4134 6.36172 52.1786 6.36172Z" fill="#5BEBC1"/>
<path d="M52.1786 21.1957C53.9438 21.1957 55.3747 19.7716 55.3747 18.0148C55.3747 16.2581 53.9438 14.834 52.1786 14.834C50.4134 14.834 48.9824 16.2581 48.9824 18.0148C48.9824 19.7716 50.4134 21.1957 52.1786 21.1957Z" fill="#5BEBC1"/>
<path d="M52.1786 38.1544C53.9438 38.1544 55.3747 36.7303 55.3747 34.9736C55.3747 33.2168 53.9438 31.7927 52.1786 31.7927C50.4134 31.7927 48.9824 33.2168 48.9824 34.9736C48.9824 36.7303 50.4134 38.1544 52.1786 38.1544Z" fill="#5BEBC1"/>
<path d="M52.1786 52.9884C53.9438 52.9884 55.3747 51.5643 55.3747 49.8076C55.3747 48.0508 53.9438 46.6267 52.1786 46.6267C50.4134 46.6267 48.9824 48.0508 48.9824 49.8076C48.9824 51.5643 50.4134 52.9884 52.1786 52.9884Z" fill="#5BEBC1"/>
<path d="M52.1786 67.8226C53.9438 67.8226 55.3747 66.3985 55.3747 64.6418C55.3747 62.8851 53.9438 61.4609 52.1786 61.4609C50.4134 61.4609 48.9824 62.8851 48.9824 64.6418C48.9824 66.3985 50.4134 67.8226 52.1786 67.8226Z" fill="#5BEBC1"/>
<path d="M52.1786 84.7724C53.9438 84.7724 55.3747 83.3482 55.3747 81.5915C55.3747 79.8348 53.9438 78.4106 52.1786 78.4106C50.4134 78.4106 48.9824 79.8348 48.9824 81.5915C48.9824 83.3482 50.4134 84.7724 52.1786 84.7724Z" fill="#5BEBC1"/>
<path d="M39.4012 6.36172C41.1664 6.36172 42.5974 4.9376 42.5974 3.18086C42.5974 1.42412 41.1664 0 39.4012 0C37.636 0 36.2051 1.42412 36.2051 3.18086C36.2051 4.9376 37.636 6.36172 39.4012 6.36172Z" fill="#5BEBC1"/>
<path d="M39.4012 21.1957C41.1664 21.1957 42.5974 19.7716 42.5974 18.0148C42.5974 16.2581 41.1664 14.834 39.4012 14.834C37.636 14.834 36.2051 16.2581 36.2051 18.0148C36.2051 19.7716 37.636 21.1957 39.4012 21.1957Z" fill="#5BEBC1"/>
<path d="M39.4012 38.1544C41.1664 38.1544 42.5974 36.7303 42.5974 34.9736C42.5974 33.2168 41.1664 31.7927 39.4012 31.7927C37.636 31.7927 36.2051 33.2168 36.2051 34.9736C36.2051 36.7303 37.636 38.1544 39.4012 38.1544Z" fill="#5BEBC1"/>
<path d="M39.4012 52.9884C41.1664 52.9884 42.5974 51.5643 42.5974 49.8076C42.5974 48.0508 41.1664 46.6267 39.4012 46.6267C37.636 46.6267 36.2051 48.0508 36.2051 49.8076C36.2051 51.5643 37.636 52.9884 39.4012 52.9884Z" fill="#5BEBC1"/>
<path d="M39.4012 67.8226C41.1664 67.8226 42.5974 66.3985 42.5974 64.6418C42.5974 62.8851 41.1664 61.4609 39.4012 61.4609C37.636 61.4609 36.2051 62.8851 36.2051 64.6418C36.2051 66.3985 37.636 67.8226 39.4012 67.8226Z" fill="#5BEBC1"/>
<path d="M39.4012 84.7724C41.1664 84.7724 42.5974 83.3482 42.5974 81.5915C42.5974 79.8348 41.1664 78.4106 39.4012 78.4106C37.636 78.4106 36.2051 79.8348 36.2051 81.5915C36.2051 83.3482 37.636 84.7724 39.4012 84.7724Z" fill="#5BEBC1"/>
<path d="M28.7508 6.36172C30.516 6.36172 31.947 4.9376 31.947 3.18086C31.947 1.42412 30.516 0 28.7508 0C26.9856 0 25.5547 1.42412 25.5547 3.18086C25.5547 4.9376 26.9856 6.36172 28.7508 6.36172Z" fill="#5BEBC1"/>
<path d="M28.7508 21.1957C30.516 21.1957 31.947 19.7716 31.947 18.0148C31.947 16.2581 30.516 14.834 28.7508 14.834C26.9856 14.834 25.5547 16.2581 25.5547 18.0148C25.5547 19.7716 26.9856 21.1957 28.7508 21.1957Z" fill="#5BEBC1"/>
<path d="M28.7508 38.1544C30.516 38.1544 31.947 36.7303 31.947 34.9736C31.947 33.2168 30.516 31.7927 28.7508 31.7927C26.9856 31.7927 25.5547 33.2168 25.5547 34.9736C25.5547 36.7303 26.9856 38.1544 28.7508 38.1544Z" fill="#5BEBC1"/>
<path d="M28.7508 52.9884C30.516 52.9884 31.947 51.5643 31.947 49.8076C31.947 48.0508 30.516 46.6267 28.7508 46.6267C26.9856 46.6267 25.5547 48.0508 25.5547 49.8076C25.5547 51.5643 26.9856 52.9884 28.7508 52.9884Z" fill="#5BEBC1"/>
<path d="M28.7508 67.8226C30.516 67.8226 31.947 66.3985 31.947 64.6418C31.947 62.8851 30.516 61.4609 28.7508 61.4609C26.9856 61.4609 25.5547 62.8851 25.5547 64.6418C25.5547 66.3985 26.9856 67.8226 28.7508 67.8226Z" fill="#5BEBC1"/>
<path d="M28.7508 84.7724C30.516 84.7724 31.947 83.3482 31.947 81.5915C31.947 79.8348 30.516 78.4106 28.7508 78.4106C26.9856 78.4106 25.5547 79.8348 25.5547 81.5915C25.5547 83.3482 26.9856 84.7724 28.7508 84.7724Z" fill="#5BEBC1"/>
<path d="M15.9735 6.36172C17.7387 6.36172 19.1696 4.9376 19.1696 3.18086C19.1696 1.42412 17.7387 0 15.9735 0C14.2083 0 12.7773 1.42412 12.7773 3.18086C12.7773 4.9376 14.2083 6.36172 15.9735 6.36172Z" fill="#5BEBC1"/>
<path d="M15.9735 21.1957C17.7387 21.1957 19.1696 19.7716 19.1696 18.0148C19.1696 16.2581 17.7387 14.834 15.9735 14.834C14.2083 14.834 12.7773 16.2581 12.7773 18.0148C12.7773 19.7716 14.2083 21.1957 15.9735 21.1957Z" fill="#5BEBC1"/>
<path d="M15.9735 38.1544C17.7387 38.1544 19.1696 36.7303 19.1696 34.9736C19.1696 33.2168 17.7387 31.7927 15.9735 31.7927C14.2083 31.7927 12.7773 33.2168 12.7773 34.9736C12.7773 36.7303 14.2083 38.1544 15.9735 38.1544Z" fill="#5BEBC1"/>
<path d="M15.9735 52.9884C17.7387 52.9884 19.1696 51.5643 19.1696 49.8076C19.1696 48.0508 17.7387 46.6267 15.9735 46.6267C14.2083 46.6267 12.7773 48.0508 12.7773 49.8076C12.7773 51.5643 14.2083 52.9884 15.9735 52.9884Z" fill="#5BEBC1"/>
<path d="M15.9735 67.8226C17.7387 67.8226 19.1696 66.3985 19.1696 64.6418C19.1696 62.8851 17.7387 61.4609 15.9735 61.4609C14.2083 61.4609 12.7773 62.8851 12.7773 64.6418C12.7773 66.3985 14.2083 67.8226 15.9735 67.8226Z" fill="#5BEBC1"/>
<path d="M15.9735 84.7724C17.7387 84.7724 19.1696 83.3482 19.1696 81.5915C19.1696 79.8348 17.7387 78.4106 15.9735 78.4106C14.2083 78.4106 12.7773 79.8348 12.7773 81.5915C12.7773 83.3482 14.2083 84.7724 15.9735 84.7724Z" fill="#5BEBC1"/>
<path d="M3.19614 6.36538C4.96133 6.36538 6.3923 4.94126 6.3923 3.18452C6.3923 1.42778 4.96133 0.00366211 3.19614 0.00366211C1.43096 0.00366211 0 1.42778 0 3.18452C0 4.94126 1.43096 6.36538 3.19614 6.36538Z" fill="#5BEBC1"/>
<path d="M3.19614 21.1957C4.96133 21.1957 6.3923 19.7716 6.3923 18.0148C6.3923 16.2581 4.96133 14.834 3.19614 14.834C1.43096 14.834 0 16.2581 0 18.0148C0 19.7716 1.43096 21.1957 3.19614 21.1957Z" fill="#5BEBC1"/>
<path d="M3.19614 38.1544C4.96133 38.1544 6.3923 36.7303 6.3923 34.9736C6.3923 33.2168 4.96133 31.7927 3.19614 31.7927C1.43096 31.7927 0 33.2168 0 34.9736C0 36.7303 1.43096 38.1544 3.19614 38.1544Z" fill="#5BEBC1"/>
<path d="M3.19614 52.9884C4.96133 52.9884 6.3923 51.5643 6.3923 49.8076C6.3923 48.0508 4.96133 46.6267 3.19614 46.6267C1.43096 46.6267 0 48.0508 0 49.8076C0 51.5643 1.43096 52.9884 3.19614 52.9884Z" fill="#5BEBC1"/>
<path d="M3.19614 67.8226C4.96133 67.8226 6.3923 66.3985 6.3923 64.6418C6.3923 62.8851 4.96133 61.4609 3.19614 61.4609C1.43096 61.4609 0 62.8851 0 64.6418C0 66.3985 1.43096 67.8226 3.19614 67.8226Z" fill="#5BEBC1"/>
<path d="M3.19614 84.7724C4.96133 84.7724 6.3923 83.3482 6.3923 81.5915C6.3923 79.8348 4.96133 78.4106 3.19614 78.4106C1.43096 78.4106 0 79.8348 0 81.5915C0 83.3482 1.43096 84.7724 3.19614 84.7724Z" fill="#5BEBC1"/>
</svg>
