<svg width="51" height="35" viewBox="0 0 51 35" fill="none" xmlns="http://www.w3.org/2000/svg">
<g opacity="0.5">
<ellipse cx="1.17258" cy="33.3372" rx="1.19062" ry="1.17258" transform="rotate(-90 1.17258 33.3372)" fill="#172740"/>
<ellipse cx="6.49423" cy="33.3372" rx="1.19062" ry="1.17258" transform="rotate(-90 6.49423 33.3372)" fill="#172740"/>
<ellipse cx="1.17258" cy="27.9793" rx="1.19062" ry="1.17258" transform="rotate(-90 1.17258 27.9793)" fill="#172740"/>
<ellipse cx="6.49423" cy="27.9793" rx="1.19062" ry="1.17258" transform="rotate(-90 6.49423 27.9793)" fill="#172740"/>
<ellipse cx="1.17258" cy="22.6216" rx="1.19062" ry="1.17258" transform="rotate(-90 1.17258 22.6216)" fill="#172740"/>
<ellipse cx="6.49423" cy="22.6216" rx="1.19062" ry="1.17258" transform="rotate(-90 6.49423 22.6216)" fill="#172740"/>
<ellipse cx="1.17258" cy="17.2637" rx="1.19062" ry="1.17258" transform="rotate(-90 1.17258 17.2637)" fill="#172740"/>
<ellipse cx="6.49423" cy="17.2637" rx="1.19062" ry="1.17258" transform="rotate(-90 6.49423 17.2637)" fill="#172740"/>
<ellipse cx="1.17258" cy="11.9063" rx="1.19062" ry="1.17258" transform="rotate(-90 1.17258 11.9063)" fill="#172740"/>
<ellipse cx="6.49423" cy="11.9063" rx="1.19062" ry="1.17258" transform="rotate(-90 6.49423 11.9063)" fill="#172740"/>
<ellipse cx="1.17258" cy="6.54815" rx="1.19062" ry="1.17258" transform="rotate(-90 1.17258 6.54815)" fill="#172740"/>
<ellipse cx="6.49423" cy="6.54815" rx="1.19062" ry="1.17258" transform="rotate(-90 6.49423 6.54815)" fill="#172740"/>
<ellipse cx="1.17258" cy="1.19049" rx="1.19062" ry="1.17258" transform="rotate(-90 1.17258 1.19049)" fill="#172740"/>
<ellipse cx="6.49423" cy="1.19049" rx="1.19062" ry="1.17258" transform="rotate(-90 6.49423 1.19049)" fill="#172740"/>
<ellipse cx="11.816" cy="33.3372" rx="1.19062" ry="1.17258" transform="rotate(-90 11.816 33.3372)" fill="#172740"/>
<ellipse cx="11.816" cy="27.9793" rx="1.19062" ry="1.17258" transform="rotate(-90 11.816 27.9793)" fill="#172740"/>
<ellipse cx="11.816" cy="22.6216" rx="1.19062" ry="1.17258" transform="rotate(-90 11.816 22.6216)" fill="#172740"/>
<ellipse cx="11.816" cy="17.2637" rx="1.19062" ry="1.17258" transform="rotate(-90 11.816 17.2637)" fill="#172740"/>
<ellipse cx="11.816" cy="11.9063" rx="1.19062" ry="1.17258" transform="rotate(-90 11.816 11.9063)" fill="#172740"/>
<ellipse cx="11.816" cy="6.54815" rx="1.19062" ry="1.17258" transform="rotate(-90 11.816 6.54815)" fill="#172740"/>
<ellipse cx="11.816" cy="1.19049" rx="1.19062" ry="1.17258" transform="rotate(-90 11.816 1.19049)" fill="#172740"/>
<ellipse cx="17.1377" cy="33.3372" rx="1.19062" ry="1.17258" transform="rotate(-90 17.1377 33.3372)" fill="#172740"/>
<ellipse cx="17.1377" cy="27.9793" rx="1.19062" ry="1.17258" transform="rotate(-90 17.1377 27.9793)" fill="#172740"/>
<ellipse cx="17.1377" cy="22.6216" rx="1.19062" ry="1.17258" transform="rotate(-90 17.1377 22.6216)" fill="#172740"/>
<ellipse cx="17.1377" cy="17.2637" rx="1.19062" ry="1.17258" transform="rotate(-90 17.1377 17.2637)" fill="#172740"/>
<ellipse cx="17.1377" cy="11.9063" rx="1.19062" ry="1.17258" transform="rotate(-90 17.1377 11.9063)" fill="#172740"/>
<ellipse cx="17.1377" cy="6.54815" rx="1.19062" ry="1.17258" transform="rotate(-90 17.1377 6.54815)" fill="#172740"/>
<ellipse cx="17.1377" cy="1.19049" rx="1.19062" ry="1.17258" transform="rotate(-90 17.1377 1.19049)" fill="#172740"/>
<ellipse cx="22.4594" cy="33.3372" rx="1.19062" ry="1.17258" transform="rotate(-90 22.4594 33.3372)" fill="#172740"/>
<ellipse cx="22.4594" cy="27.9793" rx="1.19062" ry="1.17258" transform="rotate(-90 22.4594 27.9793)" fill="#172740"/>
<ellipse cx="22.4594" cy="22.6216" rx="1.19062" ry="1.17258" transform="rotate(-90 22.4594 22.6216)" fill="#172740"/>
<ellipse cx="22.4594" cy="17.2637" rx="1.19062" ry="1.17258" transform="rotate(-90 22.4594 17.2637)" fill="#172740"/>
<ellipse cx="22.4594" cy="11.9063" rx="1.19062" ry="1.17258" transform="rotate(-90 22.4594 11.9063)" fill="#172740"/>
<ellipse cx="22.4594" cy="6.54815" rx="1.19062" ry="1.17258" transform="rotate(-90 22.4594 6.54815)" fill="#172740"/>
<ellipse cx="22.4594" cy="1.19049" rx="1.19062" ry="1.17258" transform="rotate(-90 22.4594 1.19049)" fill="#172740"/>
<ellipse cx="27.7811" cy="33.3372" rx="1.19062" ry="1.17258" transform="rotate(-90 27.7811 33.3372)" fill="#172740"/>
<ellipse cx="27.7811" cy="27.9793" rx="1.19062" ry="1.17258" transform="rotate(-90 27.7811 27.9793)" fill="#172740"/>
<ellipse cx="27.7811" cy="22.6216" rx="1.19062" ry="1.17258" transform="rotate(-90 27.7811 22.6216)" fill="#172740"/>
<ellipse cx="27.7811" cy="17.2637" rx="1.19062" ry="1.17258" transform="rotate(-90 27.7811 17.2637)" fill="#172740"/>
<ellipse cx="27.7811" cy="11.9063" rx="1.19062" ry="1.17258" transform="rotate(-90 27.7811 11.9063)" fill="#172740"/>
<ellipse cx="27.7811" cy="6.54815" rx="1.19062" ry="1.17258" transform="rotate(-90 27.7811 6.54815)" fill="#172740"/>
<ellipse cx="27.7811" cy="1.19049" rx="1.19062" ry="1.17258" transform="rotate(-90 27.7811 1.19049)" fill="#172740"/>
<ellipse cx="33.1028" cy="33.3372" rx="1.19062" ry="1.17258" transform="rotate(-90 33.1028 33.3372)" fill="#172740"/>
<ellipse cx="33.1028" cy="27.9793" rx="1.19062" ry="1.17258" transform="rotate(-90 33.1028 27.9793)" fill="#172740"/>
<ellipse cx="33.1028" cy="22.6216" rx="1.19062" ry="1.17258" transform="rotate(-90 33.1028 22.6216)" fill="#172740"/>
<ellipse cx="33.1028" cy="17.2637" rx="1.19062" ry="1.17258" transform="rotate(-90 33.1028 17.2637)" fill="#172740"/>
<ellipse cx="33.1028" cy="11.9063" rx="1.19062" ry="1.17258" transform="rotate(-90 33.1028 11.9063)" fill="#172740"/>
<ellipse cx="33.1028" cy="6.54815" rx="1.19062" ry="1.17258" transform="rotate(-90 33.1028 6.54815)" fill="#172740"/>
<ellipse cx="33.1028" cy="1.19049" rx="1.19062" ry="1.17258" transform="rotate(-90 33.1028 1.19049)" fill="#172740"/>
<ellipse cx="38.4245" cy="33.3372" rx="1.19062" ry="1.17258" transform="rotate(-90 38.4245 33.3372)" fill="#172740"/>
<ellipse cx="38.4245" cy="27.9793" rx="1.19062" ry="1.17258" transform="rotate(-90 38.4245 27.9793)" fill="#172740"/>
<ellipse cx="38.4245" cy="22.6216" rx="1.19062" ry="1.17258" transform="rotate(-90 38.4245 22.6216)" fill="#172740"/>
<ellipse cx="38.4245" cy="17.2637" rx="1.19062" ry="1.17258" transform="rotate(-90 38.4245 17.2637)" fill="#172740"/>
<ellipse cx="38.4245" cy="11.9063" rx="1.19062" ry="1.17258" transform="rotate(-90 38.4245 11.9063)" fill="#172740"/>
<ellipse cx="38.4245" cy="6.54815" rx="1.19062" ry="1.17258" transform="rotate(-90 38.4245 6.54815)" fill="#172740"/>
<ellipse cx="38.4245" cy="1.19049" rx="1.19062" ry="1.17258" transform="rotate(-90 38.4245 1.19049)" fill="#172740"/>
<ellipse cx="43.7462" cy="33.3372" rx="1.19062" ry="1.17258" transform="rotate(-90 43.7462 33.3372)" fill="#172740"/>
<ellipse cx="43.7462" cy="27.9793" rx="1.19062" ry="1.17258" transform="rotate(-90 43.7462 27.9793)" fill="#172740"/>
<ellipse cx="43.7462" cy="22.6216" rx="1.19062" ry="1.17258" transform="rotate(-90 43.7462 22.6216)" fill="#172740"/>
<ellipse cx="43.7462" cy="17.2637" rx="1.19062" ry="1.17258" transform="rotate(-90 43.7462 17.2637)" fill="#172740"/>
<ellipse cx="43.7462" cy="11.9063" rx="1.19062" ry="1.17258" transform="rotate(-90 43.7462 11.9063)" fill="#172740"/>
<ellipse cx="43.7462" cy="6.54815" rx="1.19062" ry="1.17258" transform="rotate(-90 43.7462 6.54815)" fill="#172740"/>
<ellipse cx="43.7462" cy="1.19049" rx="1.19062" ry="1.17258" transform="rotate(-90 43.7462 1.19049)" fill="#172740"/>
<ellipse cx="49.068" cy="33.3372" rx="1.19062" ry="1.17258" transform="rotate(-90 49.068 33.3372)" fill="#172740"/>
<ellipse cx="49.068" cy="27.9793" rx="1.19062" ry="1.17258" transform="rotate(-90 49.068 27.9793)" fill="#172740"/>
<ellipse cx="49.068" cy="22.6216" rx="1.19062" ry="1.17258" transform="rotate(-90 49.068 22.6216)" fill="#172740"/>
<ellipse cx="49.068" cy="17.2637" rx="1.19062" ry="1.17258" transform="rotate(-90 49.068 17.2637)" fill="#172740"/>
<ellipse cx="49.068" cy="11.9063" rx="1.19062" ry="1.17258" transform="rotate(-90 49.068 11.9063)" fill="#172740"/>
<ellipse cx="49.068" cy="6.54815" rx="1.19062" ry="1.17258" transform="rotate(-90 49.068 6.54815)" fill="#172740"/>
<ellipse cx="49.068" cy="1.19049" rx="1.19062" ry="1.17258" transform="rotate(-90 49.068 1.19049)" fill="#172740"/>
</g>
</svg>
