<svg width="116" height="85" viewBox="0 0 116 85" fill="none" xmlns="http://www.w3.org/2000/svg">
<path d="M112.011 6.36172C113.776 6.36172 115.207 4.9376 115.207 3.18086C115.207 1.42412 113.776 0 112.011 0C110.246 0 108.815 1.42412 108.815 3.18086C108.815 4.9376 110.246 6.36172 112.011 6.36172Z" fill="#5BEBC1"/>
<path d="M99.227 6.36172C100.992 6.36172 102.423 4.9376 102.423 3.18086C102.423 1.42412 100.992 0 99.227 0C97.4618 0 96.0309 1.42412 96.0309 3.18086C96.0309 4.9376 97.4618 6.36172 99.227 6.36172Z" fill="#5BEBC1"/>
<path d="M112.011 21.1957C113.776 21.1957 115.207 19.7716 115.207 18.0148C115.207 16.2581 113.776 14.834 112.011 14.834C110.246 14.834 108.815 16.2581 108.815 18.0148C108.815 19.7716 110.246 21.1957 112.011 21.1957Z" fill="#5BEBC1"/>
<path d="M99.227 21.1957C100.992 21.1957 102.423 19.7716 102.423 18.0148C102.423 16.2581 100.992 14.834 99.227 14.834C97.4618 14.834 96.0309 16.2581 96.0309 18.0148C96.0309 19.7716 97.4618 21.1957 99.227 21.1957Z" fill="#5BEBC1"/>
<path d="M112.011 38.1544C113.776 38.1544 115.207 36.7303 115.207 34.9736C115.207 33.2168 113.776 31.7927 112.011 31.7927C110.246 31.7927 108.815 33.2168 108.815 34.9736C108.815 36.7303 110.246 38.1544 112.011 38.1544Z" fill="#5BEBC1"/>
<path d="M99.227 38.1544C100.992 38.1544 102.423 36.7303 102.423 34.9736C102.423 33.2168 100.992 31.7927 99.227 31.7927C97.4618 31.7927 96.0309 33.2168 96.0309 34.9736C96.0309 36.7303 97.4618 38.1544 99.227 38.1544Z" fill="#5BEBC1"/>
<path d="M112.011 52.9884C113.776 52.9884 115.207 51.5643 115.207 49.8076C115.207 48.0508 113.776 46.6267 112.011 46.6267C110.246 46.6267 108.815 48.0508 108.815 49.8076C108.815 51.5643 110.246 52.9884 112.011 52.9884Z" fill="#5BEBC1"/>
<path d="M99.227 52.9884C100.992 52.9884 102.423 51.5643 102.423 49.8076C102.423 48.0508 100.992 46.6267 99.227 46.6267C97.4618 46.6267 96.0309 48.0508 96.0309 49.8076C96.0309 51.5643 97.4618 52.9884 99.227 52.9884Z" fill="#5BEBC1"/>
<path d="M112.011 67.8226C113.776 67.8226 115.207 66.3985 115.207 64.6418C115.207 62.8851 113.776 61.4609 112.011 61.4609C110.246 61.4609 108.815 62.8851 108.815 64.6418C108.815 66.3985 110.246 67.8226 112.011 67.8226Z" fill="#5BEBC1"/>
<path d="M99.227 67.8226C100.992 67.8226 102.423 66.3985 102.423 64.6418C102.423 62.8851 100.992 61.4609 99.227 61.4609C97.4618 61.4609 96.0309 62.8851 96.0309 64.6418C96.0309 66.3985 97.4618 67.8226 99.227 67.8226Z" fill="#5BEBC1"/>
<path d="M112.011 84.7724C113.776 84.7724 115.207 83.3482 115.207 81.5915C115.207 79.8348 113.776 78.4106 112.011 78.4106C110.246 78.4106 108.815 79.8348 108.815 81.5915C108.815 83.3482 110.246 84.7724 112.011 84.7724Z" fill="#5BEBC1"/>
<path d="M99.227 84.7724C100.992 84.7724 102.423 83.3482 102.423 81.5915C102.423 79.8348 100.992 78.4106 99.227 78.4106C97.4618 78.4106 96.0309 79.8348 96.0309 81.5915C96.0309 83.3482 97.4618 84.7724 99.227 84.7724Z" fill="#5BEBC1"/>
<path d="M86.4507 6.36172C88.2158 6.36172 89.6468 4.9376 89.6468 3.18086C89.6468 1.42412 88.2158 0 86.4507 0C84.6855 0 83.2545 1.42412 83.2545 3.18086C83.2545 4.9376 84.6855 6.36172 86.4507 6.36172Z" fill="#5BEBC1"/>
<path d="M86.4507 21.1957C88.2158 21.1957 89.6468 19.7716 89.6468 18.0148C89.6468 16.2581 88.2158 14.834 86.4507 14.834C84.6855 14.834 83.2545 16.2581 83.2545 18.0148C83.2545 19.7716 84.6855 21.1957 86.4507 21.1957Z" fill="#5BEBC1"/>
<path d="M86.4507 38.1544C88.2158 38.1544 89.6468 36.7303 89.6468 34.9736C89.6468 33.2168 88.2158 31.7927 86.4507 31.7927C84.6855 31.7927 83.2545 33.2168 83.2545 34.9736C83.2545 36.7303 84.6855 38.1544 86.4507 38.1544Z" fill="#5BEBC1"/>
<path d="M86.4507 52.9884C88.2158 52.9884 89.6468 51.5643 89.6468 49.8076C89.6468 48.0508 88.2158 46.6267 86.4507 46.6267C84.6855 46.6267 83.2545 48.0508 83.2545 49.8076C83.2545 51.5643 84.6855 52.9884 86.4507 52.9884Z" fill="#5BEBC1"/>
<path d="M86.4507 67.8226C88.2158 67.8226 89.6468 66.3985 89.6468 64.6418C89.6468 62.8851 88.2158 61.4609 86.4507 61.4609C84.6855 61.4609 83.2545 62.8851 83.2545 64.6418C83.2545 66.3985 84.6855 67.8226 86.4507 67.8226Z" fill="#5BEBC1"/>
<path d="M86.4507 84.7724C88.2158 84.7724 89.6468 83.3482 89.6468 81.5915C89.6468 79.8348 88.2158 78.4106 86.4507 78.4106C84.6855 78.4106 83.2545 79.8348 83.2545 81.5915C83.2545 83.3482 84.6855 84.7724 86.4507 84.7724Z" fill="#5BEBC1"/>
<path d="M75.8071 6.36172C77.5723 6.36172 79.0033 4.9376 79.0033 3.18086C79.0033 1.42412 77.5723 0 75.8071 0C74.0419 0 72.611 1.42412 72.611 3.18086C72.611 4.9376 74.0419 6.36172 75.8071 6.36172Z" fill="#5BEBC1"/>
<path d="M75.8071 21.1957C77.5723 21.1957 79.0033 19.7716 79.0033 18.0148C79.0033 16.2581 77.5723 14.834 75.8071 14.834C74.0419 14.834 72.611 16.2581 72.611 18.0148C72.611 19.7716 74.0419 21.1957 75.8071 21.1957Z" fill="#5BEBC1"/>
<path d="M75.8071 38.1544C77.5723 38.1544 79.0033 36.7303 79.0033 34.9736C79.0033 33.2168 77.5723 31.7927 75.8071 31.7927C74.0419 31.7927 72.611 33.2168 72.611 34.9736C72.611 36.7303 74.0419 38.1544 75.8071 38.1544Z" fill="#5BEBC1"/>
<path d="M75.8071 52.9884C77.5723 52.9884 79.0033 51.5643 79.0033 49.8076C79.0033 48.0508 77.5723 46.6267 75.8071 46.6267C74.0419 46.6267 72.611 48.0508 72.611 49.8076C72.611 51.5643 74.0419 52.9884 75.8071 52.9884Z" fill="#5BEBC1"/>
<path d="M75.8071 67.8226C77.5723 67.8226 79.0033 66.3985 79.0033 64.6418C79.0033 62.8851 77.5723 61.4609 75.8071 61.4609C74.0419 61.4609 72.611 62.8851 72.611 64.6418C72.611 66.3985 74.0419 67.8226 75.8071 67.8226Z" fill="#5BEBC1"/>
<path d="M75.8071 84.7724C77.5723 84.7724 79.0033 83.3482 79.0033 81.5915C79.0033 79.8348 77.5723 78.4106 75.8071 78.4106C74.0419 78.4106 72.611 79.8348 72.611 81.5915C72.611 83.3482 74.0419 84.7724 75.8071 84.7724Z" fill="#5BEBC1"/>
<path d="M63.0288 6.36172C64.794 6.36172 66.2249 4.9376 66.2249 3.18086C66.2249 1.42412 64.794 0 63.0288 0C61.2636 0 59.8326 1.42412 59.8326 3.18086C59.8326 4.9376 61.2636 6.36172 63.0288 6.36172Z" fill="#5BEBC1"/>
<path d="M63.0288 21.1957C64.794 21.1957 66.2249 19.7716 66.2249 18.0148C66.2249 16.2581 64.794 14.834 63.0288 14.834C61.2636 14.834 59.8326 16.2581 59.8326 18.0148C59.8326 19.7716 61.2636 21.1957 63.0288 21.1957Z" fill="#5BEBC1"/>
<path d="M63.0288 38.1544C64.794 38.1544 66.2249 36.7303 66.2249 34.9736C66.2249 33.2168 64.794 31.7927 63.0288 31.7927C61.2636 31.7927 59.8326 33.2168 59.8326 34.9736C59.8326 36.7303 61.2636 38.1544 63.0288 38.1544Z" fill="#5BEBC1"/>
<path d="M63.0288 52.9884C64.794 52.9884 66.2249 51.5643 66.2249 49.8076C66.2249 48.0508 64.794 46.6267 63.0288 46.6267C61.2636 46.6267 59.8326 48.0508 59.8326 49.8076C59.8326 51.5643 61.2636 52.9884 63.0288 52.9884Z" fill="#5BEBC1"/>
<path d="M63.0288 67.8226C64.794 67.8226 66.2249 66.3985 66.2249 64.6418C66.2249 62.8851 64.794 61.4609 63.0288 61.4609C61.2636 61.4609 59.8326 62.8851 59.8326 64.6418C59.8326 66.3985 61.2636 67.8226 63.0288 67.8226Z" fill="#5BEBC1"/>
<path d="M63.0288 84.7724C64.794 84.7724 66.2249 83.3482 66.2249 81.5915C66.2249 79.8348 64.794 78.4106 63.0288 78.4106C61.2636 78.4106 59.8326 79.8348 59.8326 81.5915C59.8326 83.3482 61.2636 84.7724 63.0288 84.7724Z" fill="#5BEBC1"/>
<path d="M52.3862 6.36172C54.1514 6.36172 55.5824 4.9376 55.5824 3.18086C55.5824 1.42412 54.1514 0 52.3862 0C50.621 0 49.1901 1.42412 49.1901 3.18086C49.1901 4.9376 50.621 6.36172 52.3862 6.36172Z" fill="#5BEBC1"/>
<path d="M52.3862 21.1957C54.1514 21.1957 55.5824 19.7716 55.5824 18.0148C55.5824 16.2581 54.1514 14.834 52.3862 14.834C50.621 14.834 49.1901 16.2581 49.1901 18.0148C49.1901 19.7716 50.621 21.1957 52.3862 21.1957Z" fill="#5BEBC1"/>
<path d="M52.3862 38.1544C54.1514 38.1544 55.5824 36.7303 55.5824 34.9736C55.5824 33.2168 54.1514 31.7927 52.3862 31.7927C50.621 31.7927 49.1901 33.2168 49.1901 34.9736C49.1901 36.7303 50.621 38.1544 52.3862 38.1544Z" fill="#5BEBC1"/>
<path d="M52.3862 52.9884C54.1514 52.9884 55.5824 51.5643 55.5824 49.8076C55.5824 48.0508 54.1514 46.6267 52.3862 46.6267C50.621 46.6267 49.1901 48.0508 49.1901 49.8076C49.1901 51.5643 50.621 52.9884 52.3862 52.9884Z" fill="#5BEBC1"/>
<path d="M52.3862 67.8226C54.1514 67.8226 55.5824 66.3985 55.5824 64.6418C55.5824 62.8851 54.1514 61.4609 52.3862 61.4609C50.621 61.4609 49.1901 62.8851 49.1901 64.6418C49.1901 66.3985 50.621 67.8226 52.3862 67.8226Z" fill="#5BEBC1"/>
<path d="M52.3862 84.7724C54.1514 84.7724 55.5824 83.3482 55.5824 81.5915C55.5824 79.8348 54.1514 78.4106 52.3862 78.4106C50.621 78.4106 49.1901 79.8348 49.1901 81.5915C49.1901 83.3482 50.621 84.7724 52.3862 84.7724Z" fill="#5BEBC1"/>
<path d="M39.6089 6.36172C41.3741 6.36172 42.805 4.9376 42.805 3.18086C42.805 1.42412 41.3741 0 39.6089 0C37.8437 0 36.4127 1.42412 36.4127 3.18086C36.4127 4.9376 37.8437 6.36172 39.6089 6.36172Z" fill="#5BEBC1"/>
<path d="M39.6089 21.1957C41.3741 21.1957 42.805 19.7716 42.805 18.0148C42.805 16.2581 41.3741 14.834 39.6089 14.834C37.8437 14.834 36.4127 16.2581 36.4127 18.0148C36.4127 19.7716 37.8437 21.1957 39.6089 21.1957Z" fill="#5BEBC1"/>
<path d="M39.6089 38.1544C41.3741 38.1544 42.805 36.7303 42.805 34.9736C42.805 33.2168 41.3741 31.7927 39.6089 31.7927C37.8437 31.7927 36.4127 33.2168 36.4127 34.9736C36.4127 36.7303 37.8437 38.1544 39.6089 38.1544Z" fill="#5BEBC1"/>
<path d="M39.6089 52.9884C41.3741 52.9884 42.805 51.5643 42.805 49.8076C42.805 48.0508 41.3741 46.6267 39.6089 46.6267C37.8437 46.6267 36.4127 48.0508 36.4127 49.8076C36.4127 51.5643 37.8437 52.9884 39.6089 52.9884Z" fill="#5BEBC1"/>
<path d="M39.6089 67.8226C41.3741 67.8226 42.805 66.3985 42.805 64.6418C42.805 62.8851 41.3741 61.4609 39.6089 61.4609C37.8437 61.4609 36.4127 62.8851 36.4127 64.6418C36.4127 66.3985 37.8437 67.8226 39.6089 67.8226Z" fill="#5BEBC1"/>
<path d="M39.6089 84.7724C41.3741 84.7724 42.805 83.3482 42.805 81.5915C42.805 79.8348 41.3741 78.4106 39.6089 78.4106C37.8437 78.4106 36.4127 79.8348 36.4127 81.5915C36.4127 83.3482 37.8437 84.7724 39.6089 84.7724Z" fill="#5BEBC1"/>
<path d="M28.9575 6.36172C30.7227 6.36172 32.1537 4.9376 32.1537 3.18086C32.1537 1.42412 30.7227 0 28.9575 0C27.1923 0 25.7614 1.42412 25.7614 3.18086C25.7614 4.9376 27.1923 6.36172 28.9575 6.36172Z" fill="#5BEBC1"/>
<path d="M28.9575 21.1957C30.7227 21.1957 32.1537 19.7716 32.1537 18.0148C32.1537 16.2581 30.7227 14.834 28.9575 14.834C27.1923 14.834 25.7614 16.2581 25.7614 18.0148C25.7614 19.7716 27.1923 21.1957 28.9575 21.1957Z" fill="#5BEBC1"/>
<path d="M28.9575 38.1544C30.7227 38.1544 32.1537 36.7303 32.1537 34.9736C32.1537 33.2168 30.7227 31.7927 28.9575 31.7927C27.1923 31.7927 25.7614 33.2168 25.7614 34.9736C25.7614 36.7303 27.1923 38.1544 28.9575 38.1544Z" fill="#5BEBC1"/>
<path d="M28.9575 52.9884C30.7227 52.9884 32.1537 51.5643 32.1537 49.8076C32.1537 48.0508 30.7227 46.6267 28.9575 46.6267C27.1923 46.6267 25.7614 48.0508 25.7614 49.8076C25.7614 51.5643 27.1923 52.9884 28.9575 52.9884Z" fill="#5BEBC1"/>
<path d="M28.9575 67.8226C30.7227 67.8226 32.1537 66.3985 32.1537 64.6418C32.1537 62.8851 30.7227 61.4609 28.9575 61.4609C27.1923 61.4609 25.7614 62.8851 25.7614 64.6418C25.7614 66.3985 27.1923 67.8226 28.9575 67.8226Z" fill="#5BEBC1"/>
<path d="M28.9575 84.7724C30.7227 84.7724 32.1537 83.3482 32.1537 81.5915C32.1537 79.8348 30.7227 78.4106 28.9575 78.4106C27.1923 78.4106 25.7614 79.8348 25.7614 81.5915C25.7614 83.3482 27.1923 84.7724 28.9575 84.7724Z" fill="#5BEBC1"/>
<path d="M16.1802 6.36172C17.9454 6.36172 19.3763 4.9376 19.3763 3.18086C19.3763 1.42412 17.9454 0 16.1802 0C14.415 0 12.984 1.42412 12.984 3.18086C12.984 4.9376 14.415 6.36172 16.1802 6.36172Z" fill="#5BEBC1"/>
<path d="M16.1802 21.1957C17.9454 21.1957 19.3763 19.7716 19.3763 18.0148C19.3763 16.2581 17.9454 14.834 16.1802 14.834C14.415 14.834 12.984 16.2581 12.984 18.0148C12.984 19.7716 14.415 21.1957 16.1802 21.1957Z" fill="#5BEBC1"/>
<path d="M16.1802 38.1544C17.9454 38.1544 19.3763 36.7303 19.3763 34.9736C19.3763 33.2168 17.9454 31.7927 16.1802 31.7927C14.415 31.7927 12.984 33.2168 12.984 34.9736C12.984 36.7303 14.415 38.1544 16.1802 38.1544Z" fill="#5BEBC1"/>
<path d="M16.1802 52.9884C17.9454 52.9884 19.3763 51.5643 19.3763 49.8076C19.3763 48.0508 17.9454 46.6267 16.1802 46.6267C14.415 46.6267 12.984 48.0508 12.984 49.8076C12.984 51.5643 14.415 52.9884 16.1802 52.9884Z" fill="#5BEBC1"/>
<path d="M16.1802 67.8226C17.9454 67.8226 19.3763 66.3985 19.3763 64.6418C19.3763 62.8851 17.9454 61.4609 16.1802 61.4609C14.415 61.4609 12.984 62.8851 12.984 64.6418C12.984 66.3985 14.415 67.8226 16.1802 67.8226Z" fill="#5BEBC1"/>
<path d="M16.1802 84.7724C17.9454 84.7724 19.3763 83.3482 19.3763 81.5915C19.3763 79.8348 17.9454 78.4106 16.1802 78.4106C14.415 78.4106 12.984 79.8348 12.984 81.5915C12.984 83.3482 14.415 84.7724 16.1802 84.7724Z" fill="#5BEBC1"/>
<path d="M3.40476 6.36538C5.16995 6.36538 6.60092 4.94126 6.60092 3.18452C6.60092 1.42778 5.16995 0.00366211 3.40476 0.00366211C1.63958 0.00366211 0.208618 1.42778 0.208618 3.18452C0.208618 4.94126 1.63958 6.36538 3.40476 6.36538Z" fill="#5BEBC1"/>
<path d="M3.40379 21.1957C5.16897 21.1957 6.59994 19.7716 6.59994 18.0148C6.59994 16.2581 5.16897 14.834 3.40379 14.834C1.6386 14.834 0.207642 16.2581 0.207642 18.0148C0.207642 19.7716 1.6386 21.1957 3.40379 21.1957Z" fill="#5BEBC1"/>
<path d="M3.40379 38.1544C5.16897 38.1544 6.59994 36.7303 6.59994 34.9736C6.59994 33.2168 5.16897 31.7927 3.40379 31.7927C1.6386 31.7927 0.207642 33.2168 0.207642 34.9736C0.207642 36.7303 1.6386 38.1544 3.40379 38.1544Z" fill="#5BEBC1"/>
<path d="M3.40379 52.9884C5.16897 52.9884 6.59994 51.5643 6.59994 49.8076C6.59994 48.0508 5.16897 46.6267 3.40379 46.6267C1.6386 46.6267 0.207642 48.0508 0.207642 49.8076C0.207642 51.5643 1.6386 52.9884 3.40379 52.9884Z" fill="#5BEBC1"/>
<path d="M3.40379 67.8226C5.16897 67.8226 6.59994 66.3985 6.59994 64.6418C6.59994 62.8851 5.16897 61.4609 3.40379 61.4609C1.6386 61.4609 0.207642 62.8851 0.207642 64.6418C0.207642 66.3985 1.6386 67.8226 3.40379 67.8226Z" fill="#5BEBC1"/>
<path d="M3.40379 84.7724C5.16897 84.7724 6.59994 83.3482 6.59994 81.5915C6.59994 79.8348 5.16897 78.4106 3.40379 78.4106C1.6386 78.4106 0.207642 79.8348 0.207642 81.5915C0.207642 83.3482 1.6386 84.7724 3.40379 84.7724Z" fill="#5BEBC1"/>
</svg>
