<svg width="45" height="85" viewBox="0 0 45 85" fill="none" xmlns="http://www.w3.org/2000/svg">
<path d="M41.8041 6.36172C43.5692 6.36172 45.0002 4.9376 45.0002 3.18086C45.0002 1.42412 43.5692 0 41.8041 0C40.0389 0 38.6079 1.42412 38.6079 3.18086C38.6079 4.9376 40.0389 6.36172 41.8041 6.36172Z" fill="#0E1D37"/>
<path d="M29.0194 6.36172C30.7846 6.36172 32.2156 4.9376 32.2156 3.18086C32.2156 1.42412 30.7846 0 29.0194 0C27.2542 0 25.8232 1.42412 25.8232 3.18086C25.8232 4.9376 27.2542 6.36172 29.0194 6.36172Z" fill="#0E1D37"/>
<path d="M41.8041 21.1957C43.5692 21.1957 45.0002 19.7716 45.0002 18.0148C45.0002 16.2581 43.5692 14.834 41.8041 14.834C40.0389 14.834 38.6079 16.2581 38.6079 18.0148C38.6079 19.7716 40.0389 21.1957 41.8041 21.1957Z" fill="#0E1D37"/>
<path d="M29.0194 21.1957C30.7846 21.1957 32.2156 19.7716 32.2156 18.0148C32.2156 16.2581 30.7846 14.834 29.0194 14.834C27.2542 14.834 25.8232 16.2581 25.8232 18.0148C25.8232 19.7716 27.2542 21.1957 29.0194 21.1957Z" fill="#0E1D37"/>
<path d="M41.8041 38.1547C43.5692 38.1547 45.0002 36.7306 45.0002 34.9738C45.0002 33.2171 43.5692 31.793 41.8041 31.793C40.0389 31.793 38.6079 33.2171 38.6079 34.9738C38.6079 36.7306 40.0389 38.1547 41.8041 38.1547Z" fill="#0E1D37"/>
<path d="M29.0194 38.1547C30.7846 38.1547 32.2156 36.7306 32.2156 34.9738C32.2156 33.2171 30.7846 31.793 29.0194 31.793C27.2542 31.793 25.8232 33.2171 25.8232 34.9738C25.8232 36.7306 27.2542 38.1547 29.0194 38.1547Z" fill="#0E1D37"/>
<path d="M41.8041 52.9884C43.5692 52.9884 45.0002 51.5643 45.0002 49.8076C45.0002 48.0508 43.5692 46.6267 41.8041 46.6267C40.0389 46.6267 38.6079 48.0508 38.6079 49.8076C38.6079 51.5643 40.0389 52.9884 41.8041 52.9884Z" fill="#0E1D37"/>
<path d="M29.0194 52.9884C30.7846 52.9884 32.2156 51.5643 32.2156 49.8076C32.2156 48.0508 30.7846 46.6267 29.0194 46.6267C27.2542 46.6267 25.8232 48.0508 25.8232 49.8076C25.8232 51.5643 27.2542 52.9884 29.0194 52.9884Z" fill="#0E1D37"/>
<path d="M41.8041 67.8226C43.5692 67.8226 45.0002 66.3985 45.0002 64.6418C45.0002 62.8851 43.5692 61.4609 41.8041 61.4609C40.0389 61.4609 38.6079 62.8851 38.6079 64.6418C38.6079 66.3985 40.0389 67.8226 41.8041 67.8226Z" fill="#0E1D37"/>
<path d="M29.0194 67.8226C30.7846 67.8226 32.2156 66.3985 32.2156 64.6418C32.2156 62.8851 30.7846 61.4609 29.0194 61.4609C27.2542 61.4609 25.8232 62.8851 25.8232 64.6418C25.8232 66.3985 27.2542 67.8226 29.0194 67.8226Z" fill="#0E1D37"/>
<path d="M41.8041 84.7724C43.5692 84.7724 45.0002 83.3482 45.0002 81.5915C45.0002 79.8348 43.5692 78.4106 41.8041 78.4106C40.0389 78.4106 38.6079 79.8348 38.6079 81.5915C38.6079 83.3482 40.0389 84.7724 41.8041 84.7724Z" fill="#0E1D37"/>
<path d="M29.0194 84.7724C30.7846 84.7724 32.2156 83.3482 32.2156 81.5915C32.2156 79.8348 30.7846 78.4106 29.0194 78.4106C27.2542 78.4106 25.8232 79.8348 25.8232 81.5915C25.8232 83.3482 27.2542 84.7724 29.0194 84.7724Z" fill="#0E1D37"/>
<path d="M16.2425 6.36172C18.0077 6.36172 19.4387 4.9376 19.4387 3.18086C19.4387 1.42412 18.0077 0 16.2425 0C14.4773 0 13.0464 1.42412 13.0464 3.18086C13.0464 4.9376 14.4773 6.36172 16.2425 6.36172Z" fill="#0E1D37"/>
<path d="M16.2425 21.1957C18.0077 21.1957 19.4387 19.7716 19.4387 18.0148C19.4387 16.2581 18.0077 14.834 16.2425 14.834C14.4773 14.834 13.0464 16.2581 13.0464 18.0148C13.0464 19.7716 14.4773 21.1957 16.2425 21.1957Z" fill="#0E1D37"/>
<path d="M16.2425 38.1547C18.0077 38.1547 19.4387 36.7306 19.4387 34.9738C19.4387 33.2171 18.0077 31.793 16.2425 31.793C14.4773 31.793 13.0464 33.2171 13.0464 34.9738C13.0464 36.7306 14.4773 38.1547 16.2425 38.1547Z" fill="#0E1D37"/>
<path d="M16.2425 52.9884C18.0077 52.9884 19.4387 51.5643 19.4387 49.8076C19.4387 48.0508 18.0077 46.6267 16.2425 46.6267C14.4773 46.6267 13.0464 48.0508 13.0464 49.8076C13.0464 51.5643 14.4773 52.9884 16.2425 52.9884Z" fill="#0E1D37"/>
<path d="M16.2425 67.8226C18.0077 67.8226 19.4387 66.3985 19.4387 64.6418C19.4387 62.8851 18.0077 61.4609 16.2425 61.4609C14.4773 61.4609 13.0464 62.8851 13.0464 64.6418C13.0464 66.3985 14.4773 67.8226 16.2425 67.8226Z" fill="#0E1D37"/>
<path d="M16.2425 84.7724C18.0077 84.7724 19.4387 83.3482 19.4387 81.5915C19.4387 79.8348 18.0077 78.4106 16.2425 78.4106C14.4773 78.4106 13.0464 79.8348 13.0464 81.5915C13.0464 83.3482 14.4773 84.7724 16.2425 84.7724Z" fill="#0E1D37"/>
<path d="M5.59899 6.36172C7.36417 6.36172 8.79514 4.9376 8.79514 3.18086C8.79514 1.42412 7.36417 0 5.59899 0C3.8338 0 2.40283 1.42412 2.40283 3.18086C2.40283 4.9376 3.8338 6.36172 5.59899 6.36172Z" fill="#0E1D37"/>
<path d="M5.59899 21.1957C7.36417 21.1957 8.79514 19.7716 8.79514 18.0148C8.79514 16.2581 7.36417 14.834 5.59899 14.834C3.8338 14.834 2.40283 16.2581 2.40283 18.0148C2.40283 19.7716 3.8338 21.1957 5.59899 21.1957Z" fill="#0E1D37"/>
<path d="M5.59899 38.1547C7.36417 38.1547 8.79514 36.7306 8.79514 34.9738C8.79514 33.2171 7.36417 31.793 5.59899 31.793C3.8338 31.793 2.40283 33.2171 2.40283 34.9738C2.40283 36.7306 3.8338 38.1547 5.59899 38.1547Z" fill="#0E1D37"/>
<path d="M5.59899 52.9884C7.36417 52.9884 8.79514 51.5643 8.79514 49.8076C8.79514 48.0508 7.36417 46.6267 5.59899 46.6267C3.8338 46.6267 2.40283 48.0508 2.40283 49.8076C2.40283 51.5643 3.8338 52.9884 5.59899 52.9884Z" fill="#0E1D37"/>
<path d="M5.59899 67.8226C7.36417 67.8226 8.79514 66.3985 8.79514 64.6418C8.79514 62.8851 7.36417 61.4609 5.59899 61.4609C3.8338 61.4609 2.40283 62.8851 2.40283 64.6418C2.40283 66.3985 3.8338 67.8226 5.59899 67.8226Z" fill="#0E1D37"/>
<path d="M5.59899 84.7724C7.36417 84.7724 8.79514 83.3482 8.79514 81.5915C8.79514 79.8348 7.36417 78.4106 5.59899 78.4106C3.8338 78.4106 2.40283 79.8348 2.40283 81.5915C2.40283 83.3482 3.8338 84.7724 5.59899 84.7724Z" fill="#0E1D37"/>
</svg>
