<svg width="59" height="73" viewBox="0 0 59 73" fill="none" xmlns="http://www.w3.org/2000/svg">
<path d="M53.7045 5.41742C55.2077 5.41742 56.4263 4.20469 56.4263 2.70871C56.4263 1.21273 55.2077 0 53.7045 0C52.2013 0 50.9828 1.21273 50.9828 2.70871C50.9828 4.20469 52.2013 5.41742 53.7045 5.41742Z" fill="#02D9FC"/>
<path d="M53.7045 18.0497C55.2077 18.0497 56.4263 16.837 56.4263 15.341C56.4263 13.8451 55.2077 12.6323 53.7045 12.6323C52.2013 12.6323 50.9828 13.8451 50.9828 15.341C50.9828 16.837 52.2013 18.0497 53.7045 18.0497Z" fill="#02D9FC"/>
<path d="M53.7045 32.4907C55.2077 32.4907 56.4263 31.2779 56.4263 29.782C56.4263 28.286 55.2077 27.0732 53.7045 27.0732C52.2013 27.0732 50.9828 28.286 50.9828 29.782C50.9828 31.2779 52.2013 32.4907 53.7045 32.4907Z" fill="#02D9FC"/>
<path d="M53.7045 45.123C55.2077 45.123 56.4263 43.9103 56.4263 42.4143C56.4263 40.9183 55.2077 39.7056 53.7045 39.7056C52.2013 39.7056 50.9828 40.9183 50.9828 42.4143C50.9828 43.9103 52.2013 45.123 53.7045 45.123Z" fill="#02D9FC"/>
<path d="M53.7045 57.7553C55.2077 57.7553 56.4263 56.5426 56.4263 55.0466C56.4263 53.5506 55.2077 52.3379 53.7045 52.3379C52.2013 52.3379 50.9828 53.5506 50.9828 55.0466C50.9828 56.5426 52.2013 57.7553 53.7045 57.7553Z" fill="#02D9FC"/>
<path d="M53.7045 72.1894C55.2077 72.1894 56.4263 70.9767 56.4263 69.4807C56.4263 67.9847 55.2077 66.772 53.7045 66.772C52.2013 66.772 50.9828 67.9847 50.9828 69.4807C50.9828 70.9767 52.2013 72.1894 53.7045 72.1894Z" fill="#02D9FC"/>
<path d="M44.6409 5.41742C46.1441 5.41742 47.3627 4.20469 47.3627 2.70871C47.3627 1.21273 46.1441 0 44.6409 0C43.1377 0 41.9192 1.21273 41.9192 2.70871C41.9192 4.20469 43.1377 5.41742 44.6409 5.41742Z" fill="#02D9FC"/>
<path d="M44.6409 18.0497C46.1441 18.0497 47.3627 16.837 47.3627 15.341C47.3627 13.8451 46.1441 12.6323 44.6409 12.6323C43.1377 12.6323 41.9192 13.8451 41.9192 15.341C41.9192 16.837 43.1377 18.0497 44.6409 18.0497Z" fill="#02D9FC"/>
<path d="M44.6409 32.4907C46.1441 32.4907 47.3627 31.2779 47.3627 29.782C47.3627 28.286 46.1441 27.0732 44.6409 27.0732C43.1377 27.0732 41.9192 28.286 41.9192 29.782C41.9192 31.2779 43.1377 32.4907 44.6409 32.4907Z" fill="#02D9FC"/>
<path d="M44.6409 45.123C46.1441 45.123 47.3627 43.9103 47.3627 42.4143C47.3627 40.9183 46.1441 39.7056 44.6409 39.7056C43.1377 39.7056 41.9192 40.9183 41.9192 42.4143C41.9192 43.9103 43.1377 45.123 44.6409 45.123Z" fill="#02D9FC"/>
<path d="M44.6409 57.7553C46.1441 57.7553 47.3627 56.5426 47.3627 55.0466C47.3627 53.5506 46.1441 52.3379 44.6409 52.3379C43.1377 52.3379 41.9192 53.5506 41.9192 55.0466C41.9192 56.5426 43.1377 57.7553 44.6409 57.7553Z" fill="#02D9FC"/>
<path d="M44.6409 72.1894C46.1441 72.1894 47.3627 70.9767 47.3627 69.4807C47.3627 67.9847 46.1441 66.772 44.6409 66.772C43.1377 66.772 41.9192 67.9847 41.9192 69.4807C41.9192 70.9767 43.1377 72.1894 44.6409 72.1894Z" fill="#02D9FC"/>
<path d="M33.7607 5.41742C35.2639 5.41742 36.4825 4.20469 36.4825 2.70871C36.4825 1.21273 35.2639 0 33.7607 0C32.2576 0 31.039 1.21273 31.039 2.70871C31.039 4.20469 32.2576 5.41742 33.7607 5.41742Z" fill="#02D9FC"/>
<path d="M33.7607 18.0497C35.2639 18.0497 36.4825 16.837 36.4825 15.341C36.4825 13.8451 35.2639 12.6323 33.7607 12.6323C32.2576 12.6323 31.039 13.8451 31.039 15.341C31.039 16.837 32.2576 18.0497 33.7607 18.0497Z" fill="#02D9FC"/>
<path d="M33.7607 32.4907C35.2639 32.4907 36.4825 31.2779 36.4825 29.782C36.4825 28.286 35.2639 27.0732 33.7607 27.0732C32.2576 27.0732 31.039 28.286 31.039 29.782C31.039 31.2779 32.2576 32.4907 33.7607 32.4907Z" fill="#02D9FC"/>
<path d="M33.7607 45.123C35.2639 45.123 36.4825 43.9103 36.4825 42.4143C36.4825 40.9183 35.2639 39.7056 33.7607 39.7056C32.2576 39.7056 31.039 40.9183 31.039 42.4143C31.039 43.9103 32.2576 45.123 33.7607 45.123Z" fill="#02D9FC"/>
<path d="M33.7607 57.7553C35.2639 57.7553 36.4825 56.5426 36.4825 55.0466C36.4825 53.5506 35.2639 52.3379 33.7607 52.3379C32.2576 52.3379 31.039 53.5506 31.039 55.0466C31.039 56.5426 32.2576 57.7553 33.7607 57.7553Z" fill="#02D9FC"/>
<path d="M33.7607 72.1894C35.2639 72.1894 36.4825 70.9767 36.4825 69.4807C36.4825 67.9847 35.2639 66.772 33.7607 66.772C32.2576 66.772 31.039 67.9847 31.039 69.4807C31.039 70.9767 32.2576 72.1894 33.7607 72.1894Z" fill="#02D9FC"/>
<path d="M24.69 5.41742C26.1932 5.41742 27.4117 4.20469 27.4117 2.70871C27.4117 1.21273 26.1932 0 24.69 0C23.1868 0 21.9683 1.21273 21.9683 2.70871C21.9683 4.20469 23.1868 5.41742 24.69 5.41742Z" fill="#02D9FC"/>
<path d="M24.69 18.0497C26.1932 18.0497 27.4117 16.837 27.4117 15.341C27.4117 13.8451 26.1932 12.6323 24.69 12.6323C23.1868 12.6323 21.9683 13.8451 21.9683 15.341C21.9683 16.837 23.1868 18.0497 24.69 18.0497Z" fill="#02D9FC"/>
<path d="M24.69 32.4907C26.1932 32.4907 27.4117 31.2779 27.4117 29.782C27.4117 28.286 26.1932 27.0732 24.69 27.0732C23.1868 27.0732 21.9683 28.286 21.9683 29.782C21.9683 31.2779 23.1868 32.4907 24.69 32.4907Z" fill="#02D9FC"/>
<path d="M24.69 45.123C26.1932 45.123 27.4117 43.9103 27.4117 42.4143C27.4117 40.9183 26.1932 39.7056 24.69 39.7056C23.1868 39.7056 21.9683 40.9183 21.9683 42.4143C21.9683 43.9103 23.1868 45.123 24.69 45.123Z" fill="#02D9FC"/>
<path d="M24.69 57.7553C26.1932 57.7553 27.4117 56.5426 27.4117 55.0466C27.4117 53.5506 26.1932 52.3379 24.69 52.3379C23.1868 52.3379 21.9683 53.5506 21.9683 55.0466C21.9683 56.5426 23.1868 57.7553 24.69 57.7553Z" fill="#02D9FC"/>
<path d="M24.69 72.1894C26.1932 72.1894 27.4117 70.9767 27.4117 69.4807C27.4117 67.9847 26.1932 66.772 24.69 66.772C23.1868 66.772 21.9683 67.9847 21.9683 69.4807C21.9683 70.9767 23.1868 72.1894 24.69 72.1894Z" fill="#02D9FC"/>
<path d="M13.8099 5.41742C15.313 5.41742 16.5316 4.20469 16.5316 2.70871C16.5316 1.21273 15.313 0 13.8099 0C12.3067 0 11.0881 1.21273 11.0881 2.70871C11.0881 4.20469 12.3067 5.41742 13.8099 5.41742Z" fill="#02D9FC"/>
<path d="M13.8099 18.0497C15.313 18.0497 16.5316 16.837 16.5316 15.341C16.5316 13.8451 15.313 12.6323 13.8099 12.6323C12.3067 12.6323 11.0881 13.8451 11.0881 15.341C11.0881 16.837 12.3067 18.0497 13.8099 18.0497Z" fill="#02D9FC"/>
<path d="M13.8099 32.4907C15.313 32.4907 16.5316 31.2779 16.5316 29.782C16.5316 28.286 15.313 27.0732 13.8099 27.0732C12.3067 27.0732 11.0881 28.286 11.0881 29.782C11.0881 31.2779 12.3067 32.4907 13.8099 32.4907Z" fill="#02D9FC"/>
<path d="M13.8099 45.123C15.313 45.123 16.5316 43.9103 16.5316 42.4143C16.5316 40.9183 15.313 39.7056 13.8099 39.7056C12.3067 39.7056 11.0881 40.9183 11.0881 42.4143C11.0881 43.9103 12.3067 45.123 13.8099 45.123Z" fill="#02D9FC"/>
<path d="M13.8099 57.7553C15.313 57.7553 16.5316 56.5426 16.5316 55.0466C16.5316 53.5506 15.313 52.3379 13.8099 52.3379C12.3067 52.3379 11.0881 53.5506 11.0881 55.0466C11.0881 56.5426 12.3067 57.7553 13.8099 57.7553Z" fill="#02D9FC"/>
<path d="M13.8099 72.1894C15.313 72.1894 16.5316 70.9767 16.5316 69.4807C16.5316 67.9847 15.313 66.772 13.8099 66.772C12.3067 66.772 11.0881 67.9847 11.0881 69.4807C11.0881 70.9767 12.3067 72.1894 13.8099 72.1894Z" fill="#02D9FC"/>
<path d="M2.92998 5.42059C4.43315 5.42059 5.65172 4.20786 5.65172 2.71188C5.65172 1.2159 4.43315 0.00317383 2.92998 0.00317383C1.42681 0.00317383 0.208252 1.2159 0.208252 2.71188C0.208252 4.20786 1.42681 5.42059 2.92998 5.42059Z" fill="#02D9FC"/>
<path d="M2.92937 18.0497C4.43254 18.0497 5.6511 16.837 5.6511 15.341C5.6511 13.8451 4.43254 12.6323 2.92937 12.6323C1.4262 12.6323 0.207642 13.8451 0.207642 15.341C0.207642 16.837 1.4262 18.0497 2.92937 18.0497Z" fill="#02D9FC"/>
<path d="M2.92937 32.4907C4.43254 32.4907 5.6511 31.2779 5.6511 29.782C5.6511 28.286 4.43254 27.0732 2.92937 27.0732C1.4262 27.0732 0.207642 28.286 0.207642 29.782C0.207642 31.2779 1.4262 32.4907 2.92937 32.4907Z" fill="#02D9FC"/>
<path d="M2.92937 45.123C4.43254 45.123 5.6511 43.9103 5.6511 42.4143C5.6511 40.9183 4.43254 39.7056 2.92937 39.7056C1.4262 39.7056 0.207642 40.9183 0.207642 42.4143C0.207642 43.9103 1.4262 45.123 2.92937 45.123Z" fill="#02D9FC"/>
<path d="M2.92937 57.7553C4.43254 57.7553 5.6511 56.5426 5.6511 55.0466C5.6511 53.5506 4.43254 52.3379 2.92937 52.3379C1.4262 52.3379 0.207642 53.5506 0.207642 55.0466C0.207642 56.5426 1.4262 57.7553 2.92937 57.7553Z" fill="#02D9FC"/>
<path d="M2.92937 72.1894C4.43254 72.1894 5.6511 70.9767 5.6511 69.4807C5.6511 67.9847 4.43254 66.772 2.92937 66.772C1.4262 66.772 0.207642 67.9847 0.207642 69.4807C0.207642 70.9767 1.4262 72.1894 2.92937 72.1894Z" fill="#02D9FC"/>
</svg>
