<svg width="176" height="113" viewBox="0 0 176 113" fill="none" xmlns="http://www.w3.org/2000/svg">
<path d="M115.725 6.84242C117.394 6.84242 118.747 5.49595 118.747 3.835C118.747 2.17405 117.394 0.827576 115.725 0.827576C114.056 0.827576 112.703 2.17405 112.703 3.835C112.703 5.49595 114.056 6.84242 115.725 6.84242Z" fill="#5BEBC1"/>
<path d="M101.536 6.84242C103.204 6.84242 104.557 5.49595 104.557 3.835C104.557 2.17405 103.204 0.827576 101.536 0.827576C99.8666 0.827576 98.5137 2.17405 98.5137 3.835C98.5137 5.49595 99.8666 6.84242 101.536 6.84242Z" fill="#5BEBC1"/>
<path d="M115.725 21.0065C117.394 21.0065 118.747 19.66 118.747 17.9991C118.747 16.3381 117.394 14.9916 115.725 14.9916C114.056 14.9916 112.703 16.3381 112.703 17.9991C112.703 19.66 114.056 21.0065 115.725 21.0065Z" fill="#5BEBC1"/>
<path d="M101.536 21.0065C103.204 21.0065 104.557 19.66 104.557 17.9991C104.557 16.3381 103.204 14.9916 101.536 14.9916C99.8666 14.9916 98.5137 16.3381 98.5137 17.9991C98.5137 19.66 99.8666 21.0065 101.536 21.0065Z" fill="#5BEBC1"/>
<path d="M115.725 35.1669C117.394 35.1669 118.747 33.8204 118.747 32.1595C118.747 30.4985 117.394 29.152 115.725 29.152C114.056 29.152 112.703 30.4985 112.703 32.1595C112.703 33.8204 114.056 35.1669 115.725 35.1669Z" fill="#5BEBC1"/>
<path d="M101.536 35.1669C103.204 35.1669 104.557 33.8204 104.557 32.1595C104.557 30.4985 103.204 29.152 101.536 29.152C99.8666 29.152 98.5137 30.4985 98.5137 32.1595C98.5137 33.8204 99.8666 35.1669 101.536 35.1669Z" fill="#5BEBC1"/>
<path d="M115.725 49.3271C117.394 49.3271 118.747 47.9806 118.747 46.3197C118.747 44.6587 117.394 43.3123 115.725 43.3123C114.056 43.3123 112.703 44.6587 112.703 46.3197C112.703 47.9806 114.056 49.3271 115.725 49.3271Z" fill="#5BEBC1"/>
<path d="M101.536 49.3271C103.204 49.3271 104.557 47.9806 104.557 46.3197C104.557 44.6587 103.204 43.3123 101.536 43.3123C99.8666 43.3123 98.5137 44.6587 98.5137 46.3197C98.5137 47.9806 99.8666 49.3271 101.536 49.3271Z" fill="#5BEBC1"/>
<path d="M115.725 63.4875C117.394 63.4875 118.747 62.141 118.747 60.4801C118.747 58.8191 117.394 57.4727 115.725 57.4727C114.056 57.4727 112.703 58.8191 112.703 60.4801C112.703 62.141 114.056 63.4875 115.725 63.4875Z" fill="#5BEBC1"/>
<path d="M101.536 63.4875C103.204 63.4875 104.557 62.141 104.557 60.4801C104.557 58.8191 103.204 57.4727 101.536 57.4727C99.8666 57.4727 98.5137 58.8191 98.5137 60.4801C98.5137 62.141 99.8666 63.4875 101.536 63.4875Z" fill="#5BEBC1"/>
<path d="M115.725 77.648C117.394 77.648 118.747 76.3016 118.747 74.6406C118.747 72.9796 117.394 71.6332 115.725 71.6332C114.056 71.6332 112.703 72.9796 112.703 74.6406C112.703 76.3016 114.056 77.648 115.725 77.648Z" fill="#5BEBC1"/>
<path d="M101.536 77.648C103.204 77.648 104.557 76.3016 104.557 74.6406C104.557 72.9796 103.204 71.6332 101.536 71.6332C99.8666 71.6332 98.5137 72.9796 98.5137 74.6406C98.5137 76.3016 99.8666 77.648 101.536 77.648Z" fill="#5BEBC1"/>
<path d="M87.3481 6.84242C89.017 6.84242 90.3699 5.49595 90.3699 3.835C90.3699 2.17405 89.017 0.827576 87.3481 0.827576C85.6791 0.827576 84.3262 2.17405 84.3262 3.835C84.3262 5.49595 85.6791 6.84242 87.3481 6.84242Z" fill="#5BEBC1"/>
<path d="M87.3461 21.0065C89.015 21.0065 90.368 19.66 90.368 17.9991C90.368 16.3381 89.015 14.9916 87.3461 14.9916C85.6772 14.9916 84.3242 16.3381 84.3242 17.9991C84.3242 19.66 85.6772 21.0065 87.3461 21.0065Z" fill="#5BEBC1"/>
<path d="M87.3461 35.1669C89.015 35.1669 90.368 33.8204 90.368 32.1595C90.368 30.4985 89.015 29.152 87.3461 29.152C85.6772 29.152 84.3242 30.4985 84.3242 32.1595C84.3242 33.8204 85.6772 35.1669 87.3461 35.1669Z" fill="#5BEBC1"/>
<path d="M87.3461 49.3271C89.015 49.3271 90.368 47.9806 90.368 46.3197C90.368 44.6587 89.015 43.3123 87.3461 43.3123C85.6772 43.3123 84.3242 44.6587 84.3242 46.3197C84.3242 47.9806 85.6772 49.3271 87.3461 49.3271Z" fill="#5BEBC1"/>
<path d="M87.3461 63.4875C89.015 63.4875 90.368 62.141 90.368 60.4801C90.368 58.8191 89.015 57.4727 87.3461 57.4727C85.6772 57.4727 84.3242 58.8191 84.3242 60.4801C84.3242 62.141 85.6772 63.4875 87.3461 63.4875Z" fill="#5BEBC1"/>
<path d="M87.3461 77.648C89.015 77.648 90.368 76.3016 90.368 74.6406C90.368 72.9796 89.015 71.6332 87.3461 71.6332C85.6772 71.6332 84.3242 72.9796 84.3242 74.6406C84.3242 76.3016 85.6772 77.648 87.3461 77.648Z" fill="#5BEBC1"/>
<path d="M73.1586 6.84242C74.8275 6.84242 76.1805 5.49595 76.1805 3.835C76.1805 2.17405 74.8275 0.827576 73.1586 0.827576C71.4897 0.827576 70.1367 2.17405 70.1367 3.835C70.1367 5.49595 71.4897 6.84242 73.1586 6.84242Z" fill="#5BEBC1"/>
<path d="M73.1567 21.0065C74.8256 21.0065 76.1785 19.66 76.1785 17.9991C76.1785 16.3381 74.8256 14.9916 73.1567 14.9916C71.4877 14.9916 70.1348 16.3381 70.1348 17.9991C70.1348 19.66 71.4877 21.0065 73.1567 21.0065Z" fill="#5BEBC1"/>
<path d="M73.1567 35.1669C74.8256 35.1669 76.1785 33.8204 76.1785 32.1595C76.1785 30.4985 74.8256 29.152 73.1567 29.152C71.4877 29.152 70.1348 30.4985 70.1348 32.1595C70.1348 33.8204 71.4877 35.1669 73.1567 35.1669Z" fill="#5BEBC1"/>
<path d="M73.1567 49.3271C74.8256 49.3271 76.1785 47.9806 76.1785 46.3197C76.1785 44.6587 74.8256 43.3123 73.1567 43.3123C71.4877 43.3123 70.1348 44.6587 70.1348 46.3197C70.1348 47.9806 71.4877 49.3271 73.1567 49.3271Z" fill="#5BEBC1"/>
<path d="M73.1567 63.4875C74.8256 63.4875 76.1785 62.141 76.1785 60.4801C76.1785 58.8191 74.8256 57.4727 73.1567 57.4727C71.4877 57.4727 70.1348 58.8191 70.1348 60.4801C70.1348 62.141 71.4877 63.4875 73.1567 63.4875Z" fill="#5BEBC1"/>
<path d="M73.1567 77.648C74.8256 77.648 76.1785 76.3016 76.1785 74.6406C76.1785 72.9796 74.8256 71.6332 73.1567 71.6332C71.4877 71.6332 70.1348 72.9796 70.1348 74.6406C70.1348 76.3016 71.4877 77.648 73.1567 77.648Z" fill="#5BEBC1"/>
<path d="M58.9672 6.84242C60.6361 6.84242 61.9891 5.49595 61.9891 3.835C61.9891 2.17405 60.6361 0.827576 58.9672 0.827576C57.2983 0.827576 55.9453 2.17405 55.9453 3.835C55.9453 5.49595 57.2983 6.84242 58.9672 6.84242Z" fill="#5BEBC1"/>
<path d="M58.9672 21.0065C60.6361 21.0065 61.9891 19.66 61.9891 17.9991C61.9891 16.3381 60.6361 14.9916 58.9672 14.9916C57.2983 14.9916 55.9453 16.3381 55.9453 17.9991C55.9453 19.66 57.2983 21.0065 58.9672 21.0065Z" fill="#5BEBC1"/>
<path d="M58.9672 35.1669C60.6361 35.1669 61.9891 33.8204 61.9891 32.1595C61.9891 30.4985 60.6361 29.152 58.9672 29.152C57.2983 29.152 55.9453 30.4985 55.9453 32.1595C55.9453 33.8204 57.2983 35.1669 58.9672 35.1669Z" fill="#5BEBC1"/>
<path d="M58.9672 49.3271C60.6361 49.3271 61.9891 47.9806 61.9891 46.3197C61.9891 44.6587 60.6361 43.3123 58.9672 43.3123C57.2983 43.3123 55.9453 44.6587 55.9453 46.3197C55.9453 47.9806 57.2983 49.3271 58.9672 49.3271Z" fill="#5BEBC1"/>
<path d="M58.9672 63.4875C60.6361 63.4875 61.9891 62.141 61.9891 60.4801C61.9891 58.8191 60.6361 57.4727 58.9672 57.4727C57.2983 57.4727 55.9453 58.8191 55.9453 60.4801C55.9453 62.141 57.2983 63.4875 58.9672 63.4875Z" fill="#5BEBC1"/>
<path d="M58.9672 77.648C60.6361 77.648 61.9891 76.3016 61.9891 74.6406C61.9891 72.9796 60.6361 71.6332 58.9672 71.6332C57.2983 71.6332 55.9453 72.9796 55.9453 74.6406C55.9453 76.3016 57.2983 77.648 58.9672 77.648Z" fill="#5BEBC1"/>
<path d="M44.7797 6.84242C46.4486 6.84242 47.8016 5.49595 47.8016 3.835C47.8016 2.17405 46.4486 0.827576 44.7797 0.827576C43.1108 0.827576 41.7578 2.17405 41.7578 3.835C41.7578 5.49595 43.1108 6.84242 44.7797 6.84242Z" fill="#5BEBC1"/>
<path d="M44.7777 21.0065C46.4467 21.0065 47.7996 19.66 47.7996 17.9991C47.7996 16.3381 46.4467 14.9916 44.7777 14.9916C43.1088 14.9916 41.7559 16.3381 41.7559 17.9991C41.7559 19.66 43.1088 21.0065 44.7777 21.0065Z" fill="#5BEBC1"/>
<path d="M44.7777 35.1669C46.4467 35.1669 47.7996 33.8204 47.7996 32.1595C47.7996 30.4985 46.4467 29.152 44.7777 29.152C43.1088 29.152 41.7559 30.4985 41.7559 32.1595C41.7559 33.8204 43.1088 35.1669 44.7777 35.1669Z" fill="#5BEBC1"/>
<path d="M44.7777 49.3271C46.4467 49.3271 47.7996 47.9806 47.7996 46.3197C47.7996 44.6587 46.4467 43.3123 44.7777 43.3123C43.1088 43.3123 41.7559 44.6587 41.7559 46.3197C41.7559 47.9806 43.1088 49.3271 44.7777 49.3271Z" fill="#5BEBC1"/>
<path d="M44.7777 63.4875C46.4467 63.4875 47.7996 62.141 47.7996 60.4801C47.7996 58.8191 46.4467 57.4727 44.7777 57.4727C43.1088 57.4727 41.7559 58.8191 41.7559 60.4801C41.7559 62.141 43.1088 63.4875 44.7777 63.4875Z" fill="#5BEBC1"/>
<path d="M44.7777 77.648C46.4467 77.648 47.7996 76.3016 47.7996 74.6406C47.7996 72.9796 46.4467 71.6332 44.7777 71.6332C43.1088 71.6332 41.7559 72.9796 41.7559 74.6406C41.7559 76.3016 43.1088 77.648 44.7777 77.648Z" fill="#5BEBC1"/>
<path d="M30.5922 6.84242C32.2611 6.84242 33.6141 5.49595 33.6141 3.835C33.6141 2.17405 32.2611 0.827576 30.5922 0.827576C28.9233 0.827576 27.5703 2.17405 27.5703 3.835C27.5703 5.49595 28.9233 6.84242 30.5922 6.84242Z" fill="#5BEBC1"/>
<path d="M30.5902 21.0065C32.2592 21.0065 33.6121 19.66 33.6121 17.9991C33.6121 16.3381 32.2592 14.9916 30.5902 14.9916C28.9213 14.9916 27.5684 16.3381 27.5684 17.9991C27.5684 19.66 28.9213 21.0065 30.5902 21.0065Z" fill="#5BEBC1"/>
<path d="M30.5902 35.1669C32.2592 35.1669 33.6121 33.8204 33.6121 32.1595C33.6121 30.4985 32.2592 29.152 30.5902 29.152C28.9213 29.152 27.5684 30.4985 27.5684 32.1595C27.5684 33.8204 28.9213 35.1669 30.5902 35.1669Z" fill="#5BEBC1"/>
<path d="M30.5902 49.3271C32.2592 49.3271 33.6121 47.9806 33.6121 46.3197C33.6121 44.6587 32.2592 43.3123 30.5902 43.3123C28.9213 43.3123 27.5684 44.6587 27.5684 46.3197C27.5684 47.9806 28.9213 49.3271 30.5902 49.3271Z" fill="#5BEBC1"/>
<path d="M30.5902 63.4875C32.2592 63.4875 33.6121 62.141 33.6121 60.4801C33.6121 58.8191 32.2592 57.4727 30.5902 57.4727C28.9213 57.4727 27.5684 58.8191 27.5684 60.4801C27.5684 62.141 28.9213 63.4875 30.5902 63.4875Z" fill="#5BEBC1"/>
<path d="M30.5902 77.648C32.2592 77.648 33.6121 76.3016 33.6121 74.6406C33.6121 72.9796 32.2592 71.6332 30.5902 71.6332C28.9213 71.6332 27.5684 72.9796 27.5684 74.6406C27.5684 76.3016 28.9213 77.648 30.5902 77.648Z" fill="#5BEBC1"/>
<path d="M16.4008 6.84242C18.0697 6.84242 19.4227 5.49595 19.4227 3.835C19.4227 2.17405 18.0697 0.827576 16.4008 0.827576C14.7318 0.827576 13.3789 2.17405 13.3789 3.835C13.3789 5.49595 14.7318 6.84242 16.4008 6.84242Z" fill="#5BEBC1"/>
<path d="M16.4008 21.0065C18.0697 21.0065 19.4227 19.66 19.4227 17.9991C19.4227 16.3381 18.0697 14.9916 16.4008 14.9916C14.7318 14.9916 13.3789 16.3381 13.3789 17.9991C13.3789 19.66 14.7318 21.0065 16.4008 21.0065Z" fill="#5BEBC1"/>
<path d="M16.4008 35.1669C18.0697 35.1669 19.4227 33.8204 19.4227 32.1595C19.4227 30.4985 18.0697 29.152 16.4008 29.152C14.7318 29.152 13.3789 30.4985 13.3789 32.1595C13.3789 33.8204 14.7318 35.1669 16.4008 35.1669Z" fill="#5BEBC1"/>
<path d="M16.4008 49.3271C18.0697 49.3271 19.4227 47.9806 19.4227 46.3197C19.4227 44.6587 18.0697 43.3123 16.4008 43.3123C14.7318 43.3123 13.3789 44.6587 13.3789 46.3197C13.3789 47.9806 14.7318 49.3271 16.4008 49.3271Z" fill="#5BEBC1"/>
<path d="M16.4008 63.4875C18.0697 63.4875 19.4227 62.141 19.4227 60.4801C19.4227 58.8191 18.0697 57.4727 16.4008 57.4727C14.7318 57.4727 13.3789 58.8191 13.3789 60.4801C13.3789 62.141 14.7318 63.4875 16.4008 63.4875Z" fill="#5BEBC1"/>
<path d="M16.4008 77.648C18.0697 77.648 19.4227 76.3016 19.4227 74.6406C19.4227 72.9796 18.0697 71.6332 16.4008 71.6332C14.7318 71.6332 13.3789 72.9796 13.3789 74.6406C13.3789 76.3016 14.7318 77.648 16.4008 77.648Z" fill="#5BEBC1"/>
<path d="M2.21134 6.84242C3.88028 6.84242 5.23322 5.49595 5.23322 3.835C5.23322 2.17405 3.88028 0.827576 2.21134 0.827576C0.542402 0.827576 -0.810547 2.17405 -0.810547 3.835C-0.810547 5.49595 0.542402 6.84242 2.21134 6.84242Z" fill="#5BEBC1"/>
<path d="M2.21134 21.0065C3.88028 21.0065 5.23322 19.66 5.23322 17.9991C5.23322 16.3381 3.88028 14.9916 2.21134 14.9916C0.542402 14.9916 -0.810547 16.3381 -0.810547 17.9991C-0.810547 19.66 0.542402 21.0065 2.21134 21.0065Z" fill="#5BEBC1"/>
<path d="M2.21134 35.1669C3.88028 35.1669 5.23322 33.8204 5.23322 32.1595C5.23322 30.4985 3.88028 29.152 2.21134 29.152C0.542402 29.152 -0.810547 30.4985 -0.810547 32.1595C-0.810547 33.8204 0.542402 35.1669 2.21134 35.1669Z" fill="#5BEBC1"/>
<path d="M2.21134 49.3271C3.88028 49.3271 5.23322 47.9806 5.23322 46.3197C5.23322 44.6587 3.88028 43.3123 2.21134 43.3123C0.542402 43.3123 -0.810547 44.6587 -0.810547 46.3197C-0.810547 47.9806 0.542402 49.3271 2.21134 49.3271Z" fill="#5BEBC1"/>
<path d="M2.21134 63.4875C3.88028 63.4875 5.23322 62.141 5.23322 60.4801C5.23322 58.8191 3.88028 57.4727 2.21134 57.4727C0.542402 57.4727 -0.810547 58.8191 -0.810547 60.4801C-0.810547 62.141 0.542402 63.4875 2.21134 63.4875Z" fill="#5BEBC1"/>
<path d="M2.21134 77.648C3.88028 77.648 5.23322 76.3016 5.23322 74.6406C5.23322 72.9796 3.88028 71.6332 2.21134 71.6332C0.542402 71.6332 -0.810547 72.9796 -0.810547 74.6406C-0.810547 76.3016 0.542402 77.648 2.21134 77.648Z" fill="#5BEBC1"/>
<ellipse cx="119.197" cy="56.966" rx="56.1973" ry="55.966" fill="#5BEBC1"/>
</svg>
