<svg width="68" height="78" viewBox="0 0 68 78" fill="none" xmlns="http://www.w3.org/2000/svg">
<path d="M70.3736 6.12748C72.035 6.12748 73.3819 4.7558 73.3819 3.06374C73.3819 1.37168 72.035 0 70.3736 0C68.7121 0 67.3652 1.37168 67.3652 3.06374C67.3652 4.7558 68.7121 6.12748 70.3736 6.12748Z" fill="#02D9FC"/>
<path d="M70.3736 20.502C72.035 20.502 73.3819 19.1303 73.3819 17.4383C73.3819 15.7462 72.035 14.3745 70.3736 14.3745C68.7121 14.3745 67.3652 15.7462 67.3652 17.4383C67.3652 19.1303 68.7121 20.502 70.3736 20.502Z" fill="#02D9FC"/>
<path d="M70.3736 34.8765C72.035 34.8765 73.3819 33.5048 73.3819 31.8128C73.3819 30.1207 72.035 28.749 70.3736 28.749C68.7121 28.749 67.3652 30.1207 67.3652 31.8128C67.3652 33.5048 68.7121 34.8765 70.3736 34.8765Z" fill="#02D9FC"/>
<path d="M70.3736 49.251C72.035 49.251 73.3819 47.8793 73.3819 46.1873C73.3819 44.4952 72.035 43.1235 70.3736 43.1235C68.7121 43.1235 67.3652 44.4952 67.3652 46.1873C67.3652 47.8793 68.7121 49.251 70.3736 49.251Z" fill="#02D9FC"/>
<path d="M70.3736 63.6255C72.035 63.6255 73.3819 62.2538 73.3819 60.5618C73.3819 58.8697 72.035 57.4981 70.3736 57.4981C68.7121 57.4981 67.3652 58.8697 67.3652 60.5618C67.3652 62.2538 68.7121 63.6255 70.3736 63.6255Z" fill="#02D9FC"/>
<path d="M70.3736 78C72.035 78 73.3819 76.6283 73.3819 74.9363C73.3819 73.2442 72.035 71.8725 70.3736 71.8725C68.7121 71.8725 67.3652 73.2442 67.3652 74.9363C67.3652 76.6283 68.7121 78 70.3736 78Z" fill="#02D9FC"/>
<path d="M59.1997 6.12748C60.8612 6.12748 62.2081 4.7558 62.2081 3.06374C62.2081 1.37168 60.8612 0 59.1997 0C57.5383 0 56.1914 1.37168 56.1914 3.06374C56.1914 4.7558 57.5383 6.12748 59.1997 6.12748Z" fill="#02D9FC"/>
<path d="M59.1997 20.502C60.8612 20.502 62.2081 19.1303 62.2081 17.4383C62.2081 15.7462 60.8612 14.3745 59.1997 14.3745C57.5383 14.3745 56.1914 15.7462 56.1914 17.4383C56.1914 19.1303 57.5383 20.502 59.1997 20.502Z" fill="#02D9FC"/>
<path d="M59.1997 34.8765C60.8612 34.8765 62.2081 33.5048 62.2081 31.8128C62.2081 30.1207 60.8612 28.749 59.1997 28.749C57.5383 28.749 56.1914 30.1207 56.1914 31.8128C56.1914 33.5048 57.5383 34.8765 59.1997 34.8765Z" fill="#02D9FC"/>
<path d="M59.1997 49.251C60.8612 49.251 62.2081 47.8793 62.2081 46.1873C62.2081 44.4952 60.8612 43.1235 59.1997 43.1235C57.5383 43.1235 56.1914 44.4952 56.1914 46.1873C56.1914 47.8793 57.5383 49.251 59.1997 49.251Z" fill="#02D9FC"/>
<path d="M59.1997 63.6255C60.8612 63.6255 62.2081 62.2538 62.2081 60.5618C62.2081 58.8697 60.8612 57.4981 59.1997 57.4981C57.5383 57.4981 56.1914 58.8697 56.1914 60.5618C56.1914 62.2538 57.5383 63.6255 59.1997 63.6255Z" fill="#02D9FC"/>
<path d="M59.1997 78C60.8612 78 62.2081 76.6283 62.2081 74.9363C62.2081 73.2442 60.8612 71.8725 59.1997 71.8725C57.5383 71.8725 56.1914 73.2442 56.1914 74.9363C56.1914 76.6283 57.5383 78 59.1997 78Z" fill="#02D9FC"/>
<path d="M48.0357 6.12748C49.6971 6.12748 51.044 4.7558 51.044 3.06374C51.044 1.37168 49.6971 0 48.0357 0C46.3742 0 45.0273 1.37168 45.0273 3.06374C45.0273 4.7558 46.3742 6.12748 48.0357 6.12748Z" fill="#02D9FC"/>
<path d="M48.0357 20.502C49.6971 20.502 51.044 19.1303 51.044 17.4383C51.044 15.7462 49.6971 14.3745 48.0357 14.3745C46.3742 14.3745 45.0273 15.7462 45.0273 17.4383C45.0273 19.1303 46.3742 20.502 48.0357 20.502Z" fill="#02D9FC"/>
<path d="M48.0357 34.8765C49.6971 34.8765 51.044 33.5048 51.044 31.8128C51.044 30.1207 49.6971 28.749 48.0357 28.749C46.3742 28.749 45.0273 30.1207 45.0273 31.8128C45.0273 33.5048 46.3742 34.8765 48.0357 34.8765Z" fill="#02D9FC"/>
<path d="M48.0357 49.251C49.6971 49.251 51.044 47.8793 51.044 46.1873C51.044 44.4952 49.6971 43.1235 48.0357 43.1235C46.3742 43.1235 45.0273 44.4952 45.0273 46.1873C45.0273 47.8793 46.3742 49.251 48.0357 49.251Z" fill="#02D9FC"/>
<path d="M48.0357 63.6255C49.6971 63.6255 51.044 62.2538 51.044 60.5618C51.044 58.8697 49.6971 57.4981 48.0357 57.4981C46.3742 57.4981 45.0273 58.8697 45.0273 60.5618C45.0273 62.2538 46.3742 63.6255 48.0357 63.6255Z" fill="#02D9FC"/>
<path d="M48.0357 78C49.6971 78 51.044 76.6283 51.044 74.9363C51.044 73.2442 49.6971 71.8725 48.0357 71.8725C46.3742 71.8725 45.0273 73.2442 45.0273 74.9363C45.0273 76.6283 46.3742 78 48.0357 78Z" fill="#02D9FC"/>
<path d="M36.8618 6.12748C38.5233 6.12748 39.8702 4.7558 39.8702 3.06374C39.8702 1.37168 38.5233 0 36.8618 0C35.2004 0 33.8535 1.37168 33.8535 3.06374C33.8535 4.7558 35.2004 6.12748 36.8618 6.12748Z" fill="#02D9FC"/>
<path d="M36.8618 20.502C38.5233 20.502 39.8702 19.1303 39.8702 17.4383C39.8702 15.7462 38.5233 14.3745 36.8618 14.3745C35.2004 14.3745 33.8535 15.7462 33.8535 17.4383C33.8535 19.1303 35.2004 20.502 36.8618 20.502Z" fill="#02D9FC"/>
<path d="M36.8618 34.8765C38.5233 34.8765 39.8702 33.5048 39.8702 31.8128C39.8702 30.1207 38.5233 28.749 36.8618 28.749C35.2004 28.749 33.8535 30.1207 33.8535 31.8128C33.8535 33.5048 35.2004 34.8765 36.8618 34.8765Z" fill="#02D9FC"/>
<path d="M36.8618 49.251C38.5233 49.251 39.8702 47.8793 39.8702 46.1873C39.8702 44.4952 38.5233 43.1235 36.8618 43.1235C35.2004 43.1235 33.8535 44.4952 33.8535 46.1873C33.8535 47.8793 35.2004 49.251 36.8618 49.251Z" fill="#02D9FC"/>
<path d="M36.8618 63.6255C38.5233 63.6255 39.8702 62.2538 39.8702 60.5618C39.8702 58.8697 38.5233 57.4981 36.8618 57.4981C35.2004 57.4981 33.8535 58.8697 33.8535 60.5618C33.8535 62.2538 35.2004 63.6255 36.8618 63.6255Z" fill="#02D9FC"/>
<path d="M36.8618 78C38.5233 78 39.8702 76.6283 39.8702 74.9363C39.8702 73.2442 38.5233 71.8725 36.8618 71.8725C35.2004 71.8725 33.8535 73.2442 33.8535 74.9363C33.8535 76.6283 35.2004 78 36.8618 78Z" fill="#02D9FC"/>
<path d="M25.688 6.12748C27.3495 6.12748 28.6964 4.7558 28.6964 3.06374C28.6964 1.37168 27.3495 0 25.688 0C24.0266 0 22.6797 1.37168 22.6797 3.06374C22.6797 4.7558 24.0266 6.12748 25.688 6.12748Z" fill="#02D9FC"/>
<path d="M25.688 20.502C27.3495 20.502 28.6964 19.1303 28.6964 17.4383C28.6964 15.7462 27.3495 14.3745 25.688 14.3745C24.0266 14.3745 22.6797 15.7462 22.6797 17.4383C22.6797 19.1303 24.0266 20.502 25.688 20.502Z" fill="#02D9FC"/>
<path d="M25.688 34.8765C27.3495 34.8765 28.6964 33.5048 28.6964 31.8128C28.6964 30.1207 27.3495 28.749 25.688 28.749C24.0266 28.749 22.6797 30.1207 22.6797 31.8128C22.6797 33.5048 24.0266 34.8765 25.688 34.8765Z" fill="#02D9FC"/>
<path d="M25.688 49.251C27.3495 49.251 28.6964 47.8793 28.6964 46.1873C28.6964 44.4952 27.3495 43.1235 25.688 43.1235C24.0266 43.1235 22.6797 44.4952 22.6797 46.1873C22.6797 47.8793 24.0266 49.251 25.688 49.251Z" fill="#02D9FC"/>
<path d="M25.688 63.6255C27.3495 63.6255 28.6964 62.2538 28.6964 60.5618C28.6964 58.8697 27.3495 57.4981 25.688 57.4981C24.0266 57.4981 22.6797 58.8697 22.6797 60.5618C22.6797 62.2538 24.0266 63.6255 25.688 63.6255Z" fill="#02D9FC"/>
<path d="M25.688 78C27.3495 78 28.6964 76.6283 28.6964 74.9363C28.6964 73.2442 27.3495 71.8725 25.688 71.8725C24.0266 71.8725 22.6797 73.2442 22.6797 74.9363C22.6797 76.6283 24.0266 78 25.688 78Z" fill="#02D9FC"/>
<path d="M14.522 6.12748C16.1834 6.12748 17.5303 4.7558 17.5303 3.06374C17.5303 1.37168 16.1834 0 14.522 0C12.8605 0 11.5137 1.37168 11.5137 3.06374C11.5137 4.7558 12.8605 6.12748 14.522 6.12748Z" fill="#02D9FC"/>
<path d="M14.522 20.502C16.1834 20.502 17.5303 19.1303 17.5303 17.4383C17.5303 15.7462 16.1834 14.3745 14.522 14.3745C12.8605 14.3745 11.5137 15.7462 11.5137 17.4383C11.5137 19.1303 12.8605 20.502 14.522 20.502Z" fill="#02D9FC"/>
<path d="M14.522 34.8765C16.1834 34.8765 17.5303 33.5048 17.5303 31.8128C17.5303 30.1207 16.1834 28.749 14.522 28.749C12.8605 28.749 11.5137 30.1207 11.5137 31.8128C11.5137 33.5048 12.8605 34.8765 14.522 34.8765Z" fill="#02D9FC"/>
<path d="M14.522 49.251C16.1834 49.251 17.5303 47.8793 17.5303 46.1873C17.5303 44.4952 16.1834 43.1235 14.522 43.1235C12.8605 43.1235 11.5137 44.4952 11.5137 46.1873C11.5137 47.8793 12.8605 49.251 14.522 49.251Z" fill="#02D9FC"/>
<path d="M14.522 63.6255C16.1834 63.6255 17.5303 62.2538 17.5303 60.5618C17.5303 58.8697 16.1834 57.4981 14.522 57.4981C12.8605 57.4981 11.5137 58.8697 11.5137 60.5618C11.5137 62.2538 12.8605 63.6255 14.522 63.6255Z" fill="#02D9FC"/>
<path d="M14.522 78C16.1834 78 17.5303 76.6283 17.5303 74.9363C17.5303 73.2442 16.1834 71.8725 14.522 71.8725C12.8605 71.8725 11.5137 73.2442 11.5137 74.9363C11.5137 76.6283 12.8605 78 14.522 78Z" fill="#02D9FC"/>
<path d="M3.34819 6.1275C5.00965 6.1275 6.35654 4.75582 6.35654 3.06375C6.35654 1.37169 5.00965 0 3.34819 0C1.68672 0 0.339844 1.37169 0.339844 3.06375C0.339844 4.75582 1.68672 6.1275 3.34819 6.1275Z" fill="#02D9FC"/>
<path d="M3.34819 20.502C5.00965 20.502 6.35654 19.1303 6.35654 17.4383C6.35654 15.7462 5.00965 14.3745 3.34819 14.3745C1.68672 14.3745 0.339844 15.7462 0.339844 17.4383C0.339844 19.1303 1.68672 20.502 3.34819 20.502Z" fill="#02D9FC"/>
<path d="M3.34819 34.8765C5.00965 34.8765 6.35654 33.5048 6.35654 31.8128C6.35654 30.1207 5.00965 28.749 3.34819 28.749C1.68672 28.749 0.339844 30.1207 0.339844 31.8128C0.339844 33.5048 1.68672 34.8765 3.34819 34.8765Z" fill="#02D9FC"/>
<path d="M3.34819 49.251C5.00965 49.251 6.35654 47.8793 6.35654 46.1873C6.35654 44.4952 5.00965 43.1235 3.34819 43.1235C1.68672 43.1235 0.339844 44.4952 0.339844 46.1873C0.339844 47.8793 1.68672 49.251 3.34819 49.251Z" fill="#02D9FC"/>
<path d="M3.34819 63.6255C5.00965 63.6255 6.35654 62.2538 6.35654 60.5618C6.35654 58.8697 5.00965 57.4981 3.34819 57.4981C1.68672 57.4981 0.339844 58.8697 0.339844 60.5618C0.339844 62.2538 1.68672 63.6255 3.34819 63.6255Z" fill="#02D9FC"/>
<path d="M3.34819 78C5.00965 78 6.35654 76.6283 6.35654 74.9363C6.35654 73.2442 5.00965 71.8725 3.34819 71.8725C1.68672 71.8725 0.339844 73.2442 0.339844 74.9363C0.339844 76.6283 1.68672 78 3.34819 78Z" fill="#02D9FC"/>
</svg>
