<svg width="38" height="50" viewBox="0 0 38 50" fill="none" xmlns="http://www.w3.org/2000/svg">
<path d="M37.8562 3.92787C38.9212 3.92787 39.7846 3.04859 39.7846 1.96393C39.7846 0.879283 38.9212 0 37.8562 0C36.7911 0 35.9277 0.879283 35.9277 1.96393C35.9277 3.04859 36.7911 3.92787 37.8562 3.92787Z" fill="#02D9FC"/>
<path d="M37.8562 13.1423C38.9212 13.1423 39.7846 12.263 39.7846 11.1784C39.7846 10.0937 38.9212 9.21445 37.8562 9.21445C36.7911 9.21445 35.9277 10.0937 35.9277 11.1784C35.9277 12.263 36.7911 13.1423 37.8562 13.1423Z" fill="#02D9FC"/>
<path d="M37.8562 22.3567C38.9212 22.3567 39.7846 21.4774 39.7846 20.3928C39.7846 19.3081 38.9212 18.4288 37.8562 18.4288C36.7911 18.4288 35.9277 19.3081 35.9277 20.3928C35.9277 21.4774 36.7911 22.3567 37.8562 22.3567Z" fill="#02D9FC"/>
<path d="M37.8562 31.5712C38.9212 31.5712 39.7846 30.6919 39.7846 29.6072C39.7846 28.5226 38.9212 27.6433 37.8562 27.6433C36.7911 27.6433 35.9277 28.5226 35.9277 29.6072C35.9277 30.6919 36.7911 31.5712 37.8562 31.5712Z" fill="#02D9FC"/>
<path d="M37.8562 40.7856C38.9212 40.7856 39.7846 39.9063 39.7846 38.8217C39.7846 37.737 38.9212 36.8577 37.8562 36.8577C36.7911 36.8577 35.9277 37.737 35.9277 38.8217C35.9277 39.9063 36.7911 40.7856 37.8562 40.7856Z" fill="#02D9FC"/>
<path d="M37.8562 50C38.9212 50 39.7846 49.1207 39.7846 48.0361C39.7846 46.9514 38.9212 46.0721 37.8562 46.0721C36.7911 46.0721 35.9277 46.9514 35.9277 48.0361C35.9277 49.1207 36.7911 50 37.8562 50Z" fill="#02D9FC"/>
<path d="M30.6979 3.92787C31.763 3.92787 32.6264 3.04859 32.6264 1.96393C32.6264 0.879283 31.763 0 30.6979 0C29.6329 0 28.7695 0.879283 28.7695 1.96393C28.7695 3.04859 29.6329 3.92787 30.6979 3.92787Z" fill="#02D9FC"/>
<path d="M30.6979 13.1423C31.763 13.1423 32.6264 12.263 32.6264 11.1784C32.6264 10.0937 31.763 9.21445 30.6979 9.21445C29.6329 9.21445 28.7695 10.0937 28.7695 11.1784C28.7695 12.263 29.6329 13.1423 30.6979 13.1423Z" fill="#02D9FC"/>
<path d="M30.6979 22.3567C31.763 22.3567 32.6264 21.4774 32.6264 20.3928C32.6264 19.3081 31.763 18.4288 30.6979 18.4288C29.6329 18.4288 28.7695 19.3081 28.7695 20.3928C28.7695 21.4774 29.6329 22.3567 30.6979 22.3567Z" fill="#02D9FC"/>
<path d="M30.6979 31.5712C31.763 31.5712 32.6264 30.6919 32.6264 29.6072C32.6264 28.5226 31.763 27.6433 30.6979 27.6433C29.6329 27.6433 28.7695 28.5226 28.7695 29.6072C28.7695 30.6919 29.6329 31.5712 30.6979 31.5712Z" fill="#02D9FC"/>
<path d="M30.6979 40.7856C31.763 40.7856 32.6264 39.9063 32.6264 38.8217C32.6264 37.737 31.763 36.8577 30.6979 36.8577C29.6329 36.8577 28.7695 37.737 28.7695 38.8217C28.7695 39.9063 29.6329 40.7856 30.6979 40.7856Z" fill="#02D9FC"/>
<path d="M30.6979 50C31.763 50 32.6264 49.1207 32.6264 48.0361C32.6264 46.9514 31.763 46.0721 30.6979 46.0721C29.6329 46.0721 28.7695 46.9514 28.7695 48.0361C28.7695 49.1207 29.6329 50 30.6979 50Z" fill="#02D9FC"/>
<path d="M23.5358 3.92787C24.6009 3.92787 25.4642 3.04859 25.4642 1.96393C25.4642 0.879283 24.6009 0 23.5358 0C22.4708 0 21.6074 0.879283 21.6074 1.96393C21.6074 3.04859 22.4708 3.92787 23.5358 3.92787Z" fill="#02D9FC"/>
<path d="M23.5358 13.1423C24.6009 13.1423 25.4642 12.263 25.4642 11.1784C25.4642 10.0937 24.6009 9.21445 23.5358 9.21445C22.4708 9.21445 21.6074 10.0937 21.6074 11.1784C21.6074 12.263 22.4708 13.1423 23.5358 13.1423Z" fill="#02D9FC"/>
<path d="M23.5358 22.3567C24.6009 22.3567 25.4642 21.4774 25.4642 20.3928C25.4642 19.3081 24.6009 18.4288 23.5358 18.4288C22.4708 18.4288 21.6074 19.3081 21.6074 20.3928C21.6074 21.4774 22.4708 22.3567 23.5358 22.3567Z" fill="#02D9FC"/>
<path d="M23.5358 31.5712C24.6009 31.5712 25.4642 30.6919 25.4642 29.6072C25.4642 28.5226 24.6009 27.6433 23.5358 27.6433C22.4708 27.6433 21.6074 28.5226 21.6074 29.6072C21.6074 30.6919 22.4708 31.5712 23.5358 31.5712Z" fill="#02D9FC"/>
<path d="M23.5358 40.7856C24.6009 40.7856 25.4642 39.9063 25.4642 38.8217C25.4642 37.737 24.6009 36.8577 23.5358 36.8577C22.4708 36.8577 21.6074 37.737 21.6074 38.8217C21.6074 39.9063 22.4708 40.7856 23.5358 40.7856Z" fill="#02D9FC"/>
<path d="M23.5358 50C24.6009 50 25.4642 49.1207 25.4642 48.0361C25.4642 46.9514 24.6009 46.0721 23.5358 46.0721C22.4708 46.0721 21.6074 46.9514 21.6074 48.0361C21.6074 49.1207 22.4708 50 23.5358 50Z" fill="#02D9FC"/>
<path d="M16.3737 3.92787C17.4388 3.92787 18.3022 3.04859 18.3022 1.96393C18.3022 0.879283 17.4388 0 16.3737 0C15.3087 0 14.4453 0.879283 14.4453 1.96393C14.4453 3.04859 15.3087 3.92787 16.3737 3.92787Z" fill="#02D9FC"/>
<path d="M16.3737 13.1423C17.4388 13.1423 18.3022 12.263 18.3022 11.1784C18.3022 10.0937 17.4388 9.21445 16.3737 9.21445C15.3087 9.21445 14.4453 10.0937 14.4453 11.1784C14.4453 12.263 15.3087 13.1423 16.3737 13.1423Z" fill="#02D9FC"/>
<path d="M16.3737 22.3567C17.4388 22.3567 18.3022 21.4774 18.3022 20.3928C18.3022 19.3081 17.4388 18.4288 16.3737 18.4288C15.3087 18.4288 14.4453 19.3081 14.4453 20.3928C14.4453 21.4774 15.3087 22.3567 16.3737 22.3567Z" fill="#02D9FC"/>
<path d="M16.3737 31.5712C17.4388 31.5712 18.3022 30.6919 18.3022 29.6072C18.3022 28.5226 17.4388 27.6433 16.3737 27.6433C15.3087 27.6433 14.4453 28.5226 14.4453 29.6072C14.4453 30.6919 15.3087 31.5712 16.3737 31.5712Z" fill="#02D9FC"/>
<path d="M16.3737 40.7856C17.4388 40.7856 18.3022 39.9063 18.3022 38.8217C18.3022 37.737 17.4388 36.8577 16.3737 36.8577C15.3087 36.8577 14.4453 37.737 14.4453 38.8217C14.4453 39.9063 15.3087 40.7856 16.3737 40.7856Z" fill="#02D9FC"/>
<path d="M16.3737 50C17.4388 50 18.3022 49.1207 18.3022 48.0361C18.3022 46.9514 17.4388 46.0721 16.3737 46.0721C15.3087 46.0721 14.4453 46.9514 14.4453 48.0361C14.4453 49.1207 15.3087 50 16.3737 50Z" fill="#02D9FC"/>
<path d="M9.2165 3.92787C10.2815 3.92787 11.1449 3.04859 11.1449 1.96393C11.1449 0.879283 10.2815 0 9.2165 0C8.15147 0 7.28809 0.879283 7.28809 1.96393C7.28809 3.04859 8.15147 3.92787 9.2165 3.92787Z" fill="#02D9FC"/>
<path d="M9.2165 13.1423C10.2815 13.1423 11.1449 12.263 11.1449 11.1784C11.1449 10.0937 10.2815 9.21445 9.2165 9.21445C8.15147 9.21445 7.28809 10.0937 7.28809 11.1784C7.28809 12.263 8.15147 13.1423 9.2165 13.1423Z" fill="#02D9FC"/>
<path d="M9.2165 22.3567C10.2815 22.3567 11.1449 21.4774 11.1449 20.3928C11.1449 19.3081 10.2815 18.4288 9.2165 18.4288C8.15147 18.4288 7.28809 19.3081 7.28809 20.3928C7.28809 21.4774 8.15147 22.3567 9.2165 22.3567Z" fill="#02D9FC"/>
<path d="M9.2165 31.5712C10.2815 31.5712 11.1449 30.6919 11.1449 29.6072C11.1449 28.5226 10.2815 27.6433 9.2165 27.6433C8.15147 27.6433 7.28809 28.5226 7.28809 29.6072C7.28809 30.6919 8.15147 31.5712 9.2165 31.5712Z" fill="#02D9FC"/>
<path d="M9.2165 40.7856C10.2815 40.7856 11.1449 39.9063 11.1449 38.8217C11.1449 37.737 10.2815 36.8577 9.2165 36.8577C8.15147 36.8577 7.28809 37.737 7.28809 38.8217C7.28809 39.9063 8.15147 40.7856 9.2165 40.7856Z" fill="#02D9FC"/>
<path d="M9.2165 50C10.2815 50 11.1449 49.1207 11.1449 48.0361C11.1449 46.9514 10.2815 46.0721 9.2165 46.0721C8.15147 46.0721 7.28809 46.9514 7.28809 48.0361C7.28809 49.1207 8.15147 50 9.2165 50Z" fill="#02D9FC"/>
<path d="M2.05343 3.92789C3.11847 3.92789 3.98186 3.0486 3.98186 1.96394C3.98186 0.879287 3.11847 0 2.05343 0C0.988384 0 0.125 0.879287 0.125 1.96394C0.125 3.0486 0.988384 3.92789 2.05343 3.92789Z" fill="#02D9FC"/>
<path d="M2.05343 13.1423C3.11847 13.1423 3.98186 12.263 3.98186 11.1784C3.98186 10.0937 3.11847 9.21445 2.05343 9.21445C0.988384 9.21445 0.125 10.0937 0.125 11.1784C0.125 12.263 0.988384 13.1423 2.05343 13.1423Z" fill="#02D9FC"/>
<path d="M2.05343 22.3567C3.11847 22.3567 3.98186 21.4774 3.98186 20.3928C3.98186 19.3081 3.11847 18.4288 2.05343 18.4288C0.988384 18.4288 0.125 19.3081 0.125 20.3928C0.125 21.4774 0.988384 22.3567 2.05343 22.3567Z" fill="#02D9FC"/>
<path d="M2.05343 31.5712C3.11847 31.5712 3.98186 30.6919 3.98186 29.6072C3.98186 28.5226 3.11847 27.6433 2.05343 27.6433C0.988384 27.6433 0.125 28.5226 0.125 29.6072C0.125 30.6919 0.988384 31.5712 2.05343 31.5712Z" fill="#02D9FC"/>
<path d="M2.05343 40.7856C3.11847 40.7856 3.98186 39.9063 3.98186 38.8217C3.98186 37.737 3.11847 36.8577 2.05343 36.8577C0.988384 36.8577 0.125 37.737 0.125 38.8217C0.125 39.9063 0.988384 40.7856 2.05343 40.7856Z" fill="#02D9FC"/>
<path d="M2.05343 50C3.11847 50 3.98186 49.1207 3.98186 48.0361C3.98186 46.9514 3.11847 46.0721 2.05343 46.0721C0.988384 46.0721 0.125 46.9514 0.125 48.0361C0.125 49.1207 0.988384 50 2.05343 50Z" fill="#02D9FC"/>
</svg>
