<svg width="102" height="74" viewBox="0 0 102 74" fill="none" xmlns="http://www.w3.org/2000/svg">
<path d="M98.3091 5.81325C99.8854 5.81325 101.163 4.51191 101.163 2.90662C101.163 1.30134 99.8854 0 98.3091 0C96.7329 0 95.4551 1.30134 95.4551 2.90662C95.4551 4.51191 96.7329 5.81325 98.3091 5.81325Z" fill="#405CFB"/>
<path d="M87.7115 5.81325C89.2877 5.81325 90.5656 4.51191 90.5656 2.90662C90.5656 1.30134 89.2877 0 87.7115 0C86.1352 0 84.8574 1.30134 84.8574 2.90662C84.8574 4.51191 86.1352 5.81325 87.7115 5.81325Z" fill="#405CFB"/>
<path d="M98.3091 19.4506C99.8854 19.4506 101.163 18.1493 101.163 16.544C101.163 14.9387 99.8854 13.6374 98.3091 13.6374C96.7329 13.6374 95.4551 14.9387 95.4551 16.544C95.4551 18.1493 96.7329 19.4506 98.3091 19.4506Z" fill="#405CFB"/>
<path d="M87.7115 19.4506C89.2877 19.4506 90.5656 18.1493 90.5656 16.544C90.5656 14.9387 89.2877 13.6374 87.7115 13.6374C86.1352 13.6374 84.8574 14.9387 84.8574 16.544C84.8574 18.1493 86.1352 19.4506 87.7115 19.4506Z" fill="#405CFB"/>
<path d="M98.3091 33.088C99.8854 33.088 101.163 31.7866 101.163 30.1813C101.163 28.576 99.8854 27.2747 98.3091 27.2747C96.7329 27.2747 95.4551 28.576 95.4551 30.1813C95.4551 31.7866 96.7329 33.088 98.3091 33.088Z" fill="#405CFB"/>
<path d="M87.7115 33.088C89.2877 33.088 90.5656 31.7866 90.5656 30.1813C90.5656 28.576 89.2877 27.2747 87.7115 27.2747C86.1352 27.2747 84.8574 28.576 84.8574 30.1813C84.8574 31.7866 86.1352 33.088 87.7115 33.088Z" fill="#405CFB"/>
<path d="M98.3091 46.7253C99.8854 46.7253 101.163 45.424 101.163 43.8187C101.163 42.2134 99.8854 40.9121 98.3091 40.9121C96.7329 40.9121 95.4551 42.2134 95.4551 43.8187C95.4551 45.424 96.7329 46.7253 98.3091 46.7253Z" fill="#405CFB"/>
<path d="M87.7115 46.7253C89.2877 46.7253 90.5656 45.424 90.5656 43.8187C90.5656 42.2134 89.2877 40.9121 87.7115 40.9121C86.1352 40.9121 84.8574 42.2134 84.8574 43.8187C84.8574 45.424 86.1352 46.7253 87.7115 46.7253Z" fill="#405CFB"/>
<path d="M98.3091 60.3627C99.8854 60.3627 101.163 59.0613 101.163 57.4561C101.163 55.8508 99.8854 54.5495 98.3091 54.5495C96.7329 54.5495 95.4551 55.8508 95.4551 57.4561C95.4551 59.0613 96.7329 60.3627 98.3091 60.3627Z" fill="#405CFB"/>
<path d="M87.7115 60.3627C89.2877 60.3627 90.5656 59.0613 90.5656 57.4561C90.5656 55.8508 89.2877 54.5495 87.7115 54.5495C86.1352 54.5495 84.8574 55.8508 84.8574 57.4561C84.8574 59.0613 86.1352 60.3627 87.7115 60.3627Z" fill="#405CFB"/>
<path d="M98.3091 74C99.8854 74 101.163 72.6987 101.163 71.0934C101.163 69.4881 99.8854 68.1867 98.3091 68.1867C96.7329 68.1867 95.4551 69.4881 95.4551 71.0934C95.4551 72.6987 96.7329 74 98.3091 74Z" fill="#405CFB"/>
<path d="M87.7115 74C89.2877 74 90.5656 72.6987 90.5656 71.0934C90.5656 69.4881 89.2877 68.1867 87.7115 68.1867C86.1352 68.1867 84.8574 69.4881 84.8574 71.0934C84.8574 72.6987 86.1352 74 87.7115 74Z" fill="#405CFB"/>
<path d="M77.1158 5.81325C78.692 5.81325 79.9698 4.51191 79.9698 2.90662C79.9698 1.30134 78.692 0 77.1158 0C75.5395 0 74.2617 1.30134 74.2617 2.90662C74.2617 4.51191 75.5395 5.81325 77.1158 5.81325Z" fill="#405CFB"/>
<path d="M77.1158 19.4506C78.692 19.4506 79.9698 18.1493 79.9698 16.544C79.9698 14.9387 78.692 13.6374 77.1158 13.6374C75.5395 13.6374 74.2617 14.9387 74.2617 16.544C74.2617 18.1493 75.5395 19.4506 77.1158 19.4506Z" fill="#405CFB"/>
<path d="M77.1158 33.088C78.692 33.088 79.9698 31.7866 79.9698 30.1813C79.9698 28.576 78.692 27.2747 77.1158 27.2747C75.5395 27.2747 74.2617 28.576 74.2617 30.1813C74.2617 31.7866 75.5395 33.088 77.1158 33.088Z" fill="#405CFB"/>
<path d="M77.1158 46.7253C78.692 46.7253 79.9698 45.424 79.9698 43.8187C79.9698 42.2134 78.692 40.9121 77.1158 40.9121C75.5395 40.9121 74.2617 42.2134 74.2617 43.8187C74.2617 45.424 75.5395 46.7253 77.1158 46.7253Z" fill="#405CFB"/>
<path d="M77.1158 60.3627C78.692 60.3627 79.9698 59.0613 79.9698 57.4561C79.9698 55.8508 78.692 54.5495 77.1158 54.5495C75.5395 54.5495 74.2617 55.8508 74.2617 57.4561C74.2617 59.0613 75.5395 60.3627 77.1158 60.3627Z" fill="#405CFB"/>
<path d="M77.1158 74C78.692 74 79.9698 72.6987 79.9698 71.0934C79.9698 69.4881 78.692 68.1867 77.1158 68.1867C75.5395 68.1867 74.2617 69.4881 74.2617 71.0934C74.2617 72.6987 75.5395 74 77.1158 74Z" fill="#405CFB"/>
<path d="M66.5142 5.81325C68.0905 5.81325 69.3683 4.51191 69.3683 2.90662C69.3683 1.30134 68.0905 0 66.5142 0C64.938 0 63.6602 1.30134 63.6602 2.90662C63.6602 4.51191 64.938 5.81325 66.5142 5.81325Z" fill="#405CFB"/>
<path d="M66.5142 19.4506C68.0905 19.4506 69.3683 18.1493 69.3683 16.544C69.3683 14.9387 68.0905 13.6374 66.5142 13.6374C64.938 13.6374 63.6602 14.9387 63.6602 16.544C63.6602 18.1493 64.938 19.4506 66.5142 19.4506Z" fill="#405CFB"/>
<path d="M66.5142 33.088C68.0905 33.088 69.3683 31.7866 69.3683 30.1813C69.3683 28.576 68.0905 27.2747 66.5142 27.2747C64.938 27.2747 63.6602 28.576 63.6602 30.1813C63.6602 31.7866 64.938 33.088 66.5142 33.088Z" fill="#405CFB"/>
<path d="M66.5142 46.7253C68.0905 46.7253 69.3683 45.424 69.3683 43.8187C69.3683 42.2134 68.0905 40.9121 66.5142 40.9121C64.938 40.9121 63.6602 42.2134 63.6602 43.8187C63.6602 45.424 64.938 46.7253 66.5142 46.7253Z" fill="#405CFB"/>
<path d="M66.5142 60.3627C68.0905 60.3627 69.3683 59.0613 69.3683 57.4561C69.3683 55.8508 68.0905 54.5495 66.5142 54.5495C64.938 54.5495 63.6602 55.8508 63.6602 57.4561C63.6602 59.0613 64.938 60.3627 66.5142 60.3627Z" fill="#405CFB"/>
<path d="M66.5142 74C68.0905 74 69.3683 72.6987 69.3683 71.0934C69.3683 69.4881 68.0905 68.1867 66.5142 68.1867C64.938 68.1867 63.6602 69.4881 63.6602 71.0934C63.6602 72.6987 64.938 74 66.5142 74Z" fill="#405CFB"/>
<path d="M55.9146 5.81325C57.4909 5.81325 58.7687 4.51191 58.7687 2.90662C58.7687 1.30134 57.4909 0 55.9146 0C54.3384 0 53.0605 1.30134 53.0605 2.90662C53.0605 4.51191 54.3384 5.81325 55.9146 5.81325Z" fill="#405CFB"/>
<path d="M55.9146 19.4506C57.4909 19.4506 58.7687 18.1493 58.7687 16.544C58.7687 14.9387 57.4909 13.6374 55.9146 13.6374C54.3384 13.6374 53.0605 14.9387 53.0605 16.544C53.0605 18.1493 54.3384 19.4506 55.9146 19.4506Z" fill="#405CFB"/>
<path d="M55.9146 33.088C57.4909 33.088 58.7687 31.7866 58.7687 30.1813C58.7687 28.576 57.4909 27.2747 55.9146 27.2747C54.3384 27.2747 53.0605 28.576 53.0605 30.1813C53.0605 31.7866 54.3384 33.088 55.9146 33.088Z" fill="#405CFB"/>
<path d="M55.9146 46.7253C57.4909 46.7253 58.7687 45.424 58.7687 43.8187C58.7687 42.2134 57.4909 40.9121 55.9146 40.9121C54.3384 40.9121 53.0605 42.2134 53.0605 43.8187C53.0605 45.424 54.3384 46.7253 55.9146 46.7253Z" fill="#405CFB"/>
<path d="M55.9146 60.3627C57.4909 60.3627 58.7687 59.0613 58.7687 57.4561C58.7687 55.8508 57.4909 54.5495 55.9146 54.5495C54.3384 54.5495 53.0605 55.8508 53.0605 57.4561C53.0605 59.0613 54.3384 60.3627 55.9146 60.3627Z" fill="#405CFB"/>
<path d="M55.9146 74C57.4909 74 58.7687 72.6987 58.7687 71.0934C58.7687 69.4881 57.4909 68.1867 55.9146 68.1867C54.3384 68.1867 53.0605 69.4881 53.0605 71.0934C53.0605 72.6987 54.3384 74 55.9146 74Z" fill="#405CFB"/>
<path d="M45.3208 5.81325C46.8971 5.81325 48.1749 4.51191 48.1749 2.90662C48.1749 1.30134 46.8971 0 45.3208 0C43.7446 0 42.4668 1.30134 42.4668 2.90662C42.4668 4.51191 43.7446 5.81325 45.3208 5.81325Z" fill="#405CFB"/>
<path d="M45.3208 19.4506C46.8971 19.4506 48.1749 18.1493 48.1749 16.544C48.1749 14.9387 46.8971 13.6374 45.3208 13.6374C43.7446 13.6374 42.4668 14.9387 42.4668 16.544C42.4668 18.1493 43.7446 19.4506 45.3208 19.4506Z" fill="#405CFB"/>
<path d="M45.3208 33.088C46.8971 33.088 48.1749 31.7866 48.1749 30.1813C48.1749 28.576 46.8971 27.2747 45.3208 27.2747C43.7446 27.2747 42.4668 28.576 42.4668 30.1813C42.4668 31.7866 43.7446 33.088 45.3208 33.088Z" fill="#405CFB"/>
<path d="M45.3208 46.7253C46.8971 46.7253 48.1749 45.424 48.1749 43.8187C48.1749 42.2134 46.8971 40.9121 45.3208 40.9121C43.7446 40.9121 42.4668 42.2134 42.4668 43.8187C42.4668 45.424 43.7446 46.7253 45.3208 46.7253Z" fill="#405CFB"/>
<path d="M45.3208 60.3627C46.8971 60.3627 48.1749 59.0613 48.1749 57.4561C48.1749 55.8508 46.8971 54.5495 45.3208 54.5495C43.7446 54.5495 42.4668 55.8508 42.4668 57.4561C42.4668 59.0613 43.7446 60.3627 45.3208 60.3627Z" fill="#405CFB"/>
<path d="M45.3208 74C46.8971 74 48.1749 72.6987 48.1749 71.0934C48.1749 69.4881 46.8971 68.1867 45.3208 68.1867C43.7446 68.1867 42.4668 69.4881 42.4668 71.0934C42.4668 72.6987 43.7446 74 45.3208 74Z" fill="#405CFB"/>
<path d="M34.7212 5.81325C36.2975 5.81325 37.5753 4.51191 37.5753 2.90662C37.5753 1.30134 36.2975 0 34.7212 0C33.145 0 31.8672 1.30134 31.8672 2.90662C31.8672 4.51191 33.145 5.81325 34.7212 5.81325Z" fill="#405CFB"/>
<path d="M34.7212 19.4506C36.2975 19.4506 37.5753 18.1493 37.5753 16.544C37.5753 14.9387 36.2975 13.6374 34.7212 13.6374C33.145 13.6374 31.8672 14.9387 31.8672 16.544C31.8672 18.1493 33.145 19.4506 34.7212 19.4506Z" fill="#405CFB"/>
<path d="M34.7212 33.088C36.2975 33.088 37.5753 31.7866 37.5753 30.1813C37.5753 28.576 36.2975 27.2747 34.7212 27.2747C33.145 27.2747 31.8672 28.576 31.8672 30.1813C31.8672 31.7866 33.145 33.088 34.7212 33.088Z" fill="#405CFB"/>
<path d="M34.7212 46.7253C36.2975 46.7253 37.5753 45.424 37.5753 43.8187C37.5753 42.2134 36.2975 40.9121 34.7212 40.9121C33.145 40.9121 31.8672 42.2134 31.8672 43.8187C31.8672 45.424 33.145 46.7253 34.7212 46.7253Z" fill="#405CFB"/>
<path d="M34.7212 60.3627C36.2975 60.3627 37.5753 59.0613 37.5753 57.4561C37.5753 55.8508 36.2975 54.5495 34.7212 54.5495C33.145 54.5495 31.8672 55.8508 31.8672 57.4561C31.8672 59.0613 33.145 60.3627 34.7212 60.3627Z" fill="#405CFB"/>
<path d="M34.7212 74C36.2975 74 37.5753 72.6987 37.5753 71.0934C37.5753 69.4881 36.2975 68.1867 34.7212 68.1867C33.145 68.1867 31.8672 69.4881 31.8672 71.0934C31.8672 72.6987 33.145 74 34.7212 74Z" fill="#405CFB"/>
<path d="M24.1197 5.81325C25.696 5.81325 26.9738 4.51191 26.9738 2.90662C26.9738 1.30134 25.696 0 24.1197 0C22.5434 0 21.2656 1.30134 21.2656 2.90662C21.2656 4.51191 22.5434 5.81325 24.1197 5.81325Z" fill="#405CFB"/>
<path d="M24.1197 19.4506C25.696 19.4506 26.9738 18.1493 26.9738 16.544C26.9738 14.9387 25.696 13.6374 24.1197 13.6374C22.5434 13.6374 21.2656 14.9387 21.2656 16.544C21.2656 18.1493 22.5434 19.4506 24.1197 19.4506Z" fill="#405CFB"/>
<path d="M24.1197 33.088C25.696 33.088 26.9738 31.7866 26.9738 30.1813C26.9738 28.576 25.696 27.2747 24.1197 27.2747C22.5434 27.2747 21.2656 28.576 21.2656 30.1813C21.2656 31.7866 22.5434 33.088 24.1197 33.088Z" fill="#405CFB"/>
<path d="M24.1197 46.7253C25.696 46.7253 26.9738 45.424 26.9738 43.8187C26.9738 42.2134 25.696 40.9121 24.1197 40.9121C22.5434 40.9121 21.2656 42.2134 21.2656 43.8187C21.2656 45.424 22.5434 46.7253 24.1197 46.7253Z" fill="#405CFB"/>
<path d="M24.1197 60.3627C25.696 60.3627 26.9738 59.0613 26.9738 57.4561C26.9738 55.8508 25.696 54.5495 24.1197 54.5495C22.5434 54.5495 21.2656 55.8508 21.2656 57.4561C21.2656 59.0613 22.5434 60.3627 24.1197 60.3627Z" fill="#405CFB"/>
<path d="M24.1197 74C25.696 74 26.9738 72.6987 26.9738 71.0934C26.9738 69.4881 25.696 68.1867 24.1197 68.1867C22.5434 68.1867 21.2656 69.4881 21.2656 71.0934C21.2656 72.6987 22.5434 74 24.1197 74Z" fill="#405CFB"/>
<path d="M13.5279 5.81325C15.1041 5.81325 16.3819 4.51191 16.3819 2.90662C16.3819 1.30134 15.1041 0 13.5279 0C11.9516 0 10.6738 1.30134 10.6738 2.90662C10.6738 4.51191 11.9516 5.81325 13.5279 5.81325Z" fill="#405CFB"/>
<path d="M13.5279 19.4506C15.1041 19.4506 16.3819 18.1493 16.3819 16.544C16.3819 14.9387 15.1041 13.6374 13.5279 13.6374C11.9516 13.6374 10.6738 14.9387 10.6738 16.544C10.6738 18.1493 11.9516 19.4506 13.5279 19.4506Z" fill="#405CFB"/>
<path d="M13.5279 33.088C15.1041 33.088 16.3819 31.7866 16.3819 30.1813C16.3819 28.576 15.1041 27.2747 13.5279 27.2747C11.9516 27.2747 10.6738 28.576 10.6738 30.1813C10.6738 31.7866 11.9516 33.088 13.5279 33.088Z" fill="#405CFB"/>
<path d="M13.5279 46.7253C15.1041 46.7253 16.3819 45.424 16.3819 43.8187C16.3819 42.2134 15.1041 40.9121 13.5279 40.9121C11.9516 40.9121 10.6738 42.2134 10.6738 43.8187C10.6738 45.424 11.9516 46.7253 13.5279 46.7253Z" fill="#405CFB"/>
<path d="M13.5279 60.3627C15.1041 60.3627 16.3819 59.0613 16.3819 57.4561C16.3819 55.8508 15.1041 54.5495 13.5279 54.5495C11.9516 54.5495 10.6738 55.8508 10.6738 57.4561C10.6738 59.0613 11.9516 60.3627 13.5279 60.3627Z" fill="#405CFB"/>
<path d="M13.5279 74C15.1041 74 16.3819 72.6987 16.3819 71.0934C16.3819 69.4881 15.1041 68.1867 13.5279 68.1867C11.9516 68.1867 10.6738 69.4881 10.6738 71.0934C10.6738 72.6987 11.9516 74 13.5279 74Z" fill="#405CFB"/>
<path d="M2.92634 5.81327C4.5026 5.81327 5.78042 4.51193 5.78042 2.90664C5.78042 1.30135 4.5026 0 2.92634 0C1.35007 0 0.0722656 1.30135 0.0722656 2.90664C0.0722656 4.51193 1.35007 5.81327 2.92634 5.81327Z" fill="#405CFB"/>
<path d="M2.92634 19.4506C4.5026 19.4506 5.78042 18.1493 5.78042 16.544C5.78042 14.9387 4.5026 13.6374 2.92634 13.6374C1.35007 13.6374 0.0722656 14.9387 0.0722656 16.544C0.0722656 18.1493 1.35007 19.4506 2.92634 19.4506Z" fill="#405CFB"/>
<path d="M2.92634 33.088C4.5026 33.088 5.78042 31.7866 5.78042 30.1813C5.78042 28.576 4.5026 27.2747 2.92634 27.2747C1.35007 27.2747 0.0722656 28.576 0.0722656 30.1813C0.0722656 31.7866 1.35007 33.088 2.92634 33.088Z" fill="#405CFB"/>
<path d="M2.92634 46.7253C4.5026 46.7253 5.78042 45.424 5.78042 43.8187C5.78042 42.2134 4.5026 40.9121 2.92634 40.9121C1.35007 40.9121 0.0722656 42.2134 0.0722656 43.8187C0.0722656 45.424 1.35007 46.7253 2.92634 46.7253Z" fill="#405CFB"/>
<path d="M2.92634 60.3627C4.5026 60.3627 5.78042 59.0613 5.78042 57.4561C5.78042 55.8508 4.5026 54.5495 2.92634 54.5495C1.35007 54.5495 0.0722656 55.8508 0.0722656 57.4561C0.0722656 59.0613 1.35007 60.3627 2.92634 60.3627Z" fill="#405CFB"/>
<path d="M2.92634 74C4.5026 74 5.78042 72.6987 5.78042 71.0934C5.78042 69.4881 4.5026 68.1867 2.92634 68.1867C1.35007 68.1867 0.0722656 69.4881 0.0722656 71.0934C0.0722656 72.6987 1.35007 74 2.92634 74Z" fill="#405CFB"/>
</svg>
