<svg width="86" height="63" viewBox="0 0 86 63" fill="none" xmlns="http://www.w3.org/2000/svg">
<path d="M2.36769 4.71073C1.0606 4.71073 0.00100327 3.6562 0.00100327 2.35537C0.00100327 1.05453 1.0606 0 2.36769 0C3.67478 0 4.73438 1.05453 4.73438 2.35537C4.73438 3.6562 3.67478 4.71073 2.36769 4.71073Z" fill="#405CFB"/>
<path d="M11.8325 4.71073C10.5254 4.71073 9.46583 3.6562 9.46583 2.35537C9.46583 1.05453 10.5254 0 11.8325 0C13.1396 0 14.1992 1.05453 14.1992 2.35537C14.1992 3.6562 13.1396 4.71073 11.8325 4.71073Z" fill="#405CFB"/>
<path d="M2.36769 15.6966C1.0606 15.6966 0.00100327 14.642 0.00100327 13.3412C0.00100327 12.0404 1.0606 10.9858 2.36769 10.9858C3.67478 10.9858 4.73438 12.0404 4.73438 13.3412C4.73438 14.642 3.67478 15.6966 2.36769 15.6966Z" fill="#405CFB"/>
<path d="M11.8325 15.6966C10.5254 15.6966 9.46583 14.642 9.46583 13.3412C9.46583 12.0404 10.5254 10.9858 11.8325 10.9858C13.1396 10.9858 14.1992 12.0404 14.1992 13.3412C14.1992 14.642 13.1396 15.6966 11.8325 15.6966Z" fill="#405CFB"/>
<path d="M2.36769 28.2527C1.0606 28.2527 0.00100327 27.1982 0.00100327 25.8974C0.00100327 24.5965 1.0606 23.542 2.36769 23.542C3.67478 23.542 4.73438 24.5965 4.73438 25.8974C4.73438 27.1982 3.67478 28.2527 2.36769 28.2527Z" fill="#405CFB"/>
<path d="M11.8325 28.2527C10.5254 28.2527 9.46583 27.1982 9.46583 25.8974C9.46583 24.5965 10.5254 23.542 11.8325 23.542C13.1396 23.542 14.1992 24.5965 14.1992 25.8974C14.1992 27.1982 13.1396 28.2527 11.8325 28.2527Z" fill="#405CFB"/>
<path d="M2.36769 39.2356C1.0606 39.2356 0.00100327 38.1811 0.00100327 36.8803C0.00100327 35.5794 1.0606 34.5249 2.36769 34.5249C3.67478 34.5249 4.73438 35.5794 4.73438 36.8803C4.73438 38.1811 3.67478 39.2356 2.36769 39.2356Z" fill="#405CFB"/>
<path d="M11.8325 39.2356C10.5254 39.2356 9.46583 38.1811 9.46583 36.8803C9.46583 35.5794 10.5254 34.5249 11.8325 34.5249C13.1396 34.5249 14.1992 35.5794 14.1992 36.8803C14.1992 38.1811 13.1396 39.2356 11.8325 39.2356Z" fill="#405CFB"/>
<path d="M2.36769 50.2215C1.0606 50.2215 0.00100327 49.1669 0.00100327 47.8661C0.00100327 46.5653 1.0606 45.5107 2.36769 45.5107C3.67478 45.5107 4.73438 46.5653 4.73438 47.8661C4.73438 49.1669 3.67478 50.2215 2.36769 50.2215Z" fill="#405CFB"/>
<path d="M11.8325 50.2215C10.5254 50.2215 9.46583 49.1669 9.46583 47.8661C9.46583 46.5653 10.5254 45.5107 11.8325 45.5107C13.1396 45.5107 14.1992 46.5653 14.1992 47.8661C14.1992 49.1669 13.1396 50.2215 11.8325 50.2215Z" fill="#405CFB"/>
<path d="M2.36769 62.772C1.0606 62.772 0.00100327 61.7175 0.00100327 60.4166C0.00100327 59.1158 1.0606 58.0613 2.36769 58.0613C3.67478 58.0613 4.73438 59.1158 4.73438 60.4166C4.73438 61.7175 3.67478 62.772 2.36769 62.772Z" fill="#405CFB"/>
<path d="M11.8325 62.7723C10.5254 62.7723 9.46583 61.7177 9.46583 60.4169C9.46583 59.1161 10.5254 58.0615 11.8325 58.0615C13.1396 58.0615 14.1992 59.1161 14.1992 60.4169C14.1992 61.7177 13.1396 62.7723 11.8325 62.7723Z" fill="#405CFB"/>
<path d="M21.2935 4.71073C19.9864 4.71073 18.9268 3.6562 18.9268 2.35537C18.9268 1.05453 19.9864 0 21.2935 0C22.6006 0 23.6602 1.05453 23.6602 2.35537C23.6602 3.6562 22.6006 4.71073 21.2935 4.71073Z" fill="#405CFB"/>
<path d="M21.2935 15.6966C19.9864 15.6966 18.9268 14.642 18.9268 13.3412C18.9268 12.0404 19.9864 10.9858 21.2935 10.9858C22.6006 10.9858 23.6602 12.0404 23.6602 13.3412C23.6602 14.642 22.6006 15.6966 21.2935 15.6966Z" fill="#405CFB"/>
<path d="M21.2935 28.2527C19.9864 28.2527 18.9268 27.1982 18.9268 25.8974C18.9268 24.5965 19.9864 23.542 21.2935 23.542C22.6006 23.542 23.6602 24.5965 23.6602 25.8974C23.6602 27.1982 22.6006 28.2527 21.2935 28.2527Z" fill="#405CFB"/>
<path d="M21.2935 39.2356C19.9864 39.2356 18.9268 38.1811 18.9268 36.8803C18.9268 35.5794 19.9864 34.5249 21.2935 34.5249C22.6006 34.5249 23.6602 35.5794 23.6602 36.8803C23.6602 38.1811 22.6006 39.2356 21.2935 39.2356Z" fill="#405CFB"/>
<path d="M21.2935 50.2215C19.9864 50.2215 18.9268 49.1669 18.9268 47.8661C18.9268 46.5653 19.9864 45.5107 21.2935 45.5107C22.6006 45.5107 23.6602 46.5653 23.6602 47.8661C23.6602 49.1669 22.6006 50.2215 21.2935 50.2215Z" fill="#405CFB"/>
<path d="M21.2935 62.7723C19.9864 62.7723 18.9268 61.7177 18.9268 60.4169C18.9268 59.1161 19.9864 58.0615 21.2935 58.0615C22.6006 58.0615 23.6602 59.1161 23.6602 60.4169C23.6602 61.7177 22.6006 62.7723 21.2935 62.7723Z" fill="#405CFB"/>
<path d="M29.1743 4.71073C27.8672 4.71073 26.8076 3.6562 26.8076 2.35537C26.8076 1.05453 27.8672 0 29.1743 0C30.4814 0 31.541 1.05453 31.541 2.35537C31.541 3.6562 30.4814 4.71073 29.1743 4.71073Z" fill="#405CFB"/>
<path d="M29.1743 15.6966C27.8672 15.6966 26.8076 14.642 26.8076 13.3412C26.8076 12.0404 27.8672 10.9858 29.1743 10.9858C30.4814 10.9858 31.541 12.0404 31.541 13.3412C31.541 14.642 30.4814 15.6966 29.1743 15.6966Z" fill="#405CFB"/>
<path d="M29.1743 28.2527C27.8672 28.2527 26.8076 27.1982 26.8076 25.8974C26.8076 24.5965 27.8672 23.542 29.1743 23.542C30.4814 23.542 31.541 24.5965 31.541 25.8974C31.541 27.1982 30.4814 28.2527 29.1743 28.2527Z" fill="#405CFB"/>
<path d="M29.1743 39.2356C27.8672 39.2356 26.8076 38.1811 26.8076 36.8803C26.8076 35.5794 27.8672 34.5249 29.1743 34.5249C30.4814 34.5249 31.541 35.5794 31.541 36.8803C31.541 38.1811 30.4814 39.2356 29.1743 39.2356Z" fill="#405CFB"/>
<path d="M29.1743 50.2215C27.8672 50.2215 26.8076 49.1669 26.8076 47.8661C26.8076 46.5653 27.8672 45.5107 29.1743 45.5107C30.4814 45.5107 31.541 46.5653 31.541 47.8661C31.541 49.1669 30.4814 50.2215 29.1743 50.2215Z" fill="#405CFB"/>
<path d="M29.1743 62.7723C27.8672 62.7723 26.8076 61.7177 26.8076 60.4169C26.8076 59.1161 27.8672 58.0615 29.1743 58.0615C30.4814 58.0615 31.541 59.1161 31.541 60.4169C31.541 61.7177 30.4814 62.7723 29.1743 62.7723Z" fill="#405CFB"/>
<path d="M38.6372 4.71073C37.3301 4.71073 36.2705 3.6562 36.2705 2.35537C36.2705 1.05453 37.3301 0 38.6372 0C39.9443 0 41.0039 1.05453 41.0039 2.35537C41.0039 3.6562 39.9443 4.71073 38.6372 4.71073Z" fill="#405CFB"/>
<path d="M38.6372 15.6966C37.3301 15.6966 36.2705 14.642 36.2705 13.3412C36.2705 12.0404 37.3301 10.9858 38.6372 10.9858C39.9443 10.9858 41.0039 12.0404 41.0039 13.3412C41.0039 14.642 39.9443 15.6966 38.6372 15.6966Z" fill="#405CFB"/>
<path d="M38.6372 28.2527C37.3301 28.2527 36.2705 27.1982 36.2705 25.8974C36.2705 24.5965 37.3301 23.542 38.6372 23.542C39.9443 23.542 41.0039 24.5965 41.0039 25.8974C41.0039 27.1982 39.9443 28.2527 38.6372 28.2527Z" fill="#405CFB"/>
<path d="M38.6372 39.2356C37.3301 39.2356 36.2705 38.1811 36.2705 36.8803C36.2705 35.5794 37.3301 34.5249 38.6372 34.5249C39.9443 34.5249 41.0039 35.5794 41.0039 36.8803C41.0039 38.1811 39.9443 39.2356 38.6372 39.2356Z" fill="#405CFB"/>
<path d="M38.6372 50.2215C37.3301 50.2215 36.2705 49.1669 36.2705 47.8661C36.2705 46.5653 37.3301 45.5107 38.6372 45.5107C39.9443 45.5107 41.0039 46.5653 41.0039 47.8661C41.0039 49.1669 39.9443 50.2215 38.6372 50.2215Z" fill="#405CFB"/>
<path d="M38.6372 62.7723C37.3301 62.7723 36.2705 61.7177 36.2705 60.4169C36.2705 59.1161 37.3301 58.0615 38.6372 58.0615C39.9443 58.0615 41.0039 59.1161 41.0039 60.4169C41.0039 61.7177 39.9443 62.7723 38.6372 62.7723Z" fill="#405CFB"/>
<path d="M46.5181 4.71073C45.211 4.71073 44.1514 3.6562 44.1514 2.35537C44.1514 1.05453 45.211 0 46.5181 0C47.8252 0 48.8848 1.05453 48.8848 2.35537C48.8848 3.6562 47.8252 4.71073 46.5181 4.71073Z" fill="#405CFB"/>
<path d="M46.5181 15.6966C45.211 15.6966 44.1514 14.642 44.1514 13.3412C44.1514 12.0404 45.211 10.9858 46.5181 10.9858C47.8252 10.9858 48.8848 12.0404 48.8848 13.3412C48.8848 14.642 47.8252 15.6966 46.5181 15.6966Z" fill="#405CFB"/>
<path d="M46.5181 28.2527C45.211 28.2527 44.1514 27.1982 44.1514 25.8974C44.1514 24.5965 45.211 23.542 46.5181 23.542C47.8252 23.542 48.8848 24.5965 48.8848 25.8974C48.8848 27.1982 47.8252 28.2527 46.5181 28.2527Z" fill="#405CFB"/>
<path d="M46.5181 39.2356C45.211 39.2356 44.1514 38.1811 44.1514 36.8803C44.1514 35.5794 45.211 34.5249 46.5181 34.5249C47.8252 34.5249 48.8848 35.5794 48.8848 36.8803C48.8848 38.1811 47.8252 39.2356 46.5181 39.2356Z" fill="#405CFB"/>
<path d="M46.5181 50.2215C45.211 50.2215 44.1514 49.1669 44.1514 47.8661C44.1514 46.5653 45.211 45.5107 46.5181 45.5107C47.8252 45.5107 48.8848 46.5653 48.8848 47.8661C48.8848 49.1669 47.8252 50.2215 46.5181 50.2215Z" fill="#405CFB"/>
<path d="M46.5181 62.772C45.211 62.772 44.1514 61.7175 44.1514 60.4166C44.1514 59.1158 45.211 58.0613 46.5181 58.0613C47.8252 58.0613 48.8848 59.1158 48.8848 60.4166C48.8848 61.7175 47.8252 62.772 46.5181 62.772Z" fill="#405CFB"/>
<path d="M55.9771 4.71073C54.67 4.71073 53.6104 3.6562 53.6104 2.35537C53.6104 1.05453 54.67 0 55.9771 0C57.2841 0 58.3438 1.05453 58.3438 2.35537C58.3438 3.6562 57.2841 4.71073 55.9771 4.71073Z" fill="#405CFB"/>
<path d="M55.9771 15.6966C54.67 15.6966 53.6104 14.642 53.6104 13.3412C53.6104 12.0404 54.67 10.9858 55.9771 10.9858C57.2841 10.9858 58.3438 12.0404 58.3438 13.3412C58.3438 14.642 57.2841 15.6966 55.9771 15.6966Z" fill="#405CFB"/>
<path d="M55.9771 28.2527C54.67 28.2527 53.6104 27.1982 53.6104 25.8974C53.6104 24.5965 54.67 23.542 55.9771 23.542C57.2841 23.542 58.3438 24.5965 58.3438 25.8974C58.3438 27.1982 57.2841 28.2527 55.9771 28.2527Z" fill="#405CFB"/>
<path d="M55.9771 39.2356C54.67 39.2356 53.6104 38.1811 53.6104 36.8803C53.6104 35.5794 54.67 34.5249 55.9771 34.5249C57.2841 34.5249 58.3438 35.5794 58.3438 36.8803C58.3438 38.1811 57.2841 39.2356 55.9771 39.2356Z" fill="#405CFB"/>
<path d="M55.9771 50.2215C54.67 50.2215 53.6104 49.1669 53.6104 47.8661C53.6104 46.5653 54.67 45.5107 55.9771 45.5107C57.2841 45.5107 58.3438 46.5653 58.3438 47.8661C58.3438 49.1669 57.2841 50.2215 55.9771 50.2215Z" fill="#405CFB"/>
<path d="M55.9771 62.772C54.67 62.772 53.6104 61.7175 53.6104 60.4166C53.6104 59.1158 54.67 58.0613 55.9771 58.0613C57.2841 58.0613 58.3438 59.1158 58.3438 60.4166C58.3438 61.7175 57.2841 62.772 55.9771 62.772Z" fill="#405CFB"/>
<path d="M63.8657 4.71073C62.5586 4.71073 61.499 3.6562 61.499 2.35537C61.499 1.05453 62.5586 0 63.8657 0C65.1728 0 66.2324 1.05453 66.2324 2.35537C66.2324 3.6562 65.1728 4.71073 63.8657 4.71073Z" fill="#405CFB"/>
<path d="M63.8657 15.6966C62.5586 15.6966 61.499 14.642 61.499 13.3412C61.499 12.0404 62.5586 10.9858 63.8657 10.9858C65.1728 10.9858 66.2324 12.0404 66.2324 13.3412C66.2324 14.642 65.1728 15.6966 63.8657 15.6966Z" fill="#405CFB"/>
<path d="M63.8657 28.2527C62.5586 28.2527 61.499 27.1982 61.499 25.8974C61.499 24.5965 62.5586 23.542 63.8657 23.542C65.1728 23.542 66.2324 24.5965 66.2324 25.8974C66.2324 27.1982 65.1728 28.2527 63.8657 28.2527Z" fill="#405CFB"/>
<path d="M63.8657 39.2356C62.5586 39.2356 61.499 38.1811 61.499 36.8803C61.499 35.5794 62.5586 34.5249 63.8657 34.5249C65.1728 34.5249 66.2324 35.5794 66.2324 36.8803C66.2324 38.1811 65.1728 39.2356 63.8657 39.2356Z" fill="#405CFB"/>
<path d="M63.8657 50.2215C62.5586 50.2215 61.499 49.1669 61.499 47.8661C61.499 46.5653 62.5586 45.5107 63.8657 45.5107C65.1728 45.5107 66.2324 46.5653 66.2324 47.8661C66.2324 49.1669 65.1728 50.2215 63.8657 50.2215Z" fill="#405CFB"/>
<path d="M63.8657 62.7723C62.5586 62.7723 61.499 61.7177 61.499 60.4169C61.499 59.1161 62.5586 58.0615 63.8657 58.0615C65.1728 58.0615 66.2324 59.1161 66.2324 60.4169C66.2324 61.7177 65.1728 62.7723 63.8657 62.7723Z" fill="#405CFB"/>
<path d="M73.3286 4.71073C72.0215 4.71073 70.9619 3.6562 70.9619 2.35537C70.9619 1.05453 72.0215 0 73.3286 0C74.6357 0 75.6953 1.05453 75.6953 2.35537C75.6953 3.6562 74.6357 4.71073 73.3286 4.71073Z" fill="#405CFB"/>
<path d="M73.3267 15.6966C72.0196 15.6966 70.96 14.642 70.96 13.3412C70.96 12.0404 72.0196 10.9858 73.3267 10.9858C74.6338 10.9858 75.6934 12.0404 75.6934 13.3412C75.6934 14.642 74.6338 15.6966 73.3267 15.6966Z" fill="#405CFB"/>
<path d="M73.3286 28.2527C72.0215 28.2527 70.9619 27.1982 70.9619 25.8974C70.9619 24.5965 72.0215 23.542 73.3286 23.542C74.6357 23.542 75.6953 24.5965 75.6953 25.8974C75.6953 27.1982 74.6357 28.2527 73.3286 28.2527Z" fill="#405CFB"/>
<path d="M73.3267 39.2356C72.0196 39.2356 70.96 38.1811 70.96 36.8803C70.96 35.5794 72.0196 34.5249 73.3267 34.5249C74.6338 34.5249 75.6934 35.5794 75.6934 36.8803C75.6934 38.1811 74.6338 39.2356 73.3267 39.2356Z" fill="#405CFB"/>
<path d="M73.3286 50.2215C72.0215 50.2215 70.9619 49.1669 70.9619 47.8661C70.9619 46.5653 72.0215 45.5107 73.3286 45.5107C74.6357 45.5107 75.6953 46.5653 75.6953 47.8661C75.6953 49.1669 74.6357 50.2215 73.3286 50.2215Z" fill="#405CFB"/>
<path d="M73.3286 62.7723C72.0215 62.7723 70.9619 61.7177 70.9619 60.4169C70.9619 59.1161 72.0215 58.0615 73.3286 58.0615C74.6357 58.0615 75.6953 59.1161 75.6953 60.4169C75.6953 61.7177 74.6357 62.7723 73.3286 62.7723Z" fill="#405CFB"/>
<path d="M82.7857 4.71342C81.4786 4.71342 80.419 3.65888 80.419 2.35805C80.419 1.05722 81.4786 0.00268555 82.7857 0.00268555C84.0927 0.00268555 85.1523 1.05722 85.1523 2.35805C85.1523 3.65888 84.0927 4.71342 82.7857 4.71342Z" fill="#405CFB"/>
<path d="M82.7876 15.6966C81.4805 15.6966 80.4209 14.642 80.4209 13.3412C80.4209 12.0404 81.4805 10.9858 82.7876 10.9858C84.0947 10.9858 85.1543 12.0404 85.1543 13.3412C85.1543 14.642 84.0947 15.6966 82.7876 15.6966Z" fill="#405CFB"/>
<path d="M82.7876 28.2527C81.4805 28.2527 80.4209 27.1982 80.4209 25.8974C80.4209 24.5965 81.4805 23.542 82.7876 23.542C84.0947 23.542 85.1543 24.5965 85.1543 25.8974C85.1543 27.1982 84.0947 28.2527 82.7876 28.2527Z" fill="#405CFB"/>
<path d="M82.7876 39.2356C81.4805 39.2356 80.4209 38.1811 80.4209 36.8803C80.4209 35.5794 81.4805 34.5249 82.7876 34.5249C84.0947 34.5249 85.1543 35.5794 85.1543 36.8803C85.1543 38.1811 84.0947 39.2356 82.7876 39.2356Z" fill="#405CFB"/>
<path d="M82.7876 50.2215C81.4805 50.2215 80.4209 49.1669 80.4209 47.8661C80.4209 46.5653 81.4805 45.5107 82.7876 45.5107C84.0947 45.5107 85.1543 46.5653 85.1543 47.8661C85.1543 49.1669 84.0947 50.2215 82.7876 50.2215Z" fill="#405CFB"/>
<path d="M82.7876 62.7723C81.4805 62.7723 80.4209 61.7177 80.4209 60.4169C80.4209 59.1161 81.4805 58.0615 82.7876 58.0615C84.0947 58.0615 85.1543 59.1161 85.1543 60.4169C85.1543 61.7177 84.0947 62.7723 82.7876 62.7723Z" fill="#405CFB"/>
</svg>
