<svg width="91" height="131" viewBox="0 0 91 131" fill="none" xmlns="http://www.w3.org/2000/svg">
<path d="M93.6725 45.8899C95.5842 45.8899 97.134 44.3475 97.134 42.4449C97.134 40.5424 95.5842 39 93.6725 39C91.7607 39 90.2109 40.5424 90.2109 42.4449C90.2109 44.3475 91.7607 45.8899 93.6725 45.8899Z" fill="#02D8FC"/>
<path d="M93.6725 61.9553C95.5842 61.9553 97.134 60.413 97.134 58.5104C97.134 56.6078 95.5842 55.0654 93.6725 55.0654C91.7607 55.0654 90.2109 56.6078 90.2109 58.5104C90.2109 60.413 91.7607 61.9553 93.6725 61.9553Z" fill="#02D8FC"/>
<path d="M93.6725 80.322C95.5842 80.322 97.134 78.7797 97.134 76.8771C97.134 74.9745 95.5842 73.4321 93.6725 73.4321C91.7607 73.4321 90.2109 74.9745 90.2109 76.8771C90.2109 78.7797 91.7607 80.322 93.6725 80.322Z" fill="#02D8FC"/>
<path d="M93.6725 96.3874C95.5842 96.3874 97.134 94.8451 97.134 92.9425C97.134 91.0399 95.5842 89.4976 93.6725 89.4976C91.7607 89.4976 90.2109 91.0399 90.2109 92.9425C90.2109 94.8451 91.7607 96.3874 93.6725 96.3874Z" fill="#02D8FC"/>
<path d="M93.6725 112.453C95.5842 112.453 97.134 110.911 97.134 109.008C97.134 107.106 95.5842 105.563 93.6725 105.563C91.7607 105.563 90.2109 107.106 90.2109 109.008C90.2109 110.911 91.7607 112.453 93.6725 112.453Z" fill="#02D8FC"/>
<path d="M93.6725 130.811C95.5842 130.811 97.134 129.268 97.134 127.366C97.134 125.463 95.5842 123.921 93.6725 123.921C91.7607 123.921 90.2109 125.463 90.2109 127.366C90.2109 129.268 91.7607 130.811 93.6725 130.811Z" fill="#02D8FC"/>
<path d="M82.1373 45.8899C84.049 45.8899 85.5988 44.3475 85.5988 42.4449C85.5988 40.5424 84.049 39 82.1373 39C80.2255 39 78.6758 40.5424 78.6758 42.4449C78.6758 44.3475 80.2255 45.8899 82.1373 45.8899Z" fill="#02D8FC"/>
<path d="M82.1373 61.9553C84.049 61.9553 85.5988 60.413 85.5988 58.5104C85.5988 56.6078 84.049 55.0654 82.1373 55.0654C80.2255 55.0654 78.6758 56.6078 78.6758 58.5104C78.6758 60.413 80.2255 61.9553 82.1373 61.9553Z" fill="#02D8FC"/>
<path d="M82.1373 80.322C84.049 80.322 85.5988 78.7797 85.5988 76.8771C85.5988 74.9745 84.049 73.4321 82.1373 73.4321C80.2255 73.4321 78.6758 74.9745 78.6758 76.8771C78.6758 78.7797 80.2255 80.322 82.1373 80.322Z" fill="#02D8FC"/>
<path d="M82.1373 96.3874C84.049 96.3874 85.5988 94.8451 85.5988 92.9425C85.5988 91.0399 84.049 89.4976 82.1373 89.4976C80.2255 89.4976 78.6758 91.0399 78.6758 92.9425C78.6758 94.8451 80.2255 96.3874 82.1373 96.3874Z" fill="#02D8FC"/>
<path d="M82.1373 112.453C84.049 112.453 85.5988 110.911 85.5988 109.008C85.5988 107.106 84.049 105.563 82.1373 105.563C80.2255 105.563 78.6758 107.106 78.6758 109.008C78.6758 110.911 80.2255 112.453 82.1373 112.453Z" fill="#02D8FC"/>
<path d="M82.1373 130.811C84.049 130.811 85.5988 129.268 85.5988 127.366C85.5988 125.463 84.049 123.921 82.1373 123.921C80.2255 123.921 78.6758 125.463 78.6758 127.366C78.6758 129.268 80.2255 130.811 82.1373 130.811Z" fill="#02D8FC"/>
<path d="M68.2994 45.8899C70.2111 45.8899 71.7609 44.3475 71.7609 42.4449C71.7609 40.5424 70.2111 39 68.2994 39C66.3877 39 64.8379 40.5424 64.8379 42.4449C64.8379 44.3475 66.3877 45.8899 68.2994 45.8899Z" fill="#02D8FC"/>
<path d="M68.2994 61.9553C70.2111 61.9553 71.7609 60.413 71.7609 58.5104C71.7609 56.6078 70.2111 55.0654 68.2994 55.0654C66.3877 55.0654 64.8379 56.6078 64.8379 58.5104C64.8379 60.413 66.3877 61.9553 68.2994 61.9553Z" fill="#02D8FC"/>
<path d="M68.2994 80.322C70.2111 80.322 71.7609 78.7797 71.7609 76.8771C71.7609 74.9745 70.2111 73.4321 68.2994 73.4321C66.3877 73.4321 64.8379 74.9745 64.8379 76.8771C64.8379 78.7797 66.3877 80.322 68.2994 80.322Z" fill="#02D8FC"/>
<path d="M68.2994 96.3874C70.2111 96.3874 71.7609 94.8451 71.7609 92.9425C71.7609 91.0399 70.2111 89.4976 68.2994 89.4976C66.3877 89.4976 64.8379 91.0399 64.8379 92.9425C64.8379 94.8451 66.3877 96.3874 68.2994 96.3874Z" fill="#02D8FC"/>
<path d="M68.2994 112.453C70.2111 112.453 71.7609 110.911 71.7609 109.008C71.7609 107.106 70.2111 105.563 68.2994 105.563C66.3877 105.563 64.8379 107.106 64.8379 109.008C64.8379 110.911 66.3877 112.453 68.2994 112.453Z" fill="#02D8FC"/>
<path d="M68.2994 130.811C70.2111 130.811 71.7609 129.268 71.7609 127.366C71.7609 125.463 70.2111 123.921 68.2994 123.921C66.3877 123.921 64.8379 125.463 64.8379 127.366C64.8379 129.268 66.3877 130.811 68.2994 130.811Z" fill="#02D8FC"/>
<path d="M54.4615 45.8938C56.3732 45.8938 57.923 44.3514 57.923 42.4489C57.923 40.5463 56.3732 39.0039 54.4615 39.0039C52.5498 39.0039 51 40.5463 51 42.4489C51 44.3514 52.5498 45.8938 54.4615 45.8938Z" fill="#02D8FC"/>
<path d="M54.4615 61.9553C56.3732 61.9553 57.923 60.413 57.923 58.5104C57.923 56.6078 56.3732 55.0654 54.4615 55.0654C52.5498 55.0654 51 56.6078 51 58.5104C51 60.413 52.5498 61.9553 54.4615 61.9553Z" fill="#02D8FC"/>
<path d="M54.4615 80.322C56.3732 80.322 57.923 78.7797 57.923 76.8771C57.923 74.9745 56.3732 73.4321 54.4615 73.4321C52.5498 73.4321 51 74.9745 51 76.8771C51 78.7797 52.5498 80.322 54.4615 80.322Z" fill="#02D8FC"/>
<path d="M54.4615 96.3874C56.3732 96.3874 57.923 94.8451 57.923 92.9425C57.923 91.0399 56.3732 89.4976 54.4615 89.4976C52.5498 89.4976 51 91.0399 51 92.9425C51 94.8451 52.5498 96.3874 54.4615 96.3874Z" fill="#02D8FC"/>
<path d="M54.4615 112.453C56.3732 112.453 57.923 110.911 57.923 109.008C57.923 107.106 56.3732 105.563 54.4615 105.563C52.5498 105.563 51 107.106 51 109.008C51 110.911 52.5498 112.453 54.4615 112.453Z" fill="#02D8FC"/>
<path d="M54.4615 130.811C56.3732 130.811 57.923 129.268 57.923 127.366C57.923 125.463 56.3732 123.921 54.4615 123.921C52.5498 123.921 51 125.463 51 127.366C51 129.268 52.5498 130.811 54.4615 130.811Z" fill="#02D8FC"/>
<path d="M39.3395 60.2534L57.7649 39.3944L20.9141 39.3945L39.3395 60.2534Z" fill="#162740"/>
<path d="M39.3395 39.2847L57.7649 18.4257L20.9141 18.4257L39.3395 39.2847Z" fill="#162740"/>
</svg>
