<svg width="98" height="73" viewBox="0 0 98 73" fill="none" xmlns="http://www.w3.org/2000/svg">
<path d="M95.2081 5.41742C96.7112 5.41742 97.9298 4.20469 97.9298 2.70871C97.9298 1.21273 96.7112 0 95.2081 0C93.7049 0 92.4863 1.21273 92.4863 2.70871C92.4863 4.20469 93.7049 5.41742 95.2081 5.41742Z" fill="#5BEBC1"/>
<path d="M84.3213 5.41742C85.8245 5.41742 87.0431 4.20469 87.0431 2.70871C87.0431 1.21273 85.8245 0 84.3213 0C82.8182 0 81.5996 1.21273 81.5996 2.70871C81.5996 4.20469 82.8182 5.41742 84.3213 5.41742Z" fill="#5BEBC1"/>
<path d="M95.2081 18.0495C96.7112 18.0495 97.9298 16.8368 97.9298 15.3408C97.9298 13.8448 96.7112 12.6321 95.2081 12.6321C93.7049 12.6321 92.4863 13.8448 92.4863 15.3408C92.4863 16.8368 93.7049 18.0495 95.2081 18.0495Z" fill="#5BEBC1"/>
<path d="M84.3213 18.0495C85.8245 18.0495 87.0431 16.8368 87.0431 15.3408C87.0431 13.8448 85.8245 12.6321 84.3213 12.6321C82.8182 12.6321 81.5996 13.8448 81.5996 15.3408C81.5996 16.8368 82.8182 18.0495 84.3213 18.0495Z" fill="#5BEBC1"/>
<path d="M95.2081 32.4909C96.7112 32.4909 97.9298 31.2782 97.9298 29.7822C97.9298 28.2862 96.7112 27.0735 95.2081 27.0735C93.7049 27.0735 92.4863 28.2862 92.4863 29.7822C92.4863 31.2782 93.7049 32.4909 95.2081 32.4909Z" fill="#5BEBC1"/>
<path d="M84.3213 32.4909C85.8245 32.4909 87.0431 31.2782 87.0431 29.7822C87.0431 28.2862 85.8245 27.0735 84.3213 27.0735C82.8182 27.0735 81.5996 28.2862 81.5996 29.7822C81.5996 31.2782 82.8182 32.4909 84.3213 32.4909Z" fill="#5BEBC1"/>
<path d="M95.2081 45.123C96.7112 45.123 97.9298 43.9103 97.9298 42.4143C97.9298 40.9183 96.7112 39.7056 95.2081 39.7056C93.7049 39.7056 92.4863 40.9183 92.4863 42.4143C92.4863 43.9103 93.7049 45.123 95.2081 45.123Z" fill="#5BEBC1"/>
<path d="M84.3213 45.123C85.8245 45.123 87.0431 43.9103 87.0431 42.4143C87.0431 40.9183 85.8245 39.7056 84.3213 39.7056C82.8182 39.7056 81.5996 40.9183 81.5996 42.4143C81.5996 43.9103 82.8182 45.123 84.3213 45.123Z" fill="#5BEBC1"/>
<path d="M95.2081 57.7555C96.7112 57.7555 97.9298 56.5428 97.9298 55.0468C97.9298 53.5509 96.7112 52.3381 95.2081 52.3381C93.7049 52.3381 92.4863 53.5509 92.4863 55.0468C92.4863 56.5428 93.7049 57.7555 95.2081 57.7555Z" fill="#5BEBC1"/>
<path d="M84.3213 57.7555C85.8245 57.7555 87.0431 56.5428 87.0431 55.0468C87.0431 53.5509 85.8245 52.3381 84.3213 52.3381C82.8182 52.3381 81.5996 53.5509 81.5996 55.0468C81.5996 56.5428 82.8182 57.7555 84.3213 57.7555Z" fill="#5BEBC1"/>
<path d="M95.2081 72.1894C96.7112 72.1894 97.9298 70.9767 97.9298 69.4807C97.9298 67.9847 96.7112 66.772 95.2081 66.772C93.7049 66.772 92.4863 67.9847 92.4863 69.4807C92.4863 70.9767 93.7049 72.1894 95.2081 72.1894Z" fill="#5BEBC1"/>
<path d="M84.3213 72.1894C85.8245 72.1894 87.0431 70.9767 87.0431 69.4807C87.0431 67.9847 85.8245 66.772 84.3213 66.772C82.8182 66.772 81.5996 67.9847 81.5996 69.4807C81.5996 70.9767 82.8182 72.1894 84.3213 72.1894Z" fill="#5BEBC1"/>
<path d="M73.4405 5.41742C74.9436 5.41742 76.1622 4.20469 76.1622 2.70871C76.1622 1.21273 74.9436 0 73.4405 0C71.9373 0 70.7188 1.21273 70.7188 2.70871C70.7188 4.20469 71.9373 5.41742 73.4405 5.41742Z" fill="#5BEBC1"/>
<path d="M73.4405 18.0495C74.9436 18.0495 76.1622 16.8368 76.1622 15.3408C76.1622 13.8448 74.9436 12.6321 73.4405 12.6321C71.9373 12.6321 70.7188 13.8448 70.7188 15.3408C70.7188 16.8368 71.9373 18.0495 73.4405 18.0495Z" fill="#5BEBC1"/>
<path d="M73.4405 32.4909C74.9436 32.4909 76.1622 31.2782 76.1622 29.7822C76.1622 28.2862 74.9436 27.0735 73.4405 27.0735C71.9373 27.0735 70.7188 28.2862 70.7188 29.7822C70.7188 31.2782 71.9373 32.4909 73.4405 32.4909Z" fill="#5BEBC1"/>
<path d="M73.4405 45.123C74.9436 45.123 76.1622 43.9103 76.1622 42.4143C76.1622 40.9183 74.9436 39.7056 73.4405 39.7056C71.9373 39.7056 70.7188 40.9183 70.7188 42.4143C70.7188 43.9103 71.9373 45.123 73.4405 45.123Z" fill="#5BEBC1"/>
<path d="M73.4405 57.7555C74.9436 57.7555 76.1622 56.5428 76.1622 55.0468C76.1622 53.5509 74.9436 52.3381 73.4405 52.3381C71.9373 52.3381 70.7188 53.5509 70.7188 55.0468C70.7188 56.5428 71.9373 57.7555 73.4405 57.7555Z" fill="#5BEBC1"/>
<path d="M73.4405 72.1894C74.9436 72.1894 76.1622 70.9767 76.1622 69.4807C76.1622 67.9847 74.9436 66.772 73.4405 66.772C71.9373 66.772 70.7188 67.9847 70.7188 69.4807C70.7188 70.9767 71.9373 72.1894 73.4405 72.1894Z" fill="#5BEBC1"/>
<path d="M64.378 5.41742C65.8812 5.41742 67.0997 4.20469 67.0997 2.70871C67.0997 1.21273 65.8812 0 64.378 0C62.8748 0 61.6562 1.21273 61.6562 2.70871C61.6562 4.20469 62.8748 5.41742 64.378 5.41742Z" fill="#5BEBC1"/>
<path d="M64.378 18.0495C65.8812 18.0495 67.0997 16.8368 67.0997 15.3408C67.0997 13.8448 65.8812 12.6321 64.378 12.6321C62.8748 12.6321 61.6562 13.8448 61.6562 15.3408C61.6562 16.8368 62.8748 18.0495 64.378 18.0495Z" fill="#5BEBC1"/>
<path d="M64.378 32.4909C65.8812 32.4909 67.0997 31.2782 67.0997 29.7822C67.0997 28.2862 65.8812 27.0735 64.378 27.0735C62.8748 27.0735 61.6562 28.2862 61.6562 29.7822C61.6562 31.2782 62.8748 32.4909 64.378 32.4909Z" fill="#5BEBC1"/>
<path d="M64.378 45.123C65.8812 45.123 67.0997 43.9103 67.0997 42.4143C67.0997 40.9183 65.8812 39.7056 64.378 39.7056C62.8748 39.7056 61.6562 40.9183 61.6562 42.4143C61.6562 43.9103 62.8748 45.123 64.378 45.123Z" fill="#5BEBC1"/>
<path d="M64.378 57.7555C65.8812 57.7555 67.0997 56.5428 67.0997 55.0468C67.0997 53.5509 65.8812 52.3381 64.378 52.3381C62.8748 52.3381 61.6562 53.5509 61.6562 55.0468C61.6562 56.5428 62.8748 57.7555 64.378 57.7555Z" fill="#5BEBC1"/>
<path d="M64.378 72.1894C65.8812 72.1894 67.0997 70.9767 67.0997 69.4807C67.0997 67.9847 65.8812 66.772 64.378 66.772C62.8748 66.772 61.6562 67.9847 61.6562 69.4807C61.6562 70.9767 62.8748 72.1894 64.378 72.1894Z" fill="#5BEBC1"/>
<path d="M53.4971 5.41742C55.0003 5.41742 56.2189 4.20469 56.2189 2.70871C56.2189 1.21273 55.0003 0 53.4971 0C51.9939 0 50.7754 1.21273 50.7754 2.70871C50.7754 4.20469 51.9939 5.41742 53.4971 5.41742Z" fill="#5BEBC1"/>
<path d="M53.4971 18.0495C55.0003 18.0495 56.2189 16.8368 56.2189 15.3408C56.2189 13.8448 55.0003 12.6321 53.4971 12.6321C51.9939 12.6321 50.7754 13.8448 50.7754 15.3408C50.7754 16.8368 51.9939 18.0495 53.4971 18.0495Z" fill="#5BEBC1"/>
<path d="M53.4971 32.4909C55.0003 32.4909 56.2189 31.2782 56.2189 29.7822C56.2189 28.2862 55.0003 27.0735 53.4971 27.0735C51.9939 27.0735 50.7754 28.2862 50.7754 29.7822C50.7754 31.2782 51.9939 32.4909 53.4971 32.4909Z" fill="#5BEBC1"/>
<path d="M53.4971 45.123C55.0003 45.123 56.2189 43.9103 56.2189 42.4143C56.2189 40.9183 55.0003 39.7056 53.4971 39.7056C51.9939 39.7056 50.7754 40.9183 50.7754 42.4143C50.7754 43.9103 51.9939 45.123 53.4971 45.123Z" fill="#5BEBC1"/>
<path d="M53.4971 57.7555C55.0003 57.7555 56.2189 56.5428 56.2189 55.0468C56.2189 53.5509 55.0003 52.3381 53.4971 52.3381C51.9939 52.3381 50.7754 53.5509 50.7754 55.0468C50.7754 56.5428 51.9939 57.7555 53.4971 57.7555Z" fill="#5BEBC1"/>
<path d="M53.4971 72.1894C55.0003 72.1894 56.2189 70.9767 56.2189 69.4807C56.2189 67.9847 55.0003 66.772 53.4971 66.772C51.9939 66.772 50.7754 67.9847 50.7754 69.4807C50.7754 70.9767 51.9939 72.1894 53.4971 72.1894Z" fill="#5BEBC1"/>
<path d="M44.4327 5.41742C45.9358 5.41742 47.1544 4.20469 47.1544 2.70871C47.1544 1.21273 45.9358 0 44.4327 0C42.9295 0 41.7109 1.21273 41.7109 2.70871C41.7109 4.20469 42.9295 5.41742 44.4327 5.41742Z" fill="#5BEBC1"/>
<path d="M44.4327 18.0495C45.9358 18.0495 47.1544 16.8368 47.1544 15.3408C47.1544 13.8448 45.9358 12.6321 44.4327 12.6321C42.9295 12.6321 41.7109 13.8448 41.7109 15.3408C41.7109 16.8368 42.9295 18.0495 44.4327 18.0495Z" fill="#5BEBC1"/>
<path d="M44.4327 32.4909C45.9358 32.4909 47.1544 31.2782 47.1544 29.7822C47.1544 28.2862 45.9358 27.0735 44.4327 27.0735C42.9295 27.0735 41.7109 28.2862 41.7109 29.7822C41.7109 31.2782 42.9295 32.4909 44.4327 32.4909Z" fill="#5BEBC1"/>
<path d="M44.4327 45.123C45.9358 45.123 47.1544 43.9103 47.1544 42.4143C47.1544 40.9183 45.9358 39.7056 44.4327 39.7056C42.9295 39.7056 41.7109 40.9183 41.7109 42.4143C41.7109 43.9103 42.9295 45.123 44.4327 45.123Z" fill="#5BEBC1"/>
<path d="M44.4327 57.7555C45.9358 57.7555 47.1544 56.5428 47.1544 55.0468C47.1544 53.5509 45.9358 52.3381 44.4327 52.3381C42.9295 52.3381 41.7109 53.5509 41.7109 55.0468C41.7109 56.5428 42.9295 57.7555 44.4327 57.7555Z" fill="#5BEBC1"/>
<path d="M44.4327 72.1894C45.9358 72.1894 47.1544 70.9767 47.1544 69.4807C47.1544 67.9847 45.9358 66.772 44.4327 66.772C42.9295 66.772 41.7109 67.9847 41.7109 69.4807C41.7109 70.9767 42.9295 72.1894 44.4327 72.1894Z" fill="#5BEBC1"/>
<path d="M33.5538 5.41742C35.0569 5.41742 36.2755 4.20469 36.2755 2.70871C36.2755 1.21273 35.0569 0 33.5538 0C32.0506 0 30.832 1.21273 30.832 2.70871C30.832 4.20469 32.0506 5.41742 33.5538 5.41742Z" fill="#5BEBC1"/>
<path d="M33.5538 18.0495C35.0569 18.0495 36.2755 16.8368 36.2755 15.3408C36.2755 13.8448 35.0569 12.6321 33.5538 12.6321C32.0506 12.6321 30.832 13.8448 30.832 15.3408C30.832 16.8368 32.0506 18.0495 33.5538 18.0495Z" fill="#5BEBC1"/>
<path d="M33.5538 32.4909C35.0569 32.4909 36.2755 31.2782 36.2755 29.7822C36.2755 28.2862 35.0569 27.0735 33.5538 27.0735C32.0506 27.0735 30.832 28.2862 30.832 29.7822C30.832 31.2782 32.0506 32.4909 33.5538 32.4909Z" fill="#5BEBC1"/>
<path d="M33.5538 45.123C35.0569 45.123 36.2755 43.9103 36.2755 42.4143C36.2755 40.9183 35.0569 39.7056 33.5538 39.7056C32.0506 39.7056 30.832 40.9183 30.832 42.4143C30.832 43.9103 32.0506 45.123 33.5538 45.123Z" fill="#5BEBC1"/>
<path d="M33.5538 57.7555C35.0569 57.7555 36.2755 56.5428 36.2755 55.0468C36.2755 53.5509 35.0569 52.3381 33.5538 52.3381C32.0506 52.3381 30.832 53.5509 30.832 55.0468C30.832 56.5428 32.0506 57.7555 33.5538 57.7555Z" fill="#5BEBC1"/>
<path d="M33.5538 72.1894C35.0569 72.1894 36.2755 70.9767 36.2755 69.4807C36.2755 67.9847 35.0569 66.772 33.5538 66.772C32.0506 66.772 30.832 67.9847 30.832 69.4807C30.832 70.9767 32.0506 72.1894 33.5538 72.1894Z" fill="#5BEBC1"/>
<path d="M24.4825 5.41742C25.9856 5.41742 27.2042 4.20469 27.2042 2.70871C27.2042 1.21273 25.9856 0 24.4825 0C22.9793 0 21.7607 1.21273 21.7607 2.70871C21.7607 4.20469 22.9793 5.41742 24.4825 5.41742Z" fill="#5BEBC1"/>
<path d="M24.4825 18.0495C25.9856 18.0495 27.2042 16.8368 27.2042 15.3408C27.2042 13.8448 25.9856 12.6321 24.4825 12.6321C22.9793 12.6321 21.7607 13.8448 21.7607 15.3408C21.7607 16.8368 22.9793 18.0495 24.4825 18.0495Z" fill="#5BEBC1"/>
<path d="M24.4825 32.4909C25.9856 32.4909 27.2042 31.2782 27.2042 29.7822C27.2042 28.2862 25.9856 27.0735 24.4825 27.0735C22.9793 27.0735 21.7607 28.2862 21.7607 29.7822C21.7607 31.2782 22.9793 32.4909 24.4825 32.4909Z" fill="#5BEBC1"/>
<path d="M24.4825 45.123C25.9856 45.123 27.2042 43.9103 27.2042 42.4143C27.2042 40.9183 25.9856 39.7056 24.4825 39.7056C22.9793 39.7056 21.7607 40.9183 21.7607 42.4143C21.7607 43.9103 22.9793 45.123 24.4825 45.123Z" fill="#5BEBC1"/>
<path d="M24.4825 57.7555C25.9856 57.7555 27.2042 56.5428 27.2042 55.0468C27.2042 53.5509 25.9856 52.3381 24.4825 52.3381C22.9793 52.3381 21.7607 53.5509 21.7607 55.0468C21.7607 56.5428 22.9793 57.7555 24.4825 57.7555Z" fill="#5BEBC1"/>
<path d="M24.4825 72.1894C25.9856 72.1894 27.2042 70.9767 27.2042 69.4807C27.2042 67.9847 25.9856 66.772 24.4825 66.772C22.9793 66.772 21.7607 67.9847 21.7607 69.4807C21.7607 70.9767 22.9793 72.1894 24.4825 72.1894Z" fill="#5BEBC1"/>
<path d="M13.6026 5.41742C15.1058 5.41742 16.3243 4.20469 16.3243 2.70871C16.3243 1.21273 15.1058 0 13.6026 0C12.0994 0 10.8809 1.21273 10.8809 2.70871C10.8809 4.20469 12.0994 5.41742 13.6026 5.41742Z" fill="#5BEBC1"/>
<path d="M13.6026 18.0495C15.1058 18.0495 16.3243 16.8368 16.3243 15.3408C16.3243 13.8448 15.1058 12.6321 13.6026 12.6321C12.0994 12.6321 10.8809 13.8448 10.8809 15.3408C10.8809 16.8368 12.0994 18.0495 13.6026 18.0495Z" fill="#5BEBC1"/>
<path d="M13.6026 32.4909C15.1058 32.4909 16.3243 31.2782 16.3243 29.7822C16.3243 28.2862 15.1058 27.0735 13.6026 27.0735C12.0994 27.0735 10.8809 28.2862 10.8809 29.7822C10.8809 31.2782 12.0994 32.4909 13.6026 32.4909Z" fill="#5BEBC1"/>
<path d="M13.6026 45.123C15.1058 45.123 16.3243 43.9103 16.3243 42.4143C16.3243 40.9183 15.1058 39.7056 13.6026 39.7056C12.0994 39.7056 10.8809 40.9183 10.8809 42.4143C10.8809 43.9103 12.0994 45.123 13.6026 45.123Z" fill="#5BEBC1"/>
<path d="M13.6026 57.7555C15.1058 57.7555 16.3243 56.5428 16.3243 55.0468C16.3243 53.5509 15.1058 52.3381 13.6026 52.3381C12.0994 52.3381 10.8809 53.5509 10.8809 55.0468C10.8809 56.5428 12.0994 57.7555 13.6026 57.7555Z" fill="#5BEBC1"/>
<path d="M13.6026 72.1894C15.1058 72.1894 16.3243 70.9767 16.3243 69.4807C16.3243 67.9847 15.1058 66.772 13.6026 66.772C12.0994 66.772 10.8809 67.9847 10.8809 69.4807C10.8809 70.9767 12.0994 72.1894 13.6026 72.1894Z" fill="#5BEBC1"/>
<path d="M2.7227 5.42059C4.22587 5.42059 5.44444 4.20786 5.44444 2.71188C5.44444 1.2159 4.22587 0.00317383 2.7227 0.00317383C1.21953 0.00317383 0.000976562 1.2159 0.000976562 2.71188C0.000976562 4.20786 1.21953 5.42059 2.7227 5.42059Z" fill="#5BEBC1"/>
<path d="M2.72173 18.0495C4.2249 18.0495 5.44346 16.8368 5.44346 15.3408C5.44346 13.8448 4.2249 12.6321 2.72173 12.6321C1.21856 12.6321 0 13.8448 0 15.3408C0 16.8368 1.21856 18.0495 2.72173 18.0495Z" fill="#5BEBC1"/>
<path d="M2.72173 32.4909C4.2249 32.4909 5.44346 31.2782 5.44346 29.7822C5.44346 28.2862 4.2249 27.0735 2.72173 27.0735C1.21856 27.0735 0 28.2862 0 29.7822C0 31.2782 1.21856 32.4909 2.72173 32.4909Z" fill="#5BEBC1"/>
<path d="M2.72173 45.123C4.2249 45.123 5.44346 43.9103 5.44346 42.4143C5.44346 40.9183 4.2249 39.7056 2.72173 39.7056C1.21856 39.7056 0 40.9183 0 42.4143C0 43.9103 1.21856 45.123 2.72173 45.123Z" fill="#5BEBC1"/>
<path d="M2.72173 57.7555C4.2249 57.7555 5.44346 56.5428 5.44346 55.0468C5.44346 53.5509 4.2249 52.3381 2.72173 52.3381C1.21856 52.3381 0 53.5509 0 55.0468C0 56.5428 1.21856 57.7555 2.72173 57.7555Z" fill="#5BEBC1"/>
<path d="M2.72173 72.1894C4.2249 72.1894 5.44346 70.9767 5.44346 69.4807C5.44346 67.9847 4.2249 66.772 2.72173 66.772C1.21856 66.772 0 67.9847 0 69.4807C0 70.9767 1.21856 72.1894 2.72173 72.1894Z" fill="#5BEBC1"/>
</svg>
