<svg width="51" height="35" viewBox="0 0 51 35" fill="none" xmlns="http://www.w3.org/2000/svg">
<path d="M13.9992 11.8314L25.8305 4.90429e-05L37.6615 11.831L13.9992 11.8314Z" fill="#58EDC0"/>
<ellipse cx="1.17258" cy="33.4017" rx="1.19062" ry="1.17258" transform="rotate(-90 1.17258 33.4017)" fill="#172740"/>
<ellipse cx="6.49436" cy="33.4017" rx="1.19062" ry="1.17258" transform="rotate(-90 6.49436 33.4017)" fill="#172740"/>
<ellipse cx="1.17258" cy="28.0442" rx="1.19062" ry="1.17258" transform="rotate(-90 1.17258 28.0442)" fill="#172740"/>
<ellipse cx="6.49436" cy="28.0442" rx="1.19062" ry="1.17258" transform="rotate(-90 6.49436 28.0442)" fill="#172740"/>
<ellipse cx="1.17258" cy="22.6861" rx="1.19062" ry="1.17258" transform="rotate(-90 1.17258 22.6861)" fill="#172740"/>
<ellipse cx="6.49436" cy="22.6861" rx="1.19062" ry="1.17258" transform="rotate(-90 6.49436 22.6861)" fill="#172740"/>
<ellipse cx="1.17258" cy="17.3284" rx="1.19062" ry="1.17258" transform="rotate(-90 1.17258 17.3284)" fill="#172740"/>
<ellipse cx="6.49436" cy="17.3284" rx="1.19062" ry="1.17258" transform="rotate(-90 6.49436 17.3284)" fill="#172740"/>
<ellipse cx="11.8159" cy="33.4017" rx="1.19062" ry="1.17258" transform="rotate(-90 11.8159 33.4017)" fill="#172740"/>
<ellipse cx="11.8159" cy="28.0442" rx="1.19062" ry="1.17258" transform="rotate(-90 11.8159 28.0442)" fill="#172740"/>
<ellipse cx="11.8159" cy="22.6861" rx="1.19062" ry="1.17258" transform="rotate(-90 11.8159 22.6861)" fill="#172740"/>
<ellipse cx="11.8159" cy="17.3284" rx="1.19062" ry="1.17258" transform="rotate(-90 11.8159 17.3284)" fill="#172740"/>
<ellipse cx="17.1377" cy="33.4017" rx="1.19062" ry="1.17258" transform="rotate(-90 17.1377 33.4017)" fill="#172740"/>
<ellipse cx="17.1377" cy="28.0442" rx="1.19062" ry="1.17258" transform="rotate(-90 17.1377 28.0442)" fill="#172740"/>
<ellipse cx="17.1377" cy="22.6861" rx="1.19062" ry="1.17258" transform="rotate(-90 17.1377 22.6861)" fill="#172740"/>
<ellipse cx="17.1377" cy="17.3284" rx="1.19062" ry="1.17258" transform="rotate(-90 17.1377 17.3284)" fill="#172740"/>
<ellipse cx="22.4594" cy="33.4017" rx="1.19062" ry="1.17258" transform="rotate(-90 22.4594 33.4017)" fill="#172740"/>
<ellipse cx="22.4594" cy="28.0442" rx="1.19062" ry="1.17258" transform="rotate(-90 22.4594 28.0442)" fill="#172740"/>
<ellipse cx="22.4594" cy="22.6861" rx="1.19062" ry="1.17258" transform="rotate(-90 22.4594 22.6861)" fill="#172740"/>
<ellipse cx="22.4594" cy="17.3284" rx="1.19062" ry="1.17258" transform="rotate(-90 22.4594 17.3284)" fill="#172740"/>
<ellipse cx="27.781" cy="33.4017" rx="1.19062" ry="1.17258" transform="rotate(-90 27.781 33.4017)" fill="#172740"/>
<ellipse cx="27.781" cy="28.0442" rx="1.19062" ry="1.17258" transform="rotate(-90 27.781 28.0442)" fill="#172740"/>
<ellipse cx="27.781" cy="22.6861" rx="1.19062" ry="1.17258" transform="rotate(-90 27.781 22.6861)" fill="#172740"/>
<ellipse cx="27.781" cy="17.3284" rx="1.19062" ry="1.17258" transform="rotate(-90 27.781 17.3284)" fill="#172740"/>
<ellipse cx="33.1028" cy="33.4017" rx="1.19062" ry="1.17258" transform="rotate(-90 33.1028 33.4017)" fill="#172740"/>
<ellipse cx="33.1028" cy="28.0442" rx="1.19062" ry="1.17258" transform="rotate(-90 33.1028 28.0442)" fill="#172740"/>
<ellipse cx="33.1028" cy="22.6861" rx="1.19062" ry="1.17258" transform="rotate(-90 33.1028 22.6861)" fill="#172740"/>
<ellipse cx="33.1028" cy="17.3284" rx="1.19062" ry="1.17258" transform="rotate(-90 33.1028 17.3284)" fill="#172740"/>
<ellipse cx="38.4245" cy="33.4017" rx="1.19062" ry="1.17258" transform="rotate(-90 38.4245 33.4017)" fill="#172740"/>
<ellipse cx="38.4245" cy="28.0442" rx="1.19062" ry="1.17258" transform="rotate(-90 38.4245 28.0442)" fill="#172740"/>
<ellipse cx="38.4245" cy="22.6861" rx="1.19062" ry="1.17258" transform="rotate(-90 38.4245 22.6861)" fill="#172740"/>
<ellipse cx="38.4245" cy="17.3284" rx="1.19062" ry="1.17258" transform="rotate(-90 38.4245 17.3284)" fill="#172740"/>
<ellipse cx="43.7463" cy="33.4017" rx="1.19062" ry="1.17258" transform="rotate(-90 43.7463 33.4017)" fill="#172740"/>
<ellipse cx="43.7463" cy="28.0442" rx="1.19062" ry="1.17258" transform="rotate(-90 43.7463 28.0442)" fill="#172740"/>
<ellipse cx="43.7463" cy="22.6861" rx="1.19062" ry="1.17258" transform="rotate(-90 43.7463 22.6861)" fill="#172740"/>
<ellipse cx="43.7463" cy="17.3284" rx="1.19062" ry="1.17258" transform="rotate(-90 43.7463 17.3284)" fill="#172740"/>
<ellipse cx="49.0678" cy="33.4017" rx="1.19062" ry="1.17258" transform="rotate(-90 49.0678 33.4017)" fill="#172740"/>
<ellipse cx="49.0678" cy="28.0442" rx="1.19062" ry="1.17258" transform="rotate(-90 49.0678 28.0442)" fill="#172740"/>
<ellipse cx="49.0678" cy="22.6861" rx="1.19062" ry="1.17258" transform="rotate(-90 49.0678 22.6861)" fill="#172740"/>
<ellipse cx="49.0678" cy="17.3284" rx="1.19062" ry="1.17258" transform="rotate(-90 49.0678 17.3284)" fill="#172740"/>
</svg>
