<svg width="12" height="13" viewBox="0 0 12 13" fill="none" xmlns="http://www.w3.org/2000/svg">
<path d="M6 0.6875C2.78906 0.6875 0.1875 3.3125 0.1875 6.5C0.1875 9.71094 2.78906 12.3125 6 12.3125C9.1875 12.3125 11.8125 9.71094 11.8125 6.5C11.8125 3.3125 9.1875 0.6875 6 0.6875ZM6 11.1875C3.39844 11.1875 1.3125 9.10156 1.3125 6.5C1.3125 3.92188 3.39844 1.8125 6 1.8125C8.57812 1.8125 10.6875 3.92188 10.6875 6.5C10.6875 9.10156 8.57812 11.1875 6 11.1875ZM6.98438 8.75C6.98438 8.21094 6.53906 7.76562 6 7.76562C5.4375 7.76562 5.01562 8.21094 5.01562 8.75C5.01562 9.3125 5.4375 9.73438 6 9.73438C6.53906 9.73438 6.98438 9.3125 6.98438 8.75ZM5.0625 3.80469L5.22656 6.99219C5.22656 7.13281 5.36719 7.25 5.50781 7.25H6.46875C6.60938 7.25 6.75 7.13281 6.75 6.99219L6.91406 3.80469C6.91406 3.64062 6.79688 3.5 6.63281 3.5H5.34375C5.17969 3.5 5.0625 3.64062 5.0625 3.80469Z" fill="#AE2B2B"/>
</svg>
