<svg width="70" height="74" viewBox="0 0 70 74" fill="none" xmlns="http://www.w3.org/2000/svg">
<path d="M66.442 5.81325C68.0182 5.81325 69.296 4.51191 69.296 2.90662C69.296 1.30134 68.0182 0 66.442 0C64.8657 0 63.5879 1.30134 63.5879 2.90662C63.5879 4.51191 64.8657 5.81325 66.442 5.81325Z" fill="#1C345C"/>
<path d="M66.442 19.4507C68.0182 19.4507 69.296 18.1493 69.296 16.5441C69.296 14.9388 68.0182 13.6375 66.442 13.6375C64.8657 13.6375 63.5879 14.9388 63.5879 16.5441C63.5879 18.1493 64.8657 19.4507 66.442 19.4507Z" fill="#1C345C"/>
<path d="M66.442 33.0879C68.0182 33.0879 69.296 31.7866 69.296 30.1813C69.296 28.576 68.0182 27.2747 66.442 27.2747C64.8657 27.2747 63.5879 28.576 63.5879 30.1813C63.5879 31.7866 64.8657 33.0879 66.442 33.0879Z" fill="#1C345C"/>
<path d="M66.442 46.7254C68.0182 46.7254 69.296 45.424 69.296 43.8187C69.296 42.2134 68.0182 40.9121 66.442 40.9121C64.8657 40.9121 63.5879 42.2134 63.5879 43.8187C63.5879 45.424 64.8657 46.7254 66.442 46.7254Z" fill="#1C345C"/>
<path d="M66.442 60.3627C68.0182 60.3627 69.296 59.0613 69.296 57.4561C69.296 55.8508 68.0182 54.5494 66.442 54.5494C64.8657 54.5494 63.5879 55.8508 63.5879 57.4561C63.5879 59.0613 64.8657 60.3627 66.442 60.3627Z" fill="#1C345C"/>
<path d="M66.442 74C68.0182 74 69.296 72.6987 69.296 71.0934C69.296 69.4881 68.0182 68.1868 66.442 68.1868C64.8657 68.1868 63.5879 69.4881 63.5879 71.0934C63.5879 72.6987 64.8657 74 66.442 74Z" fill="#1C345C"/>
<path d="M55.8424 5.81325C57.4186 5.81325 58.6964 4.51191 58.6964 2.90662C58.6964 1.30134 57.4186 0 55.8424 0C54.2661 0 52.9883 1.30134 52.9883 2.90662C52.9883 4.51191 54.2661 5.81325 55.8424 5.81325Z" fill="#1C345C"/>
<path d="M55.8424 19.4507C57.4186 19.4507 58.6964 18.1493 58.6964 16.5441C58.6964 14.9388 57.4186 13.6375 55.8424 13.6375C54.2661 13.6375 52.9883 14.9388 52.9883 16.5441C52.9883 18.1493 54.2661 19.4507 55.8424 19.4507Z" fill="#1C345C"/>
<path d="M55.8424 33.0879C57.4186 33.0879 58.6964 31.7866 58.6964 30.1813C58.6964 28.576 57.4186 27.2747 55.8424 27.2747C54.2661 27.2747 52.9883 28.576 52.9883 30.1813C52.9883 31.7866 54.2661 33.0879 55.8424 33.0879Z" fill="#1C345C"/>
<path d="M55.8424 46.7254C57.4186 46.7254 58.6964 45.424 58.6964 43.8187C58.6964 42.2134 57.4186 40.9121 55.8424 40.9121C54.2661 40.9121 52.9883 42.2134 52.9883 43.8187C52.9883 45.424 54.2661 46.7254 55.8424 46.7254Z" fill="#1C345C"/>
<path d="M55.8424 60.3627C57.4186 60.3627 58.6964 59.0613 58.6964 57.4561C58.6964 55.8508 57.4186 54.5494 55.8424 54.5494C54.2661 54.5494 52.9883 55.8508 52.9883 57.4561C52.9883 59.0613 54.2661 60.3627 55.8424 60.3627Z" fill="#1C345C"/>
<path d="M55.8424 74C57.4186 74 58.6964 72.6987 58.6964 71.0934C58.6964 69.4881 57.4186 68.1868 55.8424 68.1868C54.2661 68.1868 52.9883 69.4881 52.9883 71.0934C52.9883 72.6987 54.2661 74 55.8424 74Z" fill="#1C345C"/>
<path d="M45.2486 5.81325C46.8248 5.81325 48.1026 4.51191 48.1026 2.90662C48.1026 1.30134 46.8248 0 45.2486 0C43.6723 0 42.3945 1.30134 42.3945 2.90662C42.3945 4.51191 43.6723 5.81325 45.2486 5.81325Z" fill="#1C345C"/>
<path d="M45.2486 19.4507C46.8248 19.4507 48.1026 18.1493 48.1026 16.5441C48.1026 14.9388 46.8248 13.6375 45.2486 13.6375C43.6723 13.6375 42.3945 14.9388 42.3945 16.5441C42.3945 18.1493 43.6723 19.4507 45.2486 19.4507Z" fill="#1C345C"/>
<path d="M45.2486 33.0879C46.8248 33.0879 48.1026 31.7866 48.1026 30.1813C48.1026 28.576 46.8248 27.2747 45.2486 27.2747C43.6723 27.2747 42.3945 28.576 42.3945 30.1813C42.3945 31.7866 43.6723 33.0879 45.2486 33.0879Z" fill="#1C345C"/>
<path d="M45.2486 46.7254C46.8248 46.7254 48.1026 45.424 48.1026 43.8187C48.1026 42.2134 46.8248 40.9121 45.2486 40.9121C43.6723 40.9121 42.3945 42.2134 42.3945 43.8187C42.3945 45.424 43.6723 46.7254 45.2486 46.7254Z" fill="#1C345C"/>
<path d="M45.2486 60.3627C46.8248 60.3627 48.1026 59.0613 48.1026 57.4561C48.1026 55.8508 46.8248 54.5494 45.2486 54.5494C43.6723 54.5494 42.3945 55.8508 42.3945 57.4561C42.3945 59.0613 43.6723 60.3627 45.2486 60.3627Z" fill="#1C345C"/>
<path d="M45.2486 74C46.8248 74 48.1026 72.6987 48.1026 71.0934C48.1026 69.4881 46.8248 68.1868 45.2486 68.1868C43.6723 68.1868 42.3945 69.4881 42.3945 71.0934C42.3945 72.6987 43.6723 74 45.2486 74Z" fill="#1C345C"/>
<path d="M34.649 5.81325C36.2252 5.81325 37.503 4.51191 37.503 2.90662C37.503 1.30134 36.2252 0 34.649 0C33.0727 0 31.7949 1.30134 31.7949 2.90662C31.7949 4.51191 33.0727 5.81325 34.649 5.81325Z" fill="#1C345C"/>
<path d="M34.649 19.4507C36.2252 19.4507 37.503 18.1493 37.503 16.5441C37.503 14.9388 36.2252 13.6375 34.649 13.6375C33.0727 13.6375 31.7949 14.9388 31.7949 16.5441C31.7949 18.1493 33.0727 19.4507 34.649 19.4507Z" fill="#1C345C"/>
<path d="M34.649 33.0879C36.2252 33.0879 37.503 31.7866 37.503 30.1813C37.503 28.576 36.2252 27.2747 34.649 27.2747C33.0727 27.2747 31.7949 28.576 31.7949 30.1813C31.7949 31.7866 33.0727 33.0879 34.649 33.0879Z" fill="#1C345C"/>
<path d="M34.649 46.7254C36.2252 46.7254 37.503 45.424 37.503 43.8187C37.503 42.2134 36.2252 40.9121 34.649 40.9121C33.0727 40.9121 31.7949 42.2134 31.7949 43.8187C31.7949 45.424 33.0727 46.7254 34.649 46.7254Z" fill="#1C345C"/>
<path d="M34.649 60.3627C36.2252 60.3627 37.503 59.0613 37.503 57.4561C37.503 55.8508 36.2252 54.5494 34.649 54.5494C33.0727 54.5494 31.7949 55.8508 31.7949 57.4561C31.7949 59.0613 33.0727 60.3627 34.649 60.3627Z" fill="#1C345C"/>
<path d="M34.649 74C36.2252 74 37.503 72.6987 37.503 71.0934C37.503 69.4881 36.2252 68.1868 34.649 68.1868C33.0727 68.1868 31.7949 69.4881 31.7949 71.0934C31.7949 72.6987 33.0727 74 34.649 74Z" fill="#1C345C"/>
<path d="M24.0474 5.81325C25.6237 5.81325 26.9015 4.51191 26.9015 2.90662C26.9015 1.30134 25.6237 0 24.0474 0C22.4712 0 21.1934 1.30134 21.1934 2.90662C21.1934 4.51191 22.4712 5.81325 24.0474 5.81325Z" fill="#1C345C"/>
<path d="M24.0474 19.4507C25.6237 19.4507 26.9015 18.1493 26.9015 16.5441C26.9015 14.9388 25.6237 13.6375 24.0474 13.6375C22.4712 13.6375 21.1934 14.9388 21.1934 16.5441C21.1934 18.1493 22.4712 19.4507 24.0474 19.4507Z" fill="#1C345C"/>
<path d="M24.0474 33.0879C25.6237 33.0879 26.9015 31.7866 26.9015 30.1813C26.9015 28.576 25.6237 27.2747 24.0474 27.2747C22.4712 27.2747 21.1934 28.576 21.1934 30.1813C21.1934 31.7866 22.4712 33.0879 24.0474 33.0879Z" fill="#1C345C"/>
<path d="M24.0474 46.7254C25.6237 46.7254 26.9015 45.424 26.9015 43.8187C26.9015 42.2134 25.6237 40.9121 24.0474 40.9121C22.4712 40.9121 21.1934 42.2134 21.1934 43.8187C21.1934 45.424 22.4712 46.7254 24.0474 46.7254Z" fill="#1C345C"/>
<path d="M24.0474 60.3627C25.6237 60.3627 26.9015 59.0613 26.9015 57.4561C26.9015 55.8508 25.6237 54.5494 24.0474 54.5494C22.4712 54.5494 21.1934 55.8508 21.1934 57.4561C21.1934 59.0613 22.4712 60.3627 24.0474 60.3627Z" fill="#1C345C"/>
<path d="M24.0474 74C25.6237 74 26.9015 72.6987 26.9015 71.0934C26.9015 69.4881 25.6237 68.1868 24.0474 68.1868C22.4712 68.1868 21.1934 69.4881 21.1934 71.0934C21.1934 72.6987 22.4712 74 24.0474 74Z" fill="#1C345C"/>
<path d="M13.4556 5.81325C15.0319 5.81325 16.3097 4.51191 16.3097 2.90662C16.3097 1.30134 15.0319 0 13.4556 0C11.8794 0 10.6016 1.30134 10.6016 2.90662C10.6016 4.51191 11.8794 5.81325 13.4556 5.81325Z" fill="#1C345C"/>
<path d="M13.4556 19.4507C15.0319 19.4507 16.3097 18.1493 16.3097 16.5441C16.3097 14.9388 15.0319 13.6375 13.4556 13.6375C11.8794 13.6375 10.6016 14.9388 10.6016 16.5441C10.6016 18.1493 11.8794 19.4507 13.4556 19.4507Z" fill="#1C345C"/>
<path d="M13.4556 33.0879C15.0319 33.0879 16.3097 31.7866 16.3097 30.1813C16.3097 28.576 15.0319 27.2747 13.4556 27.2747C11.8794 27.2747 10.6016 28.576 10.6016 30.1813C10.6016 31.7866 11.8794 33.0879 13.4556 33.0879Z" fill="#1C345C"/>
<path d="M13.4556 46.7254C15.0319 46.7254 16.3097 45.424 16.3097 43.8187C16.3097 42.2134 15.0319 40.9121 13.4556 40.9121C11.8794 40.9121 10.6016 42.2134 10.6016 43.8187C10.6016 45.424 11.8794 46.7254 13.4556 46.7254Z" fill="#1C345C"/>
<path d="M13.4556 60.3627C15.0319 60.3627 16.3097 59.0613 16.3097 57.4561C16.3097 55.8508 15.0319 54.5494 13.4556 54.5494C11.8794 54.5494 10.6016 55.8508 10.6016 57.4561C10.6016 59.0613 11.8794 60.3627 13.4556 60.3627Z" fill="#1C345C"/>
<path d="M13.4556 74C15.0319 74 16.3097 72.6987 16.3097 71.0934C16.3097 69.4881 15.0319 68.1868 13.4556 68.1868C11.8794 68.1868 10.6016 69.4881 10.6016 71.0934C10.6016 72.6987 11.8794 74 13.4556 74Z" fill="#1C345C"/>
<path d="M2.85407 5.81327C4.43033 5.81327 5.70815 4.51193 5.70815 2.90664C5.70815 1.30135 4.43033 0 2.85407 0C1.27781 0 0 1.30135 0 2.90664C0 4.51193 1.27781 5.81327 2.85407 5.81327Z" fill="#1C345C"/>
<path d="M2.85407 19.4507C4.43033 19.4507 5.70815 18.1493 5.70815 16.5441C5.70815 14.9388 4.43033 13.6375 2.85407 13.6375C1.27781 13.6375 0 14.9388 0 16.5441C0 18.1493 1.27781 19.4507 2.85407 19.4507Z" fill="#1C345C"/>
<path d="M2.85407 33.0879C4.43033 33.0879 5.70815 31.7866 5.70815 30.1813C5.70815 28.576 4.43033 27.2747 2.85407 27.2747C1.27781 27.2747 0 28.576 0 30.1813C0 31.7866 1.27781 33.0879 2.85407 33.0879Z" fill="#1C345C"/>
<path d="M2.85407 46.7254C4.43033 46.7254 5.70815 45.424 5.70815 43.8187C5.70815 42.2134 4.43033 40.9121 2.85407 40.9121C1.27781 40.9121 0 42.2134 0 43.8187C0 45.424 1.27781 46.7254 2.85407 46.7254Z" fill="#1C345C"/>
<path d="M2.85407 60.3627C4.43033 60.3627 5.70815 59.0613 5.70815 57.4561C5.70815 55.8508 4.43033 54.5494 2.85407 54.5494C1.27781 54.5494 0 55.8508 0 57.4561C0 59.0613 1.27781 60.3627 2.85407 60.3627Z" fill="#1C345C"/>
<path d="M2.85407 74C4.43033 74 5.70815 72.6987 5.70815 71.0934C5.70815 69.4881 4.43033 68.1868 2.85407 68.1868C1.27781 68.1868 0 69.4881 0 71.0934C0 72.6987 1.27781 74 2.85407 74Z" fill="#1C345C"/>
</svg>
